STARTFONT 2.1
COMMENT
COMMENT Converted from OpenType font "OpenSans-Bold.ttf" by "otf2bdf 3.0".
COMMENT
FONT -FreeType-Open Sans-Bold-R-Normal--25-180-100-100-P-137-ISO10646-1
SIZE 18 100 100
FONTBOUNDINGBOX 47 34 -14 -7
STARTPROPERTIES 19
FOUNDRY "FreeType"
FAMILY_NAME "Open Sans"
WEIGHT_NAME "Bold"
SLANT "R"
SETWIDTH_NAME "Normal"
ADD_STYLE_NAME ""
PIXEL_SIZE 25
POINT_SIZE 180
RESOLUTION_X 100
RESOLUTION_Y 100
SPACING "P"
AVERAGE_WIDTH 137
CHARSET_REGISTRY "ISO10646"
CHARSET_ENCODING "1"
FONT_ASCENT 26
FONT_DESCENT 7
COPYRIGHT "Copyright 2020 The Open Sans Project Authors (https://github.com/googlefonts/opensans)"
_OTF_FONTFILE "OpenSans-Bold.ttf"
_OTF_PSNAME "OpenSans-Bold"
ENDPROPERTIES
CHARS 1010
STARTCHAR 0000
ENCODING 0
SWIDTH 0 0
DWIDTH 0 0
BBX 0 0 0 0
BITMAP
ENDCHAR
STARTCHAR 000D
ENCODING 13
SWIDTH 240 0
DWIDTH 6 0
BBX 0 0 0 0
BITMAP
ENDCHAR
STARTCHAR 0020
ENCODING 32
SWIDTH 240 0
DWIDTH 6 0
BBX 0 0 0 0
BITMAP
ENDCHAR
STARTCHAR 0021
ENCODING 33
SWIDTH 280 0
DWIDTH 7 0
BBX 5 18 1 0
BITMAP
78
78
78
78
70
70
70
70
70
70
70
70
00
00
70
78
F8
70
ENDCHAR
STARTCHAR 0022
ENCODING 34
SWIDTH 440 0
DWIDTH 11 0
BBX 8 7 2 11
BITMAP
E7
E7
E7
E7
E7
E7
E7
ENDCHAR
STARTCHAR 0023
ENCODING 35
SWIDTH 640 0
DWIDTH 16 0
BBX 15 18 1 0
BITMAP
0738
0630
0E30
0E70
0E70
FFFE
FFFE
FFFE
1CE0
1CE0
1CE0
FFFC
FFFC
39C0
39C0
39C0
31C0
3180
ENDCHAR
STARTCHAR 0024
ENCODING 36
SWIDTH 560 0
DWIDTH 14 0
BBX 12 20 1 -1
BITMAP
0600
0600
1FE0
7FF0
FFE0
F620
F600
FE00
7E00
3F80
1FE0
07F0
06F0
0670
C6F0
FFF0
FFE0
3F80
0600
0600
ENDCHAR
STARTCHAR 0025
ENCODING 37
SWIDTH 880 0
DWIDTH 22 0
BBX 21 18 1 0
BITMAP
3C0300
7E0700
FF0E00
E70E00
E71C00
E71C00
E73800
E73BC0
FF77F0
7E67F0
3CEF78
01CE38
01CE38
038E38
038F78
070770
0707F0
0E03E0
ENDCHAR
STARTCHAR 0026
ENCODING 38
SWIDTH 720 0
DWIDTH 18 0
BBX 17 18 1 0
BITMAP
0FC000
3FE000
3FF000
38F000
38F000
38E000
3FE000
1FC000
1F8780
7F8780
7BCF00
F1EF00
F0FE00
F07E00
F87C00
7FFE00
7FFF00
1FC780
ENDCHAR
STARTCHAR 0027
ENCODING 39
SWIDTH 240 0
DWIDTH 6 0
BBX 3 7 2 11
BITMAP
E0
E0
E0
E0
E0
E0
E0
ENDCHAR
STARTCHAR 0028
ENCODING 40
SWIDTH 320 0
DWIDTH 8 0
BBX 7 22 1 -4
BITMAP
1E
1C
38
38
70
70
70
F0
E0
E0
E0
E0
E0
E0
F0
F0
70
70
78
38
1C
1C
ENDCHAR
STARTCHAR 0029
ENCODING 41
SWIDTH 320 0
DWIDTH 8 0
BBX 6 22 1 -4
BITMAP
E0
70
70
38
38
3C
1C
1C
1C
1C
1C
1C
1C
1C
1C
1C
3C
38
38
78
70
E0
ENDCHAR
STARTCHAR 002A
ENCODING 42
SWIDTH 520 0
DWIDTH 13 0
BBX 12 11 1 7
BITMAP
0E00
0E00
0E00
8620
FFF0
FFF0
3F80
1F00
3B80
39C0
39C0
ENDCHAR
STARTCHAR 002B
ENCODING 43
SWIDTH 560 0
DWIDTH 14 0
BBX 12 12 1 3
BITMAP
0600
0600
0600
0600
0600
FFF0
FFF0
FFF0
0600
0600
0600
0600
ENDCHAR
STARTCHAR 002C
ENCODING 44
SWIDTH 280 0
DWIDTH 7 0
BBX 5 6 1 -3
BITMAP
78
70
70
F0
E0
E0
ENDCHAR
STARTCHAR 002D
ENCODING 45
SWIDTH 320 0
DWIDTH 8 0
BBX 6 3 1 5
BITMAP
FC
FC
FC
ENDCHAR
STARTCHAR 002E
ENCODING 46
SWIDTH 280 0
DWIDTH 7 0
BBX 5 4 1 0
BITMAP
70
78
F8
70
ENDCHAR
STARTCHAR 002F
ENCODING 47
SWIDTH 400 0
DWIDTH 10 0
BBX 10 18 0 0
BITMAP
01C0
03C0
0380
0380
0780
0700
0F00
0E00
0E00
1E00
1C00
1C00
3C00
3800
7800
7000
7000
F000
ENDCHAR
STARTCHAR 0030
ENCODING 48
SWIDTH 560 0
DWIDTH 14 0
BBX 12 18 1 0
BITMAP
1F80
3FC0
7FE0
79E0
F0F0
F0F0
F0F0
F070
F070
F070
F070
F0F0
F0F0
F0F0
78F0
7FE0
3FC0
1F80
ENDCHAR
STARTCHAR 0031
ENCODING 49
SWIDTH 560 0
DWIDTH 14 0
BBX 8 18 2 0
BITMAP
07
0F
3F
7F
F7
E7
47
07
07
07
07
07
07
07
07
07
07
07
ENDCHAR
STARTCHAR 0032
ENCODING 50
SWIDTH 560 0
DWIDTH 14 0
BBX 12 18 1 0
BITMAP
1F80
7FE0
FFE0
71F0
00F0
00F0
00F0
01E0
01E0
03C0
0780
0F00
1E00
3C00
7800
FFF0
FFF0
FFF0
ENDCHAR
STARTCHAR 0033
ENCODING 51
SWIDTH 560 0
DWIDTH 14 0
BBX 12 18 1 0
BITMAP
3F80
FFE0
7FE0
61F0
00F0
00F0
01E0
1FC0
1F00
1FE0
03F0
00F0
00F0
00F0
80F0
FFF0
FFE0
7F80
ENDCHAR
STARTCHAR 0034
ENCODING 52
SWIDTH 560 0
DWIDTH 14 0
BBX 14 18 0 0
BITMAP
00F0
01F0
01F0
03F0
07F0
07F0
0EF0
1CF0
1CF0
38F0
70F0
7FFC
FFFC
FFFC
00F0
00F0
00F0
00F0
ENDCHAR
STARTCHAR 0035
ENCODING 53
SWIDTH 560 0
DWIDTH 14 0
BBX 12 18 1 0
BITMAP
7FE0
7FE0
7FE0
7800
7000
7000
7000
7FC0
7FE0
7FF0
00F0
00F0
00F0
00F0
81F0
FFE0
FFC0
7F80
ENDCHAR
STARTCHAR 0036
ENCODING 54
SWIDTH 560 0
DWIDTH 14 0
BBX 12 18 1 0
BITMAP
07E0
1FE0
3FE0
7C00
7800
7000
F100
EFE0
FFF0
FDF0
F0F0
F070
F070
F070
78F0
7FF0
3FE0
1FC0
ENDCHAR
STARTCHAR 0037
ENCODING 55
SWIDTH 560 0
DWIDTH 14 0
BBX 12 18 1 0
BITMAP
FFF0
FFF0
FFF0
00F0
00F0
01E0
01E0
01C0
03C0
0380
0780
0780
0F00
0F00
1E00
1E00
3C00
3C00
ENDCHAR
STARTCHAR 0038
ENCODING 56
SWIDTH 560 0
DWIDTH 14 0
BBX 12 18 1 0
BITMAP
1F80
3FE0
7FE0
F0F0
F0F0
70F0
79E0
3FC0
1F80
3FC0
7BE0
F0F0
E070
E070
F070
FFF0
7FE0
3FC0
ENDCHAR
STARTCHAR 0039
ENCODING 57
SWIDTH 560 0
DWIDTH 14 0
BBX 12 18 1 0
BITMAP
1F80
3FC0
7FE0
F1F0
F0F0
E070
E070
F0F0
F1F0
7FF0
7F70
1E70
00F0
00E0
01E0
7FC0
7F80
7F00
ENDCHAR
STARTCHAR 003A
ENCODING 58
SWIDTH 280 0
DWIDTH 7 0
BBX 5 14 1 0
BITMAP
70
F8
F8
70
00
00
00
00
00
00
70
78
F8
70
ENDCHAR
STARTCHAR 003B
ENCODING 59
SWIDTH 280 0
DWIDTH 7 0
BBX 5 17 1 -3
BITMAP
70
F8
F8
70
00
00
00
00
00
00
00
78
70
70
F0
E0
E0
ENDCHAR
STARTCHAR 003C
ENCODING 60
SWIDTH 560 0
DWIDTH 14 0
BBX 12 12 1 3
BITMAP
0030
00F0
03F0
0FC0
3E00
F800
F800
7E00
1FC0
07F0
00F0
0030
ENDCHAR
STARTCHAR 003D
ENCODING 61
SWIDTH 560 0
DWIDTH 14 0
BBX 12 8 1 5
BITMAP
FFF0
FFF0
FFF0
0000
0000
FFF0
FFF0
FFF0
ENDCHAR
STARTCHAR 003E
ENCODING 62
SWIDTH 560 0
DWIDTH 14 0
BBX 12 12 1 3
BITMAP
C000
F000
FC00
1F00
07C0
01F0
00F0
07E0
1F80
FE00
F800
C000
ENDCHAR
STARTCHAR 003F
ENCODING 63
SWIDTH 440 0
DWIDTH 11 0
BBX 11 18 0 0
BITMAP
3F80
FFC0
7FE0
61E0
00E0
00E0
01E0
07C0
0F80
0F00
1E00
1E00
0000
0000
0C00
1E00
1E00
1E00
ENDCHAR
STARTCHAR 0040
ENCODING 64
SWIDTH 880 0
DWIDTH 22 0
BBX 20 20 1 -2
BITMAP
00FC00
07FF00
0FDFC0
1E01C0
3800E0
30FE70
73FE70
638E70
E70E70
E70E70
E70E70
E70E70
E71E70
63FFE0
71F7C0
700000
380000
1F0700
0FFF00
03FC00
ENDCHAR
STARTCHAR 0041
ENCODING 65
SWIDTH 680 0
DWIDTH 17 0
BBX 17 18 0 0
BITMAP
03E000
03E000
07F000
077000
077000
0F7800
0F3800
0E3C00
1E3C00
1E1C00
1C1E00
3FFE00
3FFE00
3FFF00
780F00
780F00
780780
F00780
ENDCHAR
STARTCHAR 0042
ENCODING 66
SWIDTH 640 0
DWIDTH 16 0
BBX 13 18 2 0
BITMAP
FF80
FFF0
FFF8
F1F8
F078
F078
F078
FFF0
FFC0
FFF0
F0F8
F078
F038
F078
F0F8
FFF8
FFF0
FFC0
ENDCHAR
STARTCHAR 0043
ENCODING 67
SWIDTH 600 0
DWIDTH 15 0
BBX 14 18 1 0
BITMAP
07F0
0FFC
1FFC
3E18
7C00
7800
7800
7000
F000
F000
7000
7800
7800
7800
3C08
3FF8
1FF8
07F8
ENDCHAR
STARTCHAR 0044
ENCODING 68
SWIDTH 720 0
DWIDTH 18 0
BBX 15 18 2 0
BITMAP
FF80
FFE0
FFF8
F0FC
F03C
F03E
F01E
F01E
F01E
F01E
F01E
F01E
F03E
F03C
F0FC
FFF8
FFE0
FF80
ENDCHAR
STARTCHAR 0045
ENCODING 69
SWIDTH 560 0
DWIDTH 14 0
BBX 11 18 2 0
BITMAP
FFE0
FFE0
FFE0
F000
F000
F000
F000
FFC0
FFC0
FFC0
F000
F000
F000
F000
F000
FFE0
FFE0
FFE0
ENDCHAR
STARTCHAR 0046
ENCODING 70
SWIDTH 520 0
DWIDTH 13 0
BBX 10 18 2 0
BITMAP
FFC0
FFC0
FFC0
F000
F000
F000
F000
F000
FFC0
FFC0
FFC0
F000
F000
F000
F000
F000
F000
F000
ENDCHAR
STARTCHAR 0047
ENCODING 71
SWIDTH 720 0
DWIDTH 18 0
BBX 15 18 1 0
BITMAP
03FC
0FFE
1FFC
3F0C
7C00
7800
7800
7000
F0FE
F0FE
F0FE
781E
781E
7C1E
3E1E
3FFE
1FFE
07FC
ENDCHAR
STARTCHAR 0048
ENCODING 72
SWIDTH 760 0
DWIDTH 19 0
BBX 15 18 2 0
BITMAP
F01E
F01E
F01E
F01E
F01E
F01E
F01E
FFFE
FFFE
FFFE
F01E
F01E
F01E
F01E
F01E
F01E
F01E
F01E
ENDCHAR
STARTCHAR 0049
ENCODING 73
SWIDTH 320 0
DWIDTH 8 0
BBX 4 18 2 0
BITMAP
F0
F0
F0
F0
F0
F0
F0
F0
F0
F0
F0
F0
F0
F0
F0
F0
F0
F0
ENDCHAR
STARTCHAR 004A
ENCODING 74
SWIDTH 320 0
DWIDTH 8 0
BBX 8 23 -2 -5
BITMAP
0F
0F
0F
0F
0F
0F
0F
0F
0F
0F
0F
0F
0F
0F
0F
0F
0F
0F
0F
0F
FE
FE
FC
ENDCHAR
STARTCHAR 004B
ENCODING 75
SWIDTH 640 0
DWIDTH 16 0
BBX 14 18 2 0
BITMAP
F03C
F07C
F0F8
F0F0
F1E0
F3C0
F7C0
F780
FF80
FF80
FFC0
F3E0
F1E0
F1F0
F0F0
F078
F07C
F03C
ENDCHAR
STARTCHAR 004C
ENCODING 76
SWIDTH 560 0
DWIDTH 14 0
BBX 11 18 2 0
BITMAP
F000
F000
F000
F000
F000
F000
F000
F000
F000
F000
F000
F000
F000
F000
F000
FFE0
FFE0
FFE0
ENDCHAR
STARTCHAR 004D
ENCODING 77
SWIDTH 920 0
DWIDTH 23 0
BBX 19 18 2 0
BITMAP
FC03E0
FC03E0
FC07E0
FC07E0
EE07E0
EE0EE0
FE0EE0
F70EE0
F71CE0
F71CE0
F79CE0
F3B8E0
F3B8E0
F3F8E0
F1F0E0
F1F0E0
F1F0E0
F0E0E0
ENDCHAR
STARTCHAR 004E
ENCODING 78
SWIDTH 800 0
DWIDTH 20 0
BBX 16 18 2 0
BITMAP
F807
FC07
FC07
FE07
FF07
EF07
E787
F787
F3C7
F3C7
F1E7
F0F7
F0F7
F07F
F07F
F03F
F03F
F01F
ENDCHAR
STARTCHAR 004F
ENCODING 79
SWIDTH 760 0
DWIDTH 19 0
BBX 17 18 1 0
BITMAP
07F800
1FFC00
3FFE00
3E1F00
7C0F80
780780
780780
780780
F80780
F00780
700780
780780
780780
7C0F80
3E1F00
3FFF00
1FFE00
07F800
ENDCHAR
STARTCHAR 0050
ENCODING 80
SWIDTH 600 0
DWIDTH 15 0
BBX 13 18 2 0
BITMAP
FF80
FFE0
FFF0
F1F0
F0F0
F078
F078
F0F0
F3F0
FFE0
FFC0
FE00
F000
F000
F000
F000
F000
F000
ENDCHAR
STARTCHAR 0051
ENCODING 81
SWIDTH 760 0
DWIDTH 19 0
BBX 17 22 1 -4
BITMAP
07F800
1FFC00
3FFE00
3E1F00
7C0F80
780780
780780
780780
F80780
F00780
700780
780780
780780
7C0F80
3E1F00
3FFF00
1FFE00
07F800
007C00
003E00
001F00
000F80
ENDCHAR
STARTCHAR 0052
ENCODING 82
SWIDTH 640 0
DWIDTH 16 0
BBX 14 18 2 0
BITMAP
FF00
FFE0
FFF0
F1F0
F070
F078
F070
F0F0
FFF0
FFE0
FF80
F3C0
F1E0
F1E0
F0F0
F078
F078
F03C
ENDCHAR
STARTCHAR 0053
ENCODING 83
SWIDTH 520 0
DWIDTH 13 0
BBX 12 18 1 0
BITMAP
1FC0
3FF0
7FE0
7860
F000
F000
7800
7E00
3F80
1FC0
07E0
01F0
00F0
00F0
C0F0
FFE0
FFC0
7F80
ENDCHAR
STARTCHAR 0054
ENCODING 84
SWIDTH 560 0
DWIDTH 14 0
BBX 14 18 0 0
BITMAP
FFFC
FFFC
FFFC
0780
0780
0780
0780
0780
0780
0780
0780
0780
0780
0780
0780
0780
0780
0780
ENDCHAR
STARTCHAR 0055
ENCODING 85
SWIDTH 720 0
DWIDTH 18 0
BBX 15 18 2 0
BITMAP
F01E
F01E
F01E
F01E
F01E
F01E
F01E
F01E
F01E
F01E
F01E
F01E
F01E
F01E
783C
7FFC
3FF8
1FE0
ENDCHAR
STARTCHAR 0056
ENCODING 86
SWIDTH 640 0
DWIDTH 16 0
BBX 16 18 0 0
BITMAP
F00F
F00F
780E
781E
781E
3C1C
3C3C
3C3C
1C38
1E78
0E78
0E70
0F70
07F0
07E0
07E0
03E0
03C0
ENDCHAR
STARTCHAR 0057
ENCODING 87
SWIDTH 960 0
DWIDTH 24 0
BBX 24 18 0 0
BITMAP
F03C0F
F03C0F
703C0F
707E0E
787E1E
787E1E
387F1E
38F71C
3CE73C
3CE73C
1CE7BC
1DE3B8
1FC3B8
1FC3F8
0FC3F8
0FC1F0
0F81F0
0F81F0
ENDCHAR
STARTCHAR 0058
ENCODING 88
SWIDTH 640 0
DWIDTH 16 0
BBX 16 18 0 0
BITMAP
780F
781E
3C1E
1E3C
1E3C
0F78
0FF0
07F0
03E0
07E0
07F0
0FF0
0E78
1E3C
3C3C
3C1E
781F
F00F
ENDCHAR
STARTCHAR 0059
ENCODING 89
SWIDTH 600 0
DWIDTH 15 0
BBX 15 18 0 0
BITMAP
F01E
781E
783C
3C3C
3C78
1E78
1EF0
0FF0
0FE0
07E0
03C0
03C0
03C0
03C0
03C0
03C0
03C0
03C0
ENDCHAR
STARTCHAR 005A
ENCODING 90
SWIDTH 560 0
DWIDTH 14 0
BBX 13 18 1 0
BITMAP
FFF8
FFF8
FFF8
00F0
01E0
01E0
03C0
0780
0F80
0F00
1E00
3C00
3C00
7800
F000
FFF8
FFF8
FFF8
ENDCHAR
STARTCHAR 005B
ENCODING 91
SWIDTH 320 0
DWIDTH 8 0
BBX 6 22 2 -4
BITMAP
FC
FC
FC
E0
E0
E0
E0
E0
E0
E0
E0
E0
E0
E0
E0
E0
E0
E0
E0
FC
FC
FC
ENDCHAR
STARTCHAR 005C
ENCODING 92
SWIDTH 400 0
DWIDTH 10 0
BBX 10 18 0 0
BITMAP
F000
7000
7000
7800
3800
3C00
1C00
1C00
1E00
0E00
0E00
0F00
0700
0780
0780
0380
03C0
01C0
ENDCHAR
STARTCHAR 005D
ENCODING 93
SWIDTH 320 0
DWIDTH 8 0
BBX 6 22 1 -4
BITMAP
FC
FC
FC
3C
3C
3C
3C
3C
3C
3C
3C
3C
3C
3C
3C
3C
3C
3C
3C
FC
FC
FC
ENDCHAR
STARTCHAR 005E
ENCODING 94
SWIDTH 560 0
DWIDTH 14 0
BBX 13 12 1 6
BITMAP
0600
0E00
0F00
1F00
1F80
39C0
39C0
70E0
70E0
6070
E070
E038
ENDCHAR
STARTCHAR 005F
ENCODING 95
SWIDTH 400 0
DWIDTH 10 0
BBX 10 2 0 -4
BITMAP
FFC0
FFC0
ENDCHAR
STARTCHAR 0060
ENCODING 96
SWIDTH 360 0
DWIDTH 9 0
BBX 7 4 1 15
BITMAP
F8
38
1C
0E
ENDCHAR
STARTCHAR 0061
ENCODING 97
SWIDTH 600 0
DWIDTH 15 0
BBX 12 14 1 0
BITMAP
1F80
7FE0
3FF0
20F0
00F0
00F0
3FF0
7FF0
F070
F0F0
F0F0
FFF0
7FF0
3E70
ENDCHAR
STARTCHAR 0062
ENCODING 98
SWIDTH 600 0
DWIDTH 15 0
BBX 13 19 2 0
BITMAP
F000
F000
F000
F000
F000
F380
FFE0
FFF0
F8F0
F0F0
F078
F078
F078
F078
F078
F8F0
FFF0
FFE0
E7C0
ENDCHAR
STARTCHAR 0063
ENCODING 99
SWIDTH 480 0
DWIDTH 12 0
BBX 11 14 1 0
BITMAP
0FC0
3FE0
7FE0
7840
F000
F000
F000
F000
F000
F000
7820
7FE0
3FE0
1FC0
ENDCHAR
STARTCHAR 0064
ENCODING 100
SWIDTH 600 0
DWIDTH 15 0
BBX 13 19 1 0
BITMAP
0078
0078
0078
0078
0078
1E78
3FF8
7FF8
78F8
F078
F078
F078
F078
F078
F078
7878
7FF8
3FF8
1F38
ENDCHAR
STARTCHAR 0065
ENCODING 101
SWIDTH 560 0
DWIDTH 14 0
BBX 13 14 1 0
BITMAP
0F80
3FE0
7FF0
78F0
F078
F078
FFF8
FFF8
F000
F000
7800
7FF0
3FF0
1FE0
ENDCHAR
STARTCHAR 0066
ENCODING 102
SWIDTH 360 0
DWIDTH 9 0
BBX 11 19 0 0
BITMAP
0FE0
1FC0
1FC0
1E00
1C00
3FC0
FFC0
FFC0
1C00
1C00
1C00
1C00
1C00
1C00
1C00
1C00
1C00
1C00
1C00
ENDCHAR
STARTCHAR 0067
ENCODING 103
SWIDTH 560 0
DWIDTH 14 0
BBX 14 20 0 -6
BITMAP
0FFC
3FFC
3DF8
78F0
7870
7870
78F0
3FE0
1FC0
3A00
3800
3FE0
3FF8
3FF8
703C
E03C
E038
FDF8
7FF0
1FC0
ENDCHAR
STARTCHAR 0068
ENCODING 104
SWIDTH 640 0
DWIDTH 16 0
BBX 13 19 2 0
BITMAP
F000
F000
F000
F000
F000
F3C0
FFE0
FFF0
F8F0
F078
F078
F078
F078
F078
F078
F078
F078
F078
F078
ENDCHAR
STARTCHAR 0069
ENCODING 105
SWIDTH 280 0
DWIDTH 7 0
BBX 4 19 2 0
BITMAP
E0
F0
F0
40
00
F0
F0
F0
F0
F0
F0
F0
F0
F0
F0
F0
F0
F0
F0
ENDCHAR
STARTCHAR 006A
ENCODING 106
SWIDTH 280 0
DWIDTH 7 0
BBX 8 25 -2 -6
BITMAP
0E
0F
0F
04
00
0F
0F
0F
0F
0F
0F
0F
0F
0F
0F
0F
0F
0F
0F
0F
0F
1F
FE
FE
F8
ENDCHAR
STARTCHAR 006B
ENCODING 107
SWIDTH 600 0
DWIDTH 15 0
BBX 13 19 2 0
BITMAP
F000
F000
F000
F000
F000
F078
F0F0
F1E0
F3C0
F780
FF00
FF00
FF80
FF80
F3C0
F1E0
F1F0
F0F0
F078
ENDCHAR
STARTCHAR 006C
ENCODING 108
SWIDTH 280 0
DWIDTH 7 0
BBX 4 19 2 0
BITMAP
F0
F0
F0
F0
F0
F0
F0
F0
F0
F0
F0
F0
F0
F0
F0
F0
F0
F0
F0
ENDCHAR
STARTCHAR 006D
ENCODING 109
SWIDTH 960 0
DWIDTH 24 0
BBX 21 14 2 0
BITMAP
E7C3C0
EFEFF0
FFFFF0
F8F8F8
F0F878
F0F078
F0F078
F0F078
F0F078
F0F078
F0F078
F0F078
F0F078
F0F078
ENDCHAR
STARTCHAR 006E
ENCODING 110
SWIDTH 640 0
DWIDTH 16 0
BBX 13 14 2 0
BITMAP
E7C0
EFE0
FFF0
F8F0
F078
F078
F078
F078
F078
F078
F078
F078
F078
F078
ENDCHAR
STARTCHAR 006F
ENCODING 111
SWIDTH 600 0
DWIDTH 15 0
BBX 13 14 1 0
BITMAP
0F80
3FE0
7FF0
78F8
F078
F078
F038
F038
F078
F078
7878
7FF0
3FE0
1FC0
ENDCHAR
STARTCHAR 0070
ENCODING 112
SWIDTH 600 0
DWIDTH 15 0
BBX 13 20 2 -6
BITMAP
E380
EFE0
FFF0
F8F0
F0F0
F078
F078
F078
F078
F078
F8F0
FFF0
FFE0
F7C0
F000
F000
F000
F000
F000
F000
ENDCHAR
STARTCHAR 0071
ENCODING 113
SWIDTH 600 0
DWIDTH 15 0
BBX 13 20 1 -6
BITMAP
1E38
3FB8
7FF8
78F8
F078
F078
F078
F078
F078
F078
7878
7FF8
3FF8
1F78
0078
0078
0078
0078
0078
0078
ENDCHAR
STARTCHAR 0072
ENCODING 114
SWIDTH 440 0
DWIDTH 11 0
BBX 9 14 2 0
BITMAP
E380
EF80
EF80
FF80
F800
F000
F000
F000
F000
F000
F000
F000
F000
F000
ENDCHAR
STARTCHAR 0073
ENCODING 115
SWIDTH 480 0
DWIDTH 12 0
BBX 10 14 1 0
BITMAP
1F80
7FC0
FFC0
F080
F000
FC00
7F00
3FC0
0FC0
03C0
01C0
FFC0
FFC0
FF00
ENDCHAR
STARTCHAR 0074
ENCODING 116
SWIDTH 400 0
DWIDTH 10 0
BBX 9 17 1 0
BITMAP
1800
3800
3800
7F80
FF80
FF80
7800
7800
7800
7800
7800
7800
7800
7800
3F80
3F80
1F80
ENDCHAR
STARTCHAR 0075
ENCODING 117
SWIDTH 640 0
DWIDTH 16 0
BBX 12 14 2 0
BITMAP
F070
F070
F070
F070
F070
F070
F070
F070
F070
F0F0
F0F0
FFF0
7FF0
3F70
ENDCHAR
STARTCHAR 0076
ENCODING 118
SWIDTH 560 0
DWIDTH 14 0
BBX 14 14 0 0
BITMAP
F03C
F03C
7838
7878
3878
3C70
3CF0
1CF0
1EE0
1FE0
0FC0
0FC0
07C0
0780
ENDCHAR
STARTCHAR 0077
ENCODING 119
SWIDTH 840 0
DWIDTH 21 0
BBX 21 14 0 0
BITMAP
F07878
70F878
78F878
78FC70
78DCF0
39DCF0
3DDCE0
3DCEE0
1D8FE0
1D8FE0
1F8FC0
1F87C0
0F07C0
0F0780
ENDCHAR
STARTCHAR 0078
ENCODING 120
SWIDTH 560 0
DWIDTH 14 0
BBX 14 14 0 0
BITMAP
F83C
7878
3C78
3EF0
1FE0
0FE0
0FC0
0FC0
0FE0
1FE0
3EF0
3C78
7878
F83C
ENDCHAR
STARTCHAR 0079
ENCODING 121
SWIDTH 560 0
DWIDTH 14 0
BBX 14 20 0 -6
BITMAP
F03C
F03C
7838
7878
3878
3C70
3CF0
1CF0
1EE0
0FE0
0FC0
0FC0
07C0
0780
0780
0780
0F00
7F00
7E00
7800
ENDCHAR
STARTCHAR 007A
ENCODING 122
SWIDTH 480 0
DWIDTH 12 0
BBX 10 14 1 0
BITMAP
FFC0
FFC0
FFC0
03C0
0780
0F00
0F00
1E00
3C00
7800
7800
FFC0
FFC0
FFC0
ENDCHAR
STARTCHAR 007B
ENCODING 123
SWIDTH 360 0
DWIDTH 9 0
BBX 9 22 0 -4
BITMAP
0380
0F80
0F80
1E00
1E00
1E00
1E00
1E00
1E00
7C00
F800
F800
FC00
1E00
1E00
1E00
1E00
1E00
1E00
0F80
0F80
0780
ENDCHAR
STARTCHAR 007C
ENCODING 124
SWIDTH 520 0
DWIDTH 13 0
BBX 2 25 6 -6
BITMAP
C0
C0
C0
C0
C0
C0
C0
C0
C0
C0
C0
C0
C0
C0
C0
C0
C0
C0
C0
C0
C0
C0
C0
C0
C0
ENDCHAR
STARTCHAR 007D
ENCODING 125
SWIDTH 360 0
DWIDTH 9 0
BBX 8 22 1 -4
BITMAP
E0
F8
F8
38
38
38
38
38
3C
3F
1F
0F
3F
3C
38
38
38
38
38
F8
F8
F0
ENDCHAR
STARTCHAR 007E
ENCODING 126
SWIDTH 560 0
DWIDTH 14 0
BBX 12 4 1 7
BITMAP
7C00
FFB0
FFF0
83F0
ENDCHAR
STARTCHAR 00A0
ENCODING 160
SWIDTH 240 0
DWIDTH 6 0
BBX 0 0 0 0
BITMAP
ENDCHAR
STARTCHAR 00A1
ENCODING 161
SWIDTH 280 0
DWIDTH 7 0
BBX 5 19 1 -5
BITMAP
20
78
F8
78
20
00
00
70
70
70
70
70
70
70
70
70
78
F8
F8
ENDCHAR
STARTCHAR 00A2
ENCODING 162
SWIDTH 560 0
DWIDTH 14 0
BBX 10 18 2 0
BITMAP
0600
0600
1FC0
7FC0
7FC0
F840
F000
F000
F000
F000
F000
F000
F840
7FC0
3FC0
1F80
0600
0600
ENDCHAR
STARTCHAR 00A3
ENCODING 163
SWIDTH 560 0
DWIDTH 14 0
BBX 13 18 1 0
BITMAP
07E0
1FF0
1FF0
3C00
3C00
3C00
3C00
FFC0
FFC0
FFC0
3C00
3C00
3C00
3800
7800
FFF8
FFF8
FFF8
ENDCHAR
STARTCHAR 00A4
ENCODING 164
SWIDTH 560 0
DWIDTH 14 0
BBX 11 11 2 4
BITMAP
CCC0
FFE0
7FC0
71C0
E1C0
E1C0
E1C0
7F80
FFC0
FEC0
4000
ENDCHAR
STARTCHAR 00A5
ENCODING 165
SWIDTH 560 0
DWIDTH 14 0
BBX 14 18 0 0
BITMAP
F03C
783C
7878
3870
3CF0
1CE0
1EE0
0FC0
0FC0
3FF0
3FF0
0780
0780
3FF0
3FF0
0780
0780
0780
ENDCHAR
STARTCHAR 00A6
ENCODING 166
SWIDTH 520 0
DWIDTH 13 0
BBX 2 25 6 -6
BITMAP
C0
C0
C0
C0
C0
C0
C0
C0
C0
C0
00
00
00
00
00
C0
C0
C0
C0
C0
C0
C0
C0
C0
C0
ENDCHAR
STARTCHAR 00A7
ENCODING 167
SWIDTH 480 0
DWIDTH 12 0
BBX 10 19 1 0
BITMAP
3F80
7FC0
7180
E000
7000
7C00
3F00
7780
61C0
E1C0
71C0
7F80
3F80
0780
03C0
01C0
C3C0
FF80
7F00
ENDCHAR
STARTCHAR 00A8
ENCODING 168
SWIDTH 600 0
DWIDTH 15 0
BBX 9 3 3 16
BITMAP
6300
F780
F780
ENDCHAR
STARTCHAR 00A9
ENCODING 169
SWIDTH 800 0
DWIDTH 20 0
BBX 19 18 1 0
BITMAP
03F800
0FBE00
1C0700
30E380
63F980
6300C0
4600C0
C60040
C60060
C60060
C60040
C600C0
6708C0
63F9C0
30F180
180700
0F1E00
03F800
ENDCHAR
STARTCHAR 00AA
ENCODING 170
SWIDTH 360 0
DWIDTH 9 0
BBX 8 9 1 9
BITMAP
7C
FE
06
1F
FF
C7
CF
FB
73
ENDCHAR
STARTCHAR 00AB
ENCODING 171
SWIDTH 600 0
DWIDTH 15 0
BBX 13 12 1 1
BITMAP
0800
0C38
1E78
3CF0
79E0
F1E0
F3C0
79E0
3CF0
1C78
1E38
0820
ENDCHAR
STARTCHAR 00AC
ENCODING 172
SWIDTH 560 0
DWIDTH 14 0
BBX 12 7 1 3
BITMAP
FFF0
FFF0
FFF0
0030
0030
0030
0030
ENDCHAR
STARTCHAR 00AD
ENCODING 173
SWIDTH 320 0
DWIDTH 8 0
BBX 6 3 1 5
BITMAP
FC
FC
FC
ENDCHAR
STARTCHAR 00AE
ENCODING 174
SWIDTH 800 0
DWIDTH 20 0
BBX 19 18 1 0
BITMAP
03F800
0FBE00
1C0700
33C380
63F180
6338C0
4318C0
C31840
C33860
C3F060
C33040
C330C0
6318C0
6319C0
330D80
180700
0F1E00
03F800
ENDCHAR
STARTCHAR 00AF
ENCODING 175
SWIDTH 480 0
DWIDTH 12 0
BBX 13 2 0 19
BITMAP
FFF8
FFF8
ENDCHAR
STARTCHAR 00B0
ENCODING 176
SWIDTH 400 0
DWIDTH 10 0
BBX 9 8 1 10
BITMAP
3E00
7F00
E700
E380
C380
E380
7F00
3E00
ENDCHAR
STARTCHAR 00B1
ENCODING 177
SWIDTH 560 0
DWIDTH 14 0
BBX 12 16 1 0
BITMAP
0600
0600
0600
0600
0600
FFF0
FFF0
FFF0
0600
0600
0600
0600
0000
FFF0
FFF0
FFF0
ENDCHAR
STARTCHAR 00B2
ENCODING 178
SWIDTH 360 0
DWIDTH 9 0
BBX 8 11 1 10
BITMAP
7C
FE
4E
0E
0E
1C
38
70
FF
FF
FF
ENDCHAR
STARTCHAR 00B3
ENCODING 179
SWIDTH 360 0
DWIDTH 9 0
BBX 7 11 1 10
BITMAP
FC
FE
0E
0E
7C
7C
0E
06
CE
FE
78
ENDCHAR
STARTCHAR 00B4
ENCODING 180
SWIDTH 360 0
DWIDTH 9 0
BBX 7 4 1 15
BITMAP
3E
38
70
E0
ENDCHAR
STARTCHAR 00B5
ENCODING 181
SWIDTH 640 0
DWIDTH 16 0
BBX 13 20 2 -6
BITMAP
F078
F078
F078
F078
F078
F078
F078
F078
F078
F0F8
F0F8
FFF8
FFF8
FF38
F000
F000
F000
F000
F000
F000
ENDCHAR
STARTCHAR 00B6
ENCODING 182
SWIDTH 640 0
DWIDTH 16 0
BBX 13 22 1 -3
BITMAP
1FF8
3FF8
7F98
7F98
FF98
FF98
FF98
FF98
7F98
7F98
7F98
3F98
0198
0198
0198
0198
0198
0198
0198
0198
0198
0198
ENDCHAR
STARTCHAR 00B7
ENCODING 183
SWIDTH 280 0
DWIDTH 7 0
BBX 5 4 1 7
BITMAP
70
F8
F8
70
ENDCHAR
STARTCHAR 00B8
ENCODING 184
SWIDTH 200 0
DWIDTH 5 0
BBX 5 6 0 -6
BITMAP
60
F0
38
38
F8
F0
ENDCHAR
STARTCHAR 00B9
ENCODING 185
SWIDTH 360 0
DWIDTH 9 0
BBX 6 11 1 10
BITMAP
1C
3C
FC
7C
1C
1C
1C
1C
1C
1C
1C
ENDCHAR
STARTCHAR 00BA
ENCODING 186
SWIDTH 360 0
DWIDTH 9 0
BBX 8 9 1 9
BITMAP
3C
FE
E7
C7
C7
C7
E7
7E
3C
ENDCHAR
STARTCHAR 00BB
ENCODING 187
SWIDTH 600 0
DWIDTH 15 0
BBX 13 11 1 2
BITMAP
71C0
F1E0
79E0
3CF0
1E78
1E78
3CF0
38F0
79E0
F3C0
2080
ENDCHAR
STARTCHAR 00BC
ENCODING 188
SWIDTH 800 0
DWIDTH 20 0
BBX 20 18 1 0
BITMAP
1C0700
7C0E00
FC1C00
DC1C00
1C3800
1C3800
1C7000
1C71C0
1CE3C0
1CE3C0
1DC7C0
038DC0
038DC0
0719C0
073FF0
0E3FF0
0E01C0
1C01C0
ENDCHAR
STARTCHAR 00BD
ENCODING 189
SWIDTH 840 0
DWIDTH 21 0
BBX 20 18 1 0
BITMAP
1C0700
7C0E00
FC1C00
DC1C00
1C3800
1C3800
1C7000
1C73C0
1CEFE0
1CE6F0
1DC070
0380E0
0380E0
0701C0
070380
0E0F00
0E0FF0
1C0FF0
ENDCHAR
STARTCHAR 00BE
ENCODING 190
SWIDTH 840 0
DWIDTH 21 0
BBX 20 18 1 0
BITMAP
7C0700
FE0700
460E00
060E00
3E1C00
3C1C00
0E3800
0739C0
8771C0
FEE3C0
7CE7C0
01C7C0
01CDC0
0399C0
039FF0
071FF0
0701C0
0E01C0
ENDCHAR
STARTCHAR 00BF
ENCODING 191
SWIDTH 440 0
DWIDTH 11 0
BBX 11 19 1 -5
BITMAP
0600
0F00
0F00
0F00
0000
0000
0000
0F00
0F00
1E00
3C00
7800
F000
E000
E000
F1C0
FFE0
7FE0
1E00
ENDCHAR
STARTCHAR 00C0
ENCODING 192
SWIDTH 680 0
DWIDTH 17 0
BBX 17 23 0 0
BITMAP
0F8000
038000
01C000
00E000
000000
03E000
03E000
07F000
077000
077000
0F7800
0F3800
0E3C00
1E3C00
1E1C00
1C1E00
3FFE00
3FFE00
3FFF00
780F00
780F00
780780
F00780
ENDCHAR
STARTCHAR 00C1
ENCODING 193
SWIDTH 680 0
DWIDTH 17 0
BBX 17 23 0 0
BITMAP
007800
00F000
01C000
038000
000000
03E000
03E000
07F000
077000
077000
0F7800
0F3800
0E3C00
1E3C00
1E1C00
1C1E00
3FFE00
3FFE00
3FFF00
780F00
780F00
780780
F00780
ENDCHAR
STARTCHAR 00C2
ENCODING 194
SWIDTH 680 0
DWIDTH 17 0
BBX 17 23 0 0
BITMAP
03E000
07F000
0F3800
1C1C00
000000
03E000
03E000
07F000
077000
077000
0F7800
0F3800
0E3C00
1E3C00
1E1C00
1C1E00
3FFE00
3FFE00
3FFF00
780F00
780F00
780780
F00780
ENDCHAR
STARTCHAR 00C3
ENCODING 195
SWIDTH 680 0
DWIDTH 17 0
BBX 17 23 0 0
BITMAP
078C00
0FF800
0DF800
082000
000000
03E000
03E000
07F000
077000
077000
0F7800
0F3800
0E3C00
1E3C00
1E1C00
1C1E00
3FFE00
3FFE00
3FFF00
780F00
780F00
780780
F00780
ENDCHAR
STARTCHAR 00C4
ENCODING 196
SWIDTH 680 0
DWIDTH 17 0
BBX 17 23 0 0
BITMAP
063000
0F7800
073800
000000
000000
03E000
03E000
07F000
077000
077000
0F7800
0F3800
0E3C00
1E3C00
1E1C00
1C1E00
3FFE00
3FFE00
3FFF00
780F00
780F00
780780
F00780
ENDCHAR
STARTCHAR 00C5
ENCODING 197
SWIDTH 680 0
DWIDTH 17 0
BBX 17 22 0 0
BITMAP
01C000
03E000
033000
033000
03E000
03E000
07F000
077000
077000
0F7800
0F3800
0E3C00
1E3C00
1E1C00
1C1E00
3FFE00
3FFE00
3FFF00
780F00
780F00
780780
F00780
ENDCHAR
STARTCHAR 00C6
ENCODING 198
SWIDTH 920 0
DWIDTH 23 0
BBX 22 18 0 0
BITMAP
00FFFC
01FFFC
01FFFC
03CE00
03CE00
038E00
078E00
070FFC
0F0FFC
0F0FFC
1E0E00
1FFE00
3FFE00
3FFE00
380E00
780FFC
700FFC
F00FFC
ENDCHAR
STARTCHAR 00C7
ENCODING 199
SWIDTH 600 0
DWIDTH 15 0
BBX 14 24 1 -6
BITMAP
07F0
0FFC
1FFC
3E18
7C00
7800
7800
7000
F000
F000
7000
7800
7800
7800
3C08
3FF8
1FF8
07F8
0180
03C0
00E0
00E0
03E0
03C0
ENDCHAR
STARTCHAR 00C8
ENCODING 200
SWIDTH 560 0
DWIDTH 14 0
BBX 11 23 2 0
BITMAP
7C00
1C00
0E00
0700
0000
FFE0
FFE0
FFE0
F000
F000
F000
F000
FFC0
FFC0
FFC0
F000
F000
F000
F000
F000
FFE0
FFE0
FFE0
ENDCHAR
STARTCHAR 00C9
ENCODING 201
SWIDTH 560 0
DWIDTH 14 0
BBX 11 23 2 0
BITMAP
03C0
0700
0E00
1C00
0000
FFE0
FFE0
FFE0
F000
F000
F000
F000
FFC0
FFC0
FFC0
F000
F000
F000
F000
F000
FFE0
FFE0
FFE0
ENDCHAR
STARTCHAR 00CA
ENCODING 202
SWIDTH 560 0
DWIDTH 14 0
BBX 11 23 2 0
BITMAP
1F00
3F80
71C0
E0E0
0000
FFE0
FFE0
FFE0
F000
F000
F000
F000
FFC0
FFC0
FFC0
F000
F000
F000
F000
F000
FFE0
FFE0
FFE0
ENDCHAR
STARTCHAR 00CB
ENCODING 203
SWIDTH 560 0
DWIDTH 14 0
BBX 11 23 2 0
BITMAP
3180
7BC0
3B80
0000
0000
FFE0
FFE0
FFE0
F000
F000
F000
F000
FFC0
FFC0
FFC0
F000
F000
F000
F000
F000
FFE0
FFE0
FFE0
ENDCHAR
STARTCHAR 00CC
ENCODING 204
SWIDTH 320 0
DWIDTH 8 0
BBX 7 23 -1 0
BITMAP
F8
38
1C
0E
00
1E
1E
1E
1E
1E
1E
1E
1E
1E
1E
1E
1E
1E
1E
1E
1E
1E
1E
ENDCHAR
STARTCHAR 00CD
ENCODING 205
SWIDTH 320 0
DWIDTH 8 0
BBX 7 23 2 0
BITMAP
1E
3C
70
E0
00
F0
F0
F0
F0
F0
F0
F0
F0
F0
F0
F0
F0
F0
F0
F0
F0
F0
F0
ENDCHAR
STARTCHAR 00CE
ENCODING 206
SWIDTH 320 0
DWIDTH 8 0
BBX 10 23 -1 0
BITMAP
3F00
3F80
73C0
E0C0
0000
1E00
1E00
1E00
1E00
1E00
1E00
1E00
1E00
1E00
1E00
1E00
1E00
1E00
1E00
1E00
1E00
1E00
1E00
ENDCHAR
STARTCHAR 00CF
ENCODING 207
SWIDTH 320 0
DWIDTH 8 0
BBX 8 23 0 0
BITMAP
E7
E7
E7
00
00
3C
3C
3C
3C
3C
3C
3C
3C
3C
3C
3C
3C
3C
3C
3C
3C
3C
3C
ENDCHAR
STARTCHAR 00D0
ENCODING 208
SWIDTH 720 0
DWIDTH 18 0
BBX 16 18 1 0
BITMAP
7FC0
7FF0
7FFC
787E
781E
781F
780F
780F
FF0F
FF0F
FF0F
780F
781F
781E
787E
7FFC
7FF0
7FC0
ENDCHAR
STARTCHAR 00D1
ENCODING 209
SWIDTH 800 0
DWIDTH 20 0
BBX 16 23 2 0
BITMAP
0718
0FF8
1DF0
1860
0000
F807
FC07
FC07
FE07
FF07
EF07
E787
F787
F3C7
F3C7
F1E7
F0F7
F0F7
F07F
F07F
F03F
F03F
F01F
ENDCHAR
STARTCHAR 00D2
ENCODING 210
SWIDTH 760 0
DWIDTH 19 0
BBX 17 23 1 0
BITMAP
078000
03C000
01E000
006000
000000
07F800
1FFC00
3FFE00
3E1F00
7C0F80
780780
780780
780780
F80780
F00780
700780
780780
780780
7C0F80
3E1F00
3FFF00
1FFE00
07F800
ENDCHAR
STARTCHAR 00D3
ENCODING 211
SWIDTH 760 0
DWIDTH 19 0
BBX 17 23 1 0
BITMAP
007800
00F000
01E000
018000
000000
07F800
1FFC00
3FFE00
3E1F00
7C0F80
780780
780780
780780
F80780
F00780
700780
780780
780780
7C0F80
3E1F00
3FFF00
1FFE00
07F800
ENDCHAR
STARTCHAR 00D4
ENCODING 212
SWIDTH 760 0
DWIDTH 19 0
BBX 17 23 1 0
BITMAP
03F000
07F800
0F3C00
0C0C00
000000
07F800
1FFC00
3FFE00
3E1F00
7C0F80
780780
780780
780780
F80780
F00780
700780
780780
780780
7C0F80
3E1F00
3FFF00
1FFE00
07F800
ENDCHAR
STARTCHAR 00D5
ENCODING 213
SWIDTH 760 0
DWIDTH 19 0
BBX 17 23 1 0
BITMAP
078C00
0FFC00
0EF800
0C2000
000000
07F800
1FFC00
3FFE00
3E1F00
7C0F80
780780
780780
780780
F80780
F00780
700780
780780
780780
7C0F80
3E1F00
3FFF00
1FFE00
07F800
ENDCHAR
STARTCHAR 00D6
ENCODING 214
SWIDTH 760 0
DWIDTH 19 0
BBX 17 23 1 0
BITMAP
073800
073800
073800
000000
000000
07F800
1FFC00
3FFE00
3E1F00
7C0F80
780780
780780
780780
F80780
F00780
700780
780780
780780
7C0F80
3E1F00
3FFF00
1FFE00
07F800
ENDCHAR
STARTCHAR 00D7
ENCODING 215
SWIDTH 560 0
DWIDTH 14 0
BBX 11 11 2 3
BITMAP
40C0
E1E0
73C0
3F80
1F00
1E00
3F00
7B80
F1C0
E0C0
4000
ENDCHAR
STARTCHAR 00D8
ENCODING 216
SWIDTH 760 0
DWIDTH 19 0
BBX 17 20 1 -1
BITMAP
000200
07FF00
1FFE00
3FFE00
3E1F00
7C1F80
783F80
787780
786780
F8E780
F1C780
718780
7B8780
7F0780
7E0F80
3E1F00
3FFF00
1FFE00
3FF800
100000
ENDCHAR
STARTCHAR 00D9
ENCODING 217
SWIDTH 720 0
DWIDTH 18 0
BBX 15 23 2 0
BITMAP
1E00
0F00
0380
01C0
0000
F01E
F01E
F01E
F01E
F01E
F01E
F01E
F01E
F01E
F01E
F01E
F01E
F01E
F01E
783C
7FFC
3FF8
1FE0
ENDCHAR
STARTCHAR 00DA
ENCODING 218
SWIDTH 720 0
DWIDTH 18 0
BBX 15 23 2 0
BITMAP
01F0
01C0
0380
0700
0000
F01E
F01E
F01E
F01E
F01E
F01E
F01E
F01E
F01E
F01E
F01E
F01E
F01E
F01E
783C
7FFC
3FF8
1FE0
ENDCHAR
STARTCHAR 00DB
ENCODING 219
SWIDTH 720 0
DWIDTH 18 0
BBX 15 23 2 0
BITMAP
07C0
0FE0
1C70
3838
0000
F01E
F01E
F01E
F01E
F01E
F01E
F01E
F01E
F01E
F01E
F01E
F01E
F01E
F01E
783C
7FFC
3FF8
1FE0
ENDCHAR
STARTCHAR 00DC
ENCODING 220
SWIDTH 720 0
DWIDTH 18 0
BBX 15 23 2 0
BITMAP
0C60
1EF0
1CE0
0000
0000
F01E
F01E
F01E
F01E
F01E
F01E
F01E
F01E
F01E
F01E
F01E
F01E
F01E
F01E
783C
7FFC
3FF8
1FE0
ENDCHAR
STARTCHAR 00DD
ENCODING 221
SWIDTH 600 0
DWIDTH 15 0
BBX 15 23 0 0
BITMAP
00F0
01E0
03C0
0300
0000
F01E
781E
783C
3C3C
3C78
1E78
1EF0
0FF0
0FE0
07E0
03C0
03C0
03C0
03C0
03C0
03C0
03C0
03C0
ENDCHAR
STARTCHAR 00DE
ENCODING 222
SWIDTH 600 0
DWIDTH 15 0
BBX 13 18 2 0
BITMAP
F000
F000
F000
FF80
FFE0
FFF0
F0F0
F070
F078
F078
F0F0
FFF0
FFE0
FFC0
F000
F000
F000
F000
ENDCHAR
STARTCHAR 00DF
ENCODING 223
SWIDTH 680 0
DWIDTH 17 0
BBX 15 19 2 0
BITMAP
1FC0
7FF0
7FF8
F078
F078
F078
F0F0
F1E0
F3C0
F3C0
F3F0
F1F8
F0FC
F03E
F01E
F01E
F37E
F3FC
F3F8
ENDCHAR
STARTCHAR 00E0
ENCODING 224
SWIDTH 600 0
DWIDTH 15 0
BBX 12 19 1 0
BITMAP
3C00
1E00
0700
0380
0000
1F80
7FE0
3FF0
20F0
00F0
00F0
3FF0
7FF0
F070
F0F0
F0F0
FFF0
7FF0
3E70
ENDCHAR
STARTCHAR 00E1
ENCODING 225
SWIDTH 600 0
DWIDTH 15 0
BBX 12 19 1 0
BITMAP
01E0
03C0
0780
0E00
0000
1F80
7FE0
3FF0
20F0
00F0
00F0
3FF0
7FF0
F070
F0F0
F0F0
FFF0
7FF0
3E70
ENDCHAR
STARTCHAR 00E2
ENCODING 226
SWIDTH 600 0
DWIDTH 15 0
BBX 12 19 1 0
BITMAP
0F80
1FC0
3DE0
7070
0000
1F80
7FE0
3FF0
20F0
00F0
00F0
3FF0
7FF0
F070
F0F0
F0F0
FFF0
7FF0
3E70
ENDCHAR
STARTCHAR 00E3
ENCODING 227
SWIDTH 600 0
DWIDTH 15 0
BBX 12 19 1 0
BITMAP
1C30
3FE0
3FE0
21C0
0000
1F80
7FE0
3FF0
20F0
00F0
00F0
3FF0
7FF0
F070
F0F0
F0F0
FFF0
7FF0
3E70
ENDCHAR
STARTCHAR 00E4
ENCODING 228
SWIDTH 600 0
DWIDTH 15 0
BBX 12 19 1 0
BITMAP
18C0
3DE0
3DE0
0000
0000
1F80
7FE0
3FF0
20F0
00F0
00F0
3FF0
7FF0
F070
F0F0
F0F0
FFF0
7FF0
3E70
ENDCHAR
STARTCHAR 00E5
ENCODING 229
SWIDTH 600 0
DWIDTH 15 0
BBX 12 21 1 0
BITMAP
0700
0F80
08C0
08C0
0F80
0700
0000
1F80
7FE0
3FF0
20F0
00F0
00F0
3FF0
7FF0
F070
F0F0
F0F0
FFF0
7FF0
3E70
ENDCHAR
STARTCHAR 00E6
ENCODING 230
SWIDTH 880 0
DWIDTH 22 0
BBX 21 14 1 0
BITMAP
1F8F80
7FDFE0
3FFFF0
20F870
00F078
00F078
3FFFF8
7FFFF8
F0F000
F0F000
F0F800
FFFFF0
7F9FF0
3F0FF0
ENDCHAR
STARTCHAR 00E7
ENCODING 231
SWIDTH 480 0
DWIDTH 12 0
BBX 11 20 1 -6
BITMAP
0FC0
3FE0
7FE0
7840
F000
F000
F000
F000
F000
F000
7820
7FE0
3FE0
1FC0
0600
0F00
0380
0380
0F80
0F00
ENDCHAR
STARTCHAR 00E8
ENCODING 232
SWIDTH 560 0
DWIDTH 14 0
BBX 13 19 1 0
BITMAP
3C00
1E00
0F00
0380
0000
0F80
3FE0
7FF0
78F0
F078
F078
FFF8
FFF8
F000
F000
7800
7FF0
3FF0
1FE0
ENDCHAR
STARTCHAR 00E9
ENCODING 233
SWIDTH 560 0
DWIDTH 14 0
BBX 13 19 1 0
BITMAP
01E0
03C0
0700
0E00
0000
0F80
3FE0
7FF0
78F0
F078
F078
FFF8
FFF8
F000
F000
7800
7FF0
3FF0
1FE0
ENDCHAR
STARTCHAR 00EA
ENCODING 234
SWIDTH 560 0
DWIDTH 14 0
BBX 13 19 1 0
BITMAP
0F80
1FC0
3DE0
7070
0000
0F80
3FE0
7FF0
78F0
F078
F078
FFF8
FFF8
F000
F000
7800
7FF0
3FF0
1FE0
ENDCHAR
STARTCHAR 00EB
ENCODING 235
SWIDTH 560 0
DWIDTH 14 0
BBX 13 19 1 0
BITMAP
18C0
3DE0
3DC0
0000
0000
0F80
3FE0
7FF0
78F0
F078
F078
FFF8
FFF8
F000
F000
7800
7FF0
3FF0
1FE0
ENDCHAR
STARTCHAR 00EC
ENCODING 236
SWIDTH 280 0
DWIDTH 7 0
BBX 7 19 -1 0
BITMAP
F8
38
1C
0E
00
1E
1E
1E
1E
1E
1E
1E
1E
1E
1E
1E
1E
1E
1E
ENDCHAR
STARTCHAR 00ED
ENCODING 237
SWIDTH 280 0
DWIDTH 7 0
BBX 6 19 2 0
BITMAP
3C
78
F0
E0
00
F0
F0
F0
F0
F0
F0
F0
F0
F0
F0
F0
F0
F0
F0
ENDCHAR
STARTCHAR 00EE
ENCODING 238
SWIDTH 280 0
DWIDTH 7 0
BBX 10 19 -1 0
BITMAP
3E00
7F00
7380
E1C0
0000
1E00
1E00
1E00
1E00
1E00
1E00
1E00
1E00
1E00
1E00
1E00
1E00
1E00
1E00
ENDCHAR
STARTCHAR 00EF
ENCODING 239
SWIDTH 280 0
DWIDTH 7 0
BBX 8 19 0 0
BITMAP
C6
E7
E7
00
00
3C
3C
3C
3C
3C
3C
3C
3C
3C
3C
3C
3C
3C
3C
ENDCHAR
STARTCHAR 00F0
ENCODING 240
SWIDTH 600 0
DWIDTH 15 0
BBX 13 19 1 0
BITMAP
0C20
0FF0
0FE0
07C0
1FE0
0CF0
0070
1FF8
3FF8
7FF8
F878
F078
F038
F078
F078
7878
7FF0
3FE0
1FC0
ENDCHAR
STARTCHAR 00F1
ENCODING 241
SWIDTH 640 0
DWIDTH 16 0
BBX 13 19 2 0
BITMAP
1C60
3FE0
7FE0
6180
0000
E7C0
EFE0
FFF0
F8F0
F078
F078
F078
F078
F078
F078
F078
F078
F078
F078
ENDCHAR
STARTCHAR 00F2
ENCODING 242
SWIDTH 600 0
DWIDTH 15 0
BBX 13 19 1 0
BITMAP
3E00
0E00
0700
0380
0000
0F80
3FE0
7FF0
78F8
F078
F078
F038
F038
F078
F078
7878
7FF0
3FE0
1FC0
ENDCHAR
STARTCHAR 00F3
ENCODING 243
SWIDTH 600 0
DWIDTH 15 0
BBX 13 19 1 0
BITMAP
01E0
03C0
0780
0E00
0000
0F80
3FE0
7FF0
78F8
F078
F078
F038
F038
F078
F078
7878
7FF0
3FE0
1FC0
ENDCHAR
STARTCHAR 00F4
ENCODING 244
SWIDTH 600 0
DWIDTH 15 0
BBX 13 19 1 0
BITMAP
0F80
1FC0
3CE0
7870
0000
0F80
3FE0
7FF0
78F8
F078
F078
F038
F038
F078
F078
7878
7FF0
3FE0
1FC0
ENDCHAR
STARTCHAR 00F5
ENCODING 245
SWIDTH 600 0
DWIDTH 15 0
BBX 13 19 1 0
BITMAP
1C30
3FF0
3FE0
31C0
0000
0F80
3FE0
7FF0
78F8
F078
F078
F038
F038
F078
F078
7878
7FF0
3FE0
1FC0
ENDCHAR
STARTCHAR 00F6
ENCODING 246
SWIDTH 600 0
DWIDTH 15 0
BBX 13 19 1 0
BITMAP
18C0
1DE0
1CE0
0000
0000
0F80
3FE0
7FF0
78F8
F078
F078
F038
F038
F078
F078
7878
7FF0
3FE0
1FC0
ENDCHAR
STARTCHAR 00F7
ENCODING 247
SWIDTH 560 0
DWIDTH 14 0
BBX 12 12 1 3
BITMAP
0600
0F00
0F00
0600
0000
FFF0
FFF0
FFF0
0000
0700
0F00
0700
ENDCHAR
STARTCHAR 00F8
ENCODING 248
SWIDTH 600 0
DWIDTH 15 0
BBX 13 15 1 -1
BITMAP
0FB0
3FF0
7FF0
78F8
F1F8
F1F8
F3B8
F738
F678
FE78
7C78
7FF0
3FE0
7FC0
2000
ENDCHAR
STARTCHAR 00F9
ENCODING 249
SWIDTH 640 0
DWIDTH 16 0
BBX 12 19 2 0
BITMAP
3C00
1E00
0F00
0300
0000
F070
F070
F070
F070
F070
F070
F070
F070
F070
F0F0
F0F0
FFF0
7FF0
3F70
ENDCHAR
STARTCHAR 00FA
ENCODING 250
SWIDTH 640 0
DWIDTH 16 0
BBX 12 19 2 0
BITMAP
03E0
0380
0700
0E00
0000
F070
F070
F070
F070
F070
F070
F070
F070
F070
F0F0
F0F0
FFF0
7FF0
3F70
ENDCHAR
STARTCHAR 00FB
ENCODING 251
SWIDTH 640 0
DWIDTH 16 0
BBX 12 19 2 0
BITMAP
0F80
1FC0
39E0
70F0
0000
F070
F070
F070
F070
F070
F070
F070
F070
F070
F0F0
F0F0
FFF0
7FF0
3F70
ENDCHAR
STARTCHAR 00FC
ENCODING 252
SWIDTH 640 0
DWIDTH 16 0
BBX 12 19 2 0
BITMAP
18C0
39C0
39C0
0000
0000
F070
F070
F070
F070
F070
F070
F070
F070
F070
F0F0
F0F0
FFF0
7FF0
3F70
ENDCHAR
STARTCHAR 00FD
ENCODING 253
SWIDTH 560 0
DWIDTH 14 0
BBX 14 25 0 -6
BITMAP
01E0
01C0
0380
0700
0000
F03C
F03C
7838
7878
3878
3C70
3CF0
1CF0
1EE0
0FE0
0FC0
0FC0
07C0
0780
0780
0780
0F00
7F00
7E00
7800
ENDCHAR
STARTCHAR 00FE
ENCODING 254
SWIDTH 600 0
DWIDTH 15 0
BBX 13 25 2 -6
BITMAP
F000
F000
F000
F000
F000
F380
FFE0
FFF0
F8F0
F0F0
F078
F078
F078
F078
F078
F8F0
FFF0
FFE0
F7C0
F000
F000
F000
F000
F000
F000
ENDCHAR
STARTCHAR 00FF
ENCODING 255
SWIDTH 560 0
DWIDTH 14 0
BBX 14 25 0 -6
BITMAP
0CE0
1CE0
1CE0
0000
0000
F03C
F03C
7838
7878
3878
3C70
3CF0
1CF0
1EE0
0FE0
0FC0
0FC0
07C0
0780
0780
0780
0F00
7F00
7E00
7800
ENDCHAR
STARTCHAR 0100
ENCODING 256
SWIDTH 680 0
DWIDTH 17 0
BBX 17 22 0 0
BITMAP
0FF800
0FF800
0FF800
000000
03E000
03E000
07F000
077000
077000
0F7800
0F3800
0E3C00
1E3C00
1E1C00
1C1E00
3FFE00
3FFE00
3FFF00
780F00
780F00
780780
F00780
ENDCHAR
STARTCHAR 0101
ENCODING 257
SWIDTH 600 0
DWIDTH 15 0
BBX 12 18 1 0
BITMAP
3FE0
3FE0
3FE0
0000
1F80
7FE0
3FF0
20F0
00F0
00F0
3FF0
7FF0
F070
F0F0
F0F0
FFF0
7FF0
3E70
ENDCHAR
STARTCHAR 0102
ENCODING 258
SWIDTH 680 0
DWIDTH 17 0
BBX 17 23 0 0
BITMAP
0C1800
0FF800
07F000
00C000
000000
03E000
03E000
07F000
077000
077000
0F7800
0F3800
0E3C00
1E3C00
1E1C00
1C1E00
3FFE00
3FFE00
3FFF00
780F00
780F00
780780
F00780
ENDCHAR
STARTCHAR 0103
ENCODING 259
SWIDTH 600 0
DWIDTH 15 0
BBX 12 19 1 0
BITMAP
3060
3FE0
1FC0
0F80
0000
1F80
7FE0
3FF0
20F0
00F0
00F0
3FF0
7FF0
F070
F0F0
F0F0
FFF0
7FF0
3E70
ENDCHAR
STARTCHAR 0104
ENCODING 260
SWIDTH 680 0
DWIDTH 17 0
BBX 17 24 0 -6
BITMAP
03E000
03E000
07F000
077000
077000
0F7800
0F3800
0E3C00
1E3C00
1E1C00
1C1E00
3FFE00
3FFE00
3FFF00
780F00
780F00
780780
F00780
000700
000E00
000C00
000E00
000F80
000780
ENDCHAR
STARTCHAR 0105
ENCODING 261
SWIDTH 600 0
DWIDTH 15 0
BBX 12 20 1 -6
BITMAP
1F80
7FE0
3FF0
20F0
00F0
00F0
3FF0
7FF0
F070
F0F0
F0F0
FFF0
7FF0
3E70
0060
00E0
00C0
00C0
00F0
0070
ENDCHAR
STARTCHAR 0106
ENCODING 262
SWIDTH 600 0
DWIDTH 15 0
BBX 14 23 1 0
BITMAP
00F8
00E0
01C0
0380
0000
07F0
0FFC
1FFC
3E18
7C00
7800
7800
7000
F000
F000
7000
7800
7800
7800
3C08
3FF8
1FF8
07F8
ENDCHAR
STARTCHAR 0107
ENCODING 263
SWIDTH 480 0
DWIDTH 12 0
BBX 11 19 1 0
BITMAP
03E0
0380
0700
0E00
0000
0FC0
3FE0
7FE0
7840
F000
F000
F000
F000
F000
F000
7820
7FE0
3FE0
1FC0
ENDCHAR
STARTCHAR 0108
ENCODING 264
SWIDTH 600 0
DWIDTH 15 0
BBX 14 23 1 0
BITMAP
03E0
07F0
0E38
1C1C
0000
07F0
0FFC
1FFC
3E18
7C00
7800
7800
7000
F000
F000
7000
7800
7800
7800
3C08
3FF8
1FF8
07F8
ENDCHAR
STARTCHAR 0109
ENCODING 265
SWIDTH 480 0
DWIDTH 12 0
BBX 11 19 1 0
BITMAP
0F80
1FC0
39E0
70E0
0000
0FC0
3FE0
7FE0
7840
F000
F000
F000
F000
F000
F000
7820
7FE0
3FE0
1FC0
ENDCHAR
STARTCHAR 010A
ENCODING 266
SWIDTH 600 0
DWIDTH 15 0
BBX 14 23 1 0
BITMAP
01C0
03C0
01C0
0000
0000
07F0
0FFC
1FFC
3E18
7C00
7800
7800
7000
F000
F000
7000
7800
7800
7800
3C08
3FF8
1FF8
07F8
ENDCHAR
STARTCHAR 010B
ENCODING 267
SWIDTH 480 0
DWIDTH 12 0
BBX 11 19 1 0
BITMAP
0700
0F00
0F00
0200
0000
0FC0
3FE0
7FE0
7840
F000
F000
F000
F000
F000
F000
7820
7FE0
3FE0
1FC0
ENDCHAR
STARTCHAR 010C
ENCODING 268
SWIDTH 600 0
DWIDTH 15 0
BBX 14 23 1 0
BITMAP
0E38
0770
07E0
03E0
0000
07F0
0FFC
1FFC
3E18
7C00
7800
7800
7000
F000
F000
7000
7800
7800
7800
3C08
3FF8
1FF8
07F8
ENDCHAR
STARTCHAR 010D
ENCODING 269
SWIDTH 480 0
DWIDTH 12 0
BBX 11 19 1 0
BITMAP
70E0
3DC0
1F80
0F80
0000
0FC0
3FE0
7FE0
7840
F000
F000
F000
F000
F000
F000
7820
7FE0
3FE0
1FC0
ENDCHAR
STARTCHAR 010E
ENCODING 270
SWIDTH 720 0
DWIDTH 18 0
BBX 15 23 2 0
BITMAP
3C70
1EE0
0FC0
07C0
0000
FF80
FFE0
FFF8
F0FC
F03C
F03E
F01E
F01E
F01E
F01E
F01E
F01E
F03E
F03C
F0FC
FFF8
FFE0
FF80
ENDCHAR
STARTCHAR 010F
ENCODING 271
SWIDTH 600 0
DWIDTH 15 0
BBX 18 19 1 0
BITMAP
007BC0
007B80
007B80
007B00
007800
1E7800
3FF800
7FF800
78F800
F07800
F07800
F07800
F07800
F07800
F07800
787800
7FF800
3FF800
1F3800
ENDCHAR
STARTCHAR 0110
ENCODING 272
SWIDTH 720 0
DWIDTH 18 0
BBX 16 18 1 0
BITMAP
7FC0
7FF0
7FFC
787E
781E
781F
780F
780F
FF0F
FF0F
FF0F
780F
781F
781E
787E
7FFC
7FF0
7FC0
ENDCHAR
STARTCHAR 0111
ENCODING 273
SWIDTH 640 0
DWIDTH 16 0
BBX 15 19 1 0
BITMAP
0078
0078
07FE
07FE
0078
0078
1F78
3FF8
7FF8
78F8
F078
F078
F078
F078
F078
F878
7FF8
3FF8
1F38
ENDCHAR
STARTCHAR 0112
ENCODING 274
SWIDTH 560 0
DWIDTH 14 0
BBX 11 22 2 0
BITMAP
7FC0
7FC0
7FC0
0000
FFE0
FFE0
FFE0
F000
F000
F000
F000
FFC0
FFC0
FFC0
F000
F000
F000
F000
F000
FFE0
FFE0
FFE0
ENDCHAR
STARTCHAR 0113
ENCODING 275
SWIDTH 560 0
DWIDTH 14 0
BBX 13 18 1 0
BITMAP
3FE0
3FE0
3FE0
0000
0F80
3FE0
7FF0
78F0
F078
F078
FFF8
FFF8
F000
F000
7800
7FF0
3FF0
1FE0
ENDCHAR
STARTCHAR 0114
ENCODING 276
SWIDTH 560 0
DWIDTH 14 0
BBX 11 23 2 0
BITMAP
60C0
7FC0
3F80
0600
0000
FFE0
FFE0
FFE0
F000
F000
F000
F000
FFC0
FFC0
FFC0
F000
F000
F000
F000
F000
FFE0
FFE0
FFE0
ENDCHAR
STARTCHAR 0115
ENCODING 277
SWIDTH 560 0
DWIDTH 14 0
BBX 13 19 1 0
BITMAP
3060
3FE0
1FC0
0F80
0000
0F80
3FE0
7FF0
78F0
F078
F078
FFF8
FFF8
F000
F000
7800
7FF0
3FF0
1FE0
ENDCHAR
STARTCHAR 0116
ENCODING 278
SWIDTH 560 0
DWIDTH 14 0
BBX 11 23 2 0
BITMAP
0E00
0F00
0E00
0000
0000
FFE0
FFE0
FFE0
F000
F000
F000
F000
FFC0
FFC0
FFC0
F000
F000
F000
F000
F000
FFE0
FFE0
FFE0
ENDCHAR
STARTCHAR 0117
ENCODING 279
SWIDTH 560 0
DWIDTH 14 0
BBX 13 19 1 0
BITMAP
0700
0F00
0700
0200
0000
0F80
3FE0
7FF0
78F0
F078
F078
FFF8
FFF8
F000
F000
7800
7FF0
3FF0
1FE0
ENDCHAR
STARTCHAR 0118
ENCODING 280
SWIDTH 560 0
DWIDTH 14 0
BBX 11 24 2 -6
BITMAP
FFE0
FFE0
FFE0
F000
F000
F000
F000
FFC0
FFC0
FFC0
F000
F000
F000
F000
F000
FFE0
FFE0
FFE0
0180
0380
0300
0300
03E0
01E0
ENDCHAR
STARTCHAR 0119
ENCODING 281
SWIDTH 560 0
DWIDTH 14 0
BBX 13 20 1 -6
BITMAP
0F80
3FE0
7FF0
78F0
F078
F078
FFF8
FFF8
F000
F000
7800
7FF0
3FF0
1FF0
00E0
01C0
0180
01C0
01F0
00F0
ENDCHAR
STARTCHAR 011A
ENCODING 282
SWIDTH 560 0
DWIDTH 14 0
BBX 11 23 2 0
BITMAP
71C0
3B80
1F80
1F00
0000
FFE0
FFE0
FFE0
F000
F000
F000
F000
FFC0
FFC0
FFC0
F000
F000
F000
F000
F000
FFE0
FFE0
FFE0
ENDCHAR
STARTCHAR 011B
ENCODING 283
SWIDTH 560 0
DWIDTH 14 0
BBX 13 19 1 0
BITMAP
78E0
3DE0
1FC0
0F80
0000
0F80
3FE0
7FF0
78F0
F078
F078
FFF8
FFF8
F000
F000
7800
7FF0
3FF0
1FE0
ENDCHAR
STARTCHAR 011C
ENCODING 284
SWIDTH 720 0
DWIDTH 18 0
BBX 15 23 1 0
BITMAP
03F0
07F8
0F3C
0C0C
0000
03FC
0FFE
1FFC
3F0C
7C00
7800
7800
7000
F0FE
F0FE
F0FE
781E
781E
7C1E
3E1E
3FFE
1FFE
07FC
ENDCHAR
STARTCHAR 011D
ENCODING 285
SWIDTH 560 0
DWIDTH 14 0
BBX 14 25 0 -6
BITMAP
0F80
1FC0
3CE0
7070
0000
0FFC
3FFC
3DF8
78F0
7870
7870
78F0
3FE0
1FC0
3A00
3800
3FE0
3FF8
3FF8
703C
E03C
E038
FDF8
7FF0
1FC0
ENDCHAR
STARTCHAR 011E
ENCODING 286
SWIDTH 720 0
DWIDTH 18 0
BBX 15 23 1 0
BITMAP
0E1C
07F8
03F0
01C0
0000
03FC
0FFE
1FFC
3F0C
7C00
7800
7800
7000
F0FE
F0FE
F0FE
781E
781E
7C1E
3E1E
3FFE
1FFE
07FC
ENDCHAR
STARTCHAR 011F
ENCODING 287
SWIDTH 560 0
DWIDTH 14 0
BBX 14 25 0 -6
BITMAP
3060
3FE0
1FC0
0F80
0000
0FFC
3FFC
3DF8
78F0
7870
7870
78F0
3FE0
1FC0
3A00
3800
3FE0
3FF8
3FF8
703C
E03C
E038
FDF8
7FF0
1FC0
ENDCHAR
STARTCHAR 0120
ENCODING 288
SWIDTH 720 0
DWIDTH 18 0
BBX 15 23 1 0
BITMAP
01E0
01E0
01E0
0000
0000
03FC
0FFE
1FFC
3F0C
7C00
7800
7800
7000
F0FE
F0FE
F0FE
781E
781E
7C1E
3E1E
3FFE
1FFE
07FC
ENDCHAR
STARTCHAR 0121
ENCODING 289
SWIDTH 560 0
DWIDTH 14 0
BBX 14 25 0 -6
BITMAP
0700
0780
0780
0200
0000
0FFC
3FFC
3DF8
78F0
7870
7870
78F0
3FE0
1FC0
3A00
3800
3FE0
3FF8
3FF8
703C
E03C
E038
FDF8
7FF0
1FC0
ENDCHAR
STARTCHAR 0122
ENCODING 290
SWIDTH 720 0
DWIDTH 18 0
BBX 15 24 1 -6
BITMAP
03FC
0FFE
1FFC
3F0C
7C00
7800
7800
7000
F0FE
F0FE
F0FE
781E
781E
7C1E
3E1E
3FFE
1FFE
07FC
0000
0000
01E0
01C0
0180
0180
ENDCHAR
STARTCHAR 0123
ENCODING 291
SWIDTH 560 0
DWIDTH 14 0
BBX 14 25 0 -6
BITMAP
0380
0380
0700
0700
0000
0FFC
3FFC
3DF8
78F0
7870
7870
78F0
3FE0
1FC0
3A00
3800
3FE0
3FF8
3FF8
703C
E03C
E038
FDF8
7FF0
1FC0
ENDCHAR
STARTCHAR 0124
ENCODING 292
SWIDTH 760 0
DWIDTH 19 0
BBX 15 23 2 0
BITMAP
07C0
0FE0
1C70
3838
0000
F01E
F01E
F01E
F01E
F01E
F01E
F01E
FFFE
FFFE
FFFE
F01E
F01E
F01E
F01E
F01E
F01E
F01E
F01E
ENDCHAR
STARTCHAR 0125
ENCODING 293
SWIDTH 640 0
DWIDTH 16 0
BBX 16 25 -1 0
BITMAP
1E00
3F00
7F80
F3C0
C0C0
0000
1E00
1E00
1E00
1E00
1E00
1E78
1FFC
1FFE
1F1E
1E0F
1E0F
1E0F
1E0F
1E0F
1E0F
1E0F
1E0F
1E0F
1E0F
ENDCHAR
STARTCHAR 0126
ENCODING 294
SWIDTH 760 0
DWIDTH 19 0
BBX 19 18 0 0
BITMAP
3C0780
3C0780
3C0780
FFFFE0
FFFFE0
3C0780
3C0780
3FFF80
3FFF80
3FFF80
3C0780
3C0780
3C0780
3C0780
3C0780
3C0780
3C0780
3C0780
ENDCHAR
STARTCHAR 0127
ENCODING 295
SWIDTH 640 0
DWIDTH 16 0
BBX 15 19 0 0
BITMAP
3C00
3C00
FFC0
FFC0
3C00
3C00
3DF0
3FFC
3FFC
3E3C
3C1E
3C1E
3C1E
3C1E
3C1E
3C1E
3C1E
3C1E
3C1E
ENDCHAR
STARTCHAR 0128
ENCODING 296
SWIDTH 320 0
DWIDTH 8 0
BBX 10 23 -1 0
BITMAP
38C0
7FC0
EF80
C300
0000
1E00
1E00
1E00
1E00
1E00
1E00
1E00
1E00
1E00
1E00
1E00
1E00
1E00
1E00
1E00
1E00
1E00
1E00
ENDCHAR
STARTCHAR 0129
ENCODING 297
SWIDTH 280 0
DWIDTH 7 0
BBX 10 19 -1 0
BITMAP
38C0
FFC0
FF80
C700
0000
1E00
1E00
1E00
1E00
1E00
1E00
1E00
1E00
1E00
1E00
1E00
1E00
1E00
1E00
ENDCHAR
STARTCHAR 012A
ENCODING 298
SWIDTH 320 0
DWIDTH 8 0
BBX 8 22 0 0
BITMAP
FF
FF
FF
00
3C
3C
3C
3C
3C
3C
3C
3C
3C
3C
3C
3C
3C
3C
3C
3C
3C
3C
ENDCHAR
STARTCHAR 012B
ENCODING 299
SWIDTH 280 0
DWIDTH 7 0
BBX 8 18 0 0
BITMAP
FF
FF
FF
00
3C
3C
3C
3C
3C
3C
3C
3C
3C
3C
3C
3C
3C
3C
ENDCHAR
STARTCHAR 012C
ENCODING 300
SWIDTH 320 0
DWIDTH 8 0
BBX 10 23 -1 0
BITMAP
E1C0
7F80
3F80
0E00
0000
1E00
1E00
1E00
1E00
1E00
1E00
1E00
1E00
1E00
1E00
1E00
1E00
1E00
1E00
1E00
1E00
1E00
1E00
ENDCHAR
STARTCHAR 012D
ENCODING 301
SWIDTH 280 0
DWIDTH 7 0
BBX 10 19 -1 0
BITMAP
C1C0
7F80
7F00
1E00
0000
1E00
1E00
1E00
1E00
1E00
1E00
1E00
1E00
1E00
1E00
1E00
1E00
1E00
1E00
ENDCHAR
STARTCHAR 012E
ENCODING 302
SWIDTH 320 0
DWIDTH 8 0
BBX 5 24 2 -6
BITMAP
F0
F0
F0
F0
F0
F0
F0
F0
F0
F0
F0
F0
F0
F0
F0
F0
F0
F0
70
E0
C0
C0
F8
78
ENDCHAR
STARTCHAR 012F
ENCODING 303
SWIDTH 280 0
DWIDTH 7 0
BBX 5 25 1 -6
BITMAP
70
78
78
20
00
78
78
78
78
78
78
78
78
78
78
78
78
78
78
30
60
E0
E0
F8
78
ENDCHAR
STARTCHAR 0130
ENCODING 304
SWIDTH 320 0
DWIDTH 8 0
BBX 4 23 2 0
BITMAP
F0
F0
F0
00
00
F0
F0
F0
F0
F0
F0
F0
F0
F0
F0
F0
F0
F0
F0
F0
F0
F0
F0
ENDCHAR
STARTCHAR 0131
ENCODING 305
SWIDTH 280 0
DWIDTH 7 0
BBX 4 14 2 0
BITMAP
F0
F0
F0
F0
F0
F0
F0
F0
F0
F0
F0
F0
F0
F0
ENDCHAR
STARTCHAR 0132
ENCODING 306
SWIDTH 640 0
DWIDTH 16 0
BBX 12 23 2 -5
BITMAP
F070
F070
F070
F070
F070
F070
F070
F070
F070
F070
F070
F070
F070
F070
F070
F070
F070
F0F0
00F0
00F0
0FF0
0FE0
0FC0
ENDCHAR
STARTCHAR 0133
ENCODING 307
SWIDTH 600 0
DWIDTH 15 0
BBX 11 25 2 -6
BITMAP
E0E0
F1E0
F0E0
4040
0000
F0E0
F0E0
F0E0
F0E0
F0E0
F0E0
F0E0
F0E0
F0E0
F0E0
F0E0
F0E0
F0E0
F0E0
00E0
01E0
01E0
0FE0
0FC0
0F80
ENDCHAR
STARTCHAR 0134
ENCODING 308
SWIDTH 320 0
DWIDTH 8 0
BBX 11 28 -2 -5
BITMAP
1F80
1FC0
39E0
7060
0000
0F00
0F00
0F00
0F00
0F00
0F00
0F00
0F00
0F00
0F00
0F00
0F00
0F00
0F00
0F00
0F00
0F00
0F00
0F00
0F00
FE00
FE00
FC00
ENDCHAR
STARTCHAR 0135
ENCODING 309
SWIDTH 280 0
DWIDTH 7 0
BBX 11 25 -2 -6
BITMAP
1F00
3F80
39C0
70E0
0000
0F00
0F00
0F00
0F00
0F00
0F00
0F00
0F00
0F00
0F00
0F00
0F00
0F00
0F00
0F00
0F00
1F00
FE00
FE00
F800
ENDCHAR
STARTCHAR 0136
ENCODING 310
SWIDTH 640 0
DWIDTH 16 0
BBX 14 24 2 -6
BITMAP
F03C
F07C
F0F8
F0F0
F1E0
F3C0
F7C0
F780
FF80
FF80
FFC0
F3E0
F1E0
F1F0
F0F0
F078
F07C
F03C
0000
0000
0700
0700
0600
0600
ENDCHAR
STARTCHAR 0137
ENCODING 311
SWIDTH 600 0
DWIDTH 15 0
BBX 13 25 2 -6
BITMAP
F000
F000
F000
F000
F000
F078
F0F0
F1E0
F3C0
F780
FF00
FF00
FF80
FF80
F3C0
F1E0
F1F0
F0F0
F078
0000
0000
0F00
0E00
0C00
0C00
ENDCHAR
STARTCHAR 0138
ENCODING 312
SWIDTH 600 0
DWIDTH 15 0
BBX 13 14 2 0
BITMAP
F078
F0F0
F1E0
F3C0
F3C0
F780
FF00
FF00
FF80
F3C0
F1E0
F1F0
F0F0
F078
ENDCHAR
STARTCHAR 0139
ENCODING 313
SWIDTH 560 0
DWIDTH 14 0
BBX 11 23 2 0
BITMAP
3C00
7800
7000
E000
0000
F000
F000
F000
F000
F000
F000
F000
F000
F000
F000
F000
F000
F000
F000
F000
FFE0
FFE0
FFE0
ENDCHAR
STARTCHAR 013A
ENCODING 314
SWIDTH 280 0
DWIDTH 7 0
BBX 7 25 2 0
BITMAP
3E
3C
78
E0
C0
00
F0
F0
F0
F0
F0
F0
F0
F0
F0
F0
F0
F0
F0
F0
F0
F0
F0
F0
F0
ENDCHAR
STARTCHAR 013B
ENCODING 315
SWIDTH 560 0
DWIDTH 14 0
BBX 11 24 2 -6
BITMAP
F000
F000
F000
F000
F000
F000
F000
F000
F000
F000
F000
F000
F000
F000
F000
FFE0
FFE0
FFE0
0000
0000
0E00
0E00
0C00
0C00
ENDCHAR
STARTCHAR 013C
ENCODING 316
SWIDTH 280 0
DWIDTH 7 0
BBX 4 25 2 -6
BITMAP
F0
F0
F0
F0
F0
F0
F0
F0
F0
F0
F0
F0
F0
F0
F0
F0
F0
F0
F0
00
00
F0
E0
E0
C0
ENDCHAR
STARTCHAR 013D
ENCODING 317
SWIDTH 560 0
DWIDTH 14 0
BBX 12 18 2 0
BITMAP
F0F0
F0E0
F0E0
F0C0
F000
F000
F000
F000
F000
F000
F000
F000
F000
F000
F000
FFE0
FFE0
FFE0
ENDCHAR
STARTCHAR 013E
ENCODING 318
SWIDTH 280 0
DWIDTH 7 0
BBX 8 19 2 0
BITMAP
F7
F7
F6
FE
F0
F0
F0
F0
F0
F0
F0
F0
F0
F0
F0
F0
F0
F0
F0
ENDCHAR
STARTCHAR 013F
ENCODING 319
SWIDTH 560 0
DWIDTH 14 0
BBX 11 18 2 0
BITMAP
F000
F000
F000
F000
F000
F000
F000
F1E0
F1E0
F1E0
F000
F000
F000
F000
F000
FFE0
FFE0
FFE0
ENDCHAR
STARTCHAR 0140
ENCODING 320
SWIDTH 360 0
DWIDTH 9 0
BBX 8 19 2 0
BITMAP
F0
F0
F0
F0
F0
F0
F0
F0
F7
FF
FF
F0
F0
F0
F0
F0
F0
F0
F0
ENDCHAR
STARTCHAR 0141
ENCODING 321
SWIDTH 560 0
DWIDTH 14 0
BBX 13 18 0 0
BITMAP
3C00
3C00
3C00
3C00
3C00
3C00
3F00
3F80
3F00
7C00
FC00
7C00
3C00
3C00
3C00
3FF8
3FF8
3FF8
ENDCHAR
STARTCHAR 0142
ENCODING 322
SWIDTH 280 0
DWIDTH 7 0
BBX 8 19 0 0
BITMAP
3C
3C
3C
3C
3C
3C
3C
3E
3E
3F
7C
FC
FC
3C
3C
3C
3C
3C
3C
ENDCHAR
STARTCHAR 0143
ENCODING 323
SWIDTH 800 0
DWIDTH 20 0
BBX 16 23 2 0
BITMAP
00F0
01E0
01C0
0380
0000
F807
FC07
FC07
FE07
FF07
EF07
E787
F787
F3C7
F3C7
F1E7
F0F7
F0F7
F07F
F07F
F03F
F03F
F01F
ENDCHAR
STARTCHAR 0144
ENCODING 324
SWIDTH 640 0
DWIDTH 16 0
BBX 13 19 2 0
BITMAP
03E0
0380
0700
0E00
0000
E7C0
EFE0
FFF0
F8F0
F078
F078
F078
F078
F078
F078
F078
F078
F078
F078
ENDCHAR
STARTCHAR 0145
ENCODING 325
SWIDTH 800 0
DWIDTH 20 0
BBX 16 24 2 -6
BITMAP
F807
FC07
FC07
FE07
FF07
EF07
E787
F787
F3C7
F3C7
F1E7
F0F7
F0F7
F07F
F07F
F03F
F03F
F01F
0000
0000
01C0
0380
0380
0300
ENDCHAR
STARTCHAR 0146
ENCODING 326
SWIDTH 640 0
DWIDTH 16 0
BBX 13 20 2 -6
BITMAP
E7C0
EFE0
FFF0
F8F0
F078
F078
F078
F078
F078
F078
F078
F078
F078
F078
0000
0000
0700
0600
0E00
0C00
ENDCHAR
STARTCHAR 0147
ENCODING 327
SWIDTH 800 0
DWIDTH 20 0
BBX 16 23 2 0
BITMAP
1E38
0F70
07E0
03E0
0000
F807
FC07
FC07
FE07
FF07
EF07
E787
F787
F3C7
F3C7
F1E7
F0F7
F0F7
F07F
F07F
F03F
F03F
F01F
ENDCHAR
STARTCHAR 0148
ENCODING 328
SWIDTH 640 0
DWIDTH 16 0
BBX 13 19 2 0
BITMAP
70E0
3DC0
1F80
0F80
0000
E7C0
EFE0
FFF0
F8F0
F078
F078
F078
F078
F078
F078
F078
F078
F078
F078
ENDCHAR
STARTCHAR 0149
ENCODING 329
SWIDTH 760 0
DWIDTH 19 0
BBX 17 18 0 0
BITMAP
780000
780000
700000
700000
E73E00
E77F00
07FF80
07C780
078780
078380
078380
070380
070380
070380
070380
070380
070380
070380
ENDCHAR
STARTCHAR 014A
ENCODING 330
SWIDTH 800 0
DWIDTH 20 0
BBX 16 23 2 -5
BITMAP
F807
FC07
FE07
FE07
FF07
EF87
F787
F3C7
F3E7
F1F7
F0F7
F0FF
F07F
F03F
F03F
F01F
F00F
F00F
0007
000F
00FF
00FE
00FC
ENDCHAR
STARTCHAR 014B
ENCODING 331
SWIDTH 640 0
DWIDTH 16 0
BBX 13 20 2 -6
BITMAP
E3C0
EFE0
FFF0
F8F0
F078
F078
F078
F078
F078
F078
F078
F078
F078
F078
0078
0078
00F0
03F0
03F0
03C0
ENDCHAR
STARTCHAR 014C
ENCODING 332
SWIDTH 760 0
DWIDTH 19 0
BBX 17 22 1 0
BITMAP
07F800
07F800
07F800
000000
07F800
1FFC00
3FFE00
3E1F00
7C0F80
780780
780780
780780
F80780
F00780
700780
780780
780780
7C0F80
3E1F00
3FFF00
1FFE00
07F800
ENDCHAR
STARTCHAR 014D
ENCODING 333
SWIDTH 600 0
DWIDTH 15 0
BBX 13 18 1 0
BITMAP
1FE0
1FE0
1FE0
0000
0F80
3FE0
7FF0
78F8
F078
F078
F038
F038
F078
F078
7878
7FF0
3FE0
1FC0
ENDCHAR
STARTCHAR 014E
ENCODING 334
SWIDTH 760 0
DWIDTH 19 0
BBX 17 23 1 0
BITMAP
0E1C00
07F800
03F000
00C000
000000
07F800
1FFC00
3FFE00
3E1F00
7C0F80
780780
780780
780780
F80780
F00780
700780
780780
780780
7C0F80
3E1F00
3FFF00
1FFE00
07F800
ENDCHAR
STARTCHAR 014F
ENCODING 335
SWIDTH 600 0
DWIDTH 15 0
BBX 13 19 1 0
BITMAP
3070
3FE0
1FC0
0780
0000
0F80
3FE0
7FF0
78F8
F078
F078
F038
F038
F078
F078
7878
7FF0
3FE0
1FC0
ENDCHAR
STARTCHAR 0150
ENCODING 336
SWIDTH 760 0
DWIDTH 19 0
BBX 17 23 1 0
BITMAP
01EF00
01DE00
039C00
073000
000000
07F800
1FFC00
3FFE00
3E1F00
7C0F80
780780
780780
780780
F80780
F00780
700780
780780
780780
7C0F80
3E1F00
3FFF00
1FFE00
07F800
ENDCHAR
STARTCHAR 0151
ENCODING 337
SWIDTH 600 0
DWIDTH 15 0
BBX 14 19 1 0
BITMAP
07BC
0778
0E70
1CC0
0000
0F80
3FE0
7FF0
78F8
F078
F078
F038
F038
F078
F078
7878
7FF0
3FE0
1FC0
ENDCHAR
STARTCHAR 0152
ENCODING 338
SWIDTH 960 0
DWIDTH 24 0
BBX 22 18 1 0
BITMAP
07FFFC
1FFFFC
3FFFFC
3E1E00
781E00
781E00
781E00
F01FF8
F01FF8
F01FF8
701E00
781E00
781E00
781E00
3C1E00
3FFFFC
1FFFFC
07FFFC
ENDCHAR
STARTCHAR 0153
ENCODING 339
SWIDTH 960 0
DWIDTH 24 0
BBX 22 14 1 0
BITMAP
0F83E0
3FEFF0
7FFFF8
78FC3C
F07C1C
F0781C
F03FFC
F03FFC
F07800
F07C00
787C04
7FFFFC
3FEFFC
1FC7F8
ENDCHAR
STARTCHAR 0154
ENCODING 340
SWIDTH 640 0
DWIDTH 16 0
BBX 14 23 2 0
BITMAP
03E0
0380
0700
0E00
0000
FF00
FFE0
FFF0
F1F0
F070
F078
F070
F0F0
FFF0
FFE0
FF80
F3C0
F1E0
F1E0
F0F0
F078
F078
F03C
ENDCHAR
STARTCHAR 0155
ENCODING 341
SWIDTH 440 0
DWIDTH 11 0
BBX 9 19 2 0
BITMAP
0780
0F00
1C00
3800
0000
E380
EF80
EF80
FF80
F800
F000
F000
F000
F000
F000
F000
F000
F000
F000
ENDCHAR
STARTCHAR 0156
ENCODING 342
SWIDTH 640 0
DWIDTH 16 0
BBX 14 24 2 -6
BITMAP
FF00
FFE0
FFF0
F1F0
F070
F078
F070
F0F0
FFF0
FFE0
FF80
F3C0
F1E0
F1E0
F0F0
F078
F078
F03C
0000
0000
0780
0700
0700
0600
ENDCHAR
STARTCHAR 0157
ENCODING 343
SWIDTH 440 0
DWIDTH 11 0
BBX 9 20 2 -6
BITMAP
E380
EF80
EF80
FF80
F800
F000
F000
F000
F000
F000
F000
F000
F000
F000
0000
0000
F000
E000
E000
C000
ENDCHAR
STARTCHAR 0158
ENCODING 344
SWIDTH 640 0
DWIDTH 16 0
BBX 14 23 2 0
BITMAP
38E0
1DC0
1FC0
0F80
0000
FF00
FFE0
FFF0
F1F0
F070
F078
F070
F0F0
FFF0
FFE0
FF80
F3C0
F1E0
F1E0
F0F0
F078
F078
F03C
ENDCHAR
STARTCHAR 0159
ENCODING 345
SWIDTH 440 0
DWIDTH 11 0
BBX 10 19 1 0
BITMAP
F1C0
7B80
3F80
1F00
0000
71C0
77C0
77C0
7FC0
7C00
7800
7800
7800
7800
7800
7800
7800
7800
7800
ENDCHAR
STARTCHAR 015A
ENCODING 346
SWIDTH 520 0
DWIDTH 13 0
BBX 12 23 1 0
BITMAP
03C0
0780
0700
0E00
0000
1FC0
3FF0
7FE0
7860
F000
F000
7800
7E00
3F80
1FC0
07E0
01F0
00F0
00F0
C0F0
FFE0
FFC0
7F80
ENDCHAR
STARTCHAR 015B
ENCODING 347
SWIDTH 480 0
DWIDTH 12 0
BBX 10 19 1 0
BITMAP
07C0
0700
0E00
1C00
0000
1F80
7FC0
FFC0
F080
F000
FC00
7F00
3FC0
0FC0
03C0
01C0
FFC0
FFC0
FF00
ENDCHAR
STARTCHAR 015C
ENCODING 348
SWIDTH 520 0
DWIDTH 13 0
BBX 12 23 1 0
BITMAP
1F80
1FC0
39E0
7060
0000
1FC0
3FF0
7FE0
7860
F000
F000
7800
7E00
3F80
1FC0
07E0
01F0
00F0
00F0
C0F0
FFE0
FFC0
7F80
ENDCHAR
STARTCHAR 015D
ENCODING 349
SWIDTH 480 0
DWIDTH 12 0
BBX 11 19 1 0
BITMAP
1F00
3F80
73C0
E1E0
0000
1F80
7FC0
FFC0
F080
F000
FC00
7F00
3FC0
0FC0
03C0
01C0
FFC0
FFC0
FF00
ENDCHAR
STARTCHAR 015E
ENCODING 350
SWIDTH 520 0
DWIDTH 13 0
BBX 12 24 1 -6
BITMAP
1FC0
3FF0
7FE0
7860
F000
F000
7800
7E00
3F80
1FC0
07E0
01F0
00F0
00F0
C0F0
FFE0
FFC0
7F80
0E00
0F00
0780
0380
1F00
1E00
ENDCHAR
STARTCHAR 015F
ENCODING 351
SWIDTH 480 0
DWIDTH 12 0
BBX 10 20 1 -6
BITMAP
1F80
7FC0
FFC0
F080
F000
FC00
7F00
3FC0
0FC0
03C0
01C0
FFC0
FFC0
FF00
0C00
1E00
0700
0700
1F00
1E00
ENDCHAR
STARTCHAR 0160
ENCODING 352
SWIDTH 520 0
DWIDTH 13 0
BBX 12 23 1 0
BITMAP
78E0
3FC0
1F80
0F00
0000
1FC0
3FF0
7FE0
7860
F000
F000
7800
7E00
3F80
1FC0
07E0
01F0
00F0
00F0
C0F0
FFE0
FFC0
7F80
ENDCHAR
STARTCHAR 0161
ENCODING 353
SWIDTH 480 0
DWIDTH 12 0
BBX 10 19 1 0
BITMAP
E1C0
7B80
3F00
1F00
0000
1F80
7FC0
FFC0
F080
F000
FC00
7F00
3FC0
0FC0
03C0
01C0
FFC0
FFC0
FF00
ENDCHAR
STARTCHAR 0162
ENCODING 354
SWIDTH 560 0
DWIDTH 14 0
BBX 14 24 0 -6
BITMAP
FFFC
FFFC
FFFC
0780
0780
0780
0780
0780
0780
0780
0780
0780
0780
0780
0780
0780
0780
0780
0300
0780
01C0
01C0
07C0
0780
ENDCHAR
STARTCHAR 0163
ENCODING 355
SWIDTH 400 0
DWIDTH 10 0
BBX 9 23 1 -6
BITMAP
1800
3800
3800
7F80
FF80
FF80
7800
7800
7800
7800
7800
7800
7800
7800
3F80
3F80
1F80
0C00
1E00
0700
0700
3F00
3E00
ENDCHAR
STARTCHAR 0164
ENCODING 356
SWIDTH 560 0
DWIDTH 14 0
BBX 14 23 0 0
BITMAP
3C70
1EE0
0FC0
07C0
0000
FFFC
FFFC
FFFC
0780
0780
0780
0780
0780
0780
0780
0780
0780
0780
0780
0780
0780
0780
0780
ENDCHAR
STARTCHAR 0165
ENCODING 357
SWIDTH 400 0
DWIDTH 10 0
BBX 13 19 1 0
BITMAP
0038
0038
1870
3870
3800
7F80
FF80
FF80
7800
7800
7800
7800
7800
7800
7800
7800
3F80
3F80
1F80
ENDCHAR
STARTCHAR 0166
ENCODING 358
SWIDTH 560 0
DWIDTH 14 0
BBX 14 18 0 0
BITMAP
FFFC
FFFC
FFFC
0780
0780
0780
0780
0780
3FF0
3FF0
3FF0
0780
0780
0780
0780
0780
0780
0780
ENDCHAR
STARTCHAR 0167
ENCODING 359
SWIDTH 400 0
DWIDTH 10 0
BBX 9 17 1 0
BITMAP
1800
3800
3800
7F80
FF80
FF80
7800
7800
FF00
FF00
FF00
7800
7800
7800
3F80
3F80
1F80
ENDCHAR
STARTCHAR 0168
ENCODING 360
SWIDTH 720 0
DWIDTH 18 0
BBX 15 23 2 0
BITMAP
0F30
1FF0
1BF0
30C0
0000
F01E
F01E
F01E
F01E
F01E
F01E
F01E
F01E
F01E
F01E
F01E
F01E
F01E
F01E
783C
7FFC
3FF8
1FE0
ENDCHAR
STARTCHAR 0169
ENCODING 361
SWIDTH 640 0
DWIDTH 16 0
BBX 12 19 2 0
BITMAP
1C60
3FE0
7FE0
6180
0000
F070
F070
F070
F070
F070
F070
F070
F070
F070
F0F0
F0F0
FFF0
7FF0
3F70
ENDCHAR
STARTCHAR 016A
ENCODING 362
SWIDTH 720 0
DWIDTH 18 0
BBX 15 22 2 0
BITMAP
1FF0
1FF0
1FF0
0000
F01E
F01E
F01E
F01E
F01E
F01E
F01E
F01E
F01E
F01E
F01E
F01E
F01E
F01E
783C
7FFC
3FF8
1FE0
ENDCHAR
STARTCHAR 016B
ENCODING 363
SWIDTH 640 0
DWIDTH 16 0
BBX 12 18 2 0
BITMAP
3FC0
3FC0
3FC0
0000
F070
F070
F070
F070
F070
F070
F070
F070
F070
F0F0
F0F0
FFF0
7FF0
3F70
ENDCHAR
STARTCHAR 016C
ENCODING 364
SWIDTH 720 0
DWIDTH 18 0
BBX 15 23 2 0
BITMAP
1830
1FF0
0FE0
0380
0000
F01E
F01E
F01E
F01E
F01E
F01E
F01E
F01E
F01E
F01E
F01E
F01E
F01E
F01E
783C
7FFC
3FF8
1FE0
ENDCHAR
STARTCHAR 016D
ENCODING 365
SWIDTH 640 0
DWIDTH 16 0
BBX 12 19 2 0
BITMAP
3060
3FE0
1FC0
0F00
0000
F070
F070
F070
F070
F070
F070
F070
F070
F070
F0F0
F0F0
FFF0
7FF0
3F70
ENDCHAR
STARTCHAR 016E
ENCODING 366
SWIDTH 720 0
DWIDTH 18 0
BBX 15 25 2 0
BITMAP
0780
07C0
0C60
04C0
07C0
0300
0000
F01E
F01E
F01E
F01E
F01E
F01E
F01E
F01E
F01E
F01E
F01E
F01E
F01E
F01E
783C
7FFC
3FF8
1FE0
ENDCHAR
STARTCHAR 016F
ENCODING 367
SWIDTH 640 0
DWIDTH 16 0
BBX 12 21 2 0
BITMAP
0700
0F80
1980
1980
0F80
0700
0000
F070
F070
F070
F070
F070
F070
F070
F070
F070
F0F0
F0F0
FFF0
7FF0
3F70
ENDCHAR
STARTCHAR 0170
ENCODING 368
SWIDTH 720 0
DWIDTH 18 0
BBX 15 23 2 0
BITMAP
039C
0738
0E70
0C60
0000
F01E
F01E
F01E
F01E
F01E
F01E
F01E
F01E
F01E
F01E
F01E
F01E
F01E
F01E
783C
7FFC
3FF8
1FE0
ENDCHAR
STARTCHAR 0171
ENCODING 369
SWIDTH 640 0
DWIDTH 16 0
BBX 13 19 2 0
BITMAP
0738
0E70
1CE0
19C0
0000
F070
F070
F070
F070
F070
F070
F070
F070
F070
F0F0
F0F0
FFF0
7FF0
3F70
ENDCHAR
STARTCHAR 0172
ENCODING 370
SWIDTH 720 0
DWIDTH 18 0
BBX 15 24 2 -6
BITMAP
F01E
F01E
F01E
F01E
F01E
F01E
F01E
F01E
F01E
F01E
F01E
F01E
F01E
F01E
783C
7FFC
3FF8
1FF0
00E0
00C0
00C0
00E0
00F8
0078
ENDCHAR
STARTCHAR 0173
ENCODING 371
SWIDTH 640 0
DWIDTH 16 0
BBX 12 20 2 -6
BITMAP
F070
F070
F070
F070
F070
F070
F070
F070
F070
F0F0
F0F0
FFF0
7FF0
3F70
0060
00C0
01C0
01C0
00F0
00F0
ENDCHAR
STARTCHAR 0174
ENCODING 372
SWIDTH 960 0
DWIDTH 24 0
BBX 24 23 0 0
BITMAP
007E00
007F00
00E780
01C180
000000
F03C0F
F03C0F
703C0F
707E0E
787E1E
787E1E
387F1E
38F71C
3CE73C
3CE73C
1CE7BC
1DE3B8
1FC3B8
1FC3F8
0FC3F8
0FC1F0
0F81F0
0F81F0
ENDCHAR
STARTCHAR 0175
ENCODING 373
SWIDTH 840 0
DWIDTH 21 0
BBX 21 19 0 0
BITMAP
00F800
01FC00
03CE00
070700
000000
F07878
70F878
78F878
78FC70
78DCF0
39DCF0
3DDCE0
3DCEE0
1D8FE0
1D8FE0
1F8FC0
1F87C0
0F07C0
0F0780
ENDCHAR
STARTCHAR 0176
ENCODING 374
SWIDTH 600 0
DWIDTH 15 0
BBX 15 23 0 0
BITMAP
07E0
0FE0
1E70
1838
0000
F01E
781E
783C
3C3C
3C78
1E78
1EF0
0FF0
0FE0
07E0
03C0
03C0
03C0
03C0
03C0
03C0
03C0
03C0
ENDCHAR
STARTCHAR 0177
ENCODING 375
SWIDTH 560 0
DWIDTH 14 0
BBX 14 25 0 -6
BITMAP
07C0
0FE0
1CF0
3870
0000
F03C
F03C
7838
7878
3878
3C70
3CF0
1CF0
1EE0
0FE0
0FC0
0FC0
07C0
0780
0780
0780
0F00
7F00
7E00
7800
ENDCHAR
STARTCHAR 0178
ENCODING 376
SWIDTH 600 0
DWIDTH 15 0
BBX 15 23 0 0
BITMAP
0E70
0E70
0E70
0000
0000
F01E
781E
783C
3C3C
3C78
1E78
1EF0
0FF0
0FE0
07E0
03C0
03C0
03C0
03C0
03C0
03C0
03C0
03C0
ENDCHAR
STARTCHAR 0179
ENCODING 377
SWIDTH 560 0
DWIDTH 14 0
BBX 13 23 1 0
BITMAP
03E0
0380
0700
0E00
0000
FFF8
FFF8
FFF8
00F0
01E0
01E0
03C0
0780
0F80
0F00
1E00
3C00
3C00
7800
F000
FFF8
FFF8
FFF8
ENDCHAR
STARTCHAR 017A
ENCODING 378
SWIDTH 480 0
DWIDTH 12 0
BBX 10 19 1 0
BITMAP
0780
0F00
0E00
1C00
0000
FFC0
FFC0
FFC0
03C0
0780
0F00
0F00
1E00
3C00
7800
7800
FFC0
FFC0
FFC0
ENDCHAR
STARTCHAR 017B
ENCODING 379
SWIDTH 560 0
DWIDTH 14 0
BBX 13 23 1 0
BITMAP
0700
0F00
0700
0000
0000
FFF8
FFF8
FFF8
00F0
01E0
01E0
03C0
0780
0F80
0F00
1E00
3C00
3C00
7800
F000
FFF8
FFF8
FFF8
ENDCHAR
STARTCHAR 017C
ENCODING 380
SWIDTH 480 0
DWIDTH 12 0
BBX 10 19 1 0
BITMAP
0E00
1E00
1E00
0400
0000
FFC0
FFC0
FFC0
03C0
0780
0F00
0F00
1E00
3C00
7800
7800
FFC0
FFC0
FFC0
ENDCHAR
STARTCHAR 017D
ENCODING 381
SWIDTH 560 0
DWIDTH 14 0
BBX 13 23 1 0
BITMAP
38E0
1DC0
1F80
0F80
0000
FFF8
FFF8
FFF8
00F0
01E0
01E0
03C0
0780
0F80
0F00
1E00
3C00
3C00
7800
F000
FFF8
FFF8
FFF8
ENDCHAR
STARTCHAR 017E
ENCODING 382
SWIDTH 480 0
DWIDTH 12 0
BBX 10 19 1 0
BITMAP
E1C0
7B80
3F00
1F00
0000
FFC0
FFC0
FFC0
03C0
0780
0F00
0F00
1E00
3C00
7800
7800
FFC0
FFC0
FFC0
ENDCHAR
STARTCHAR 017F
ENCODING 383
SWIDTH 360 0
DWIDTH 9 0
BBX 8 19 2 0
BITMAP
3F
7F
FF
F0
F0
F0
F0
F0
F0
F0
F0
F0
F0
F0
F0
F0
F0
F0
F0
ENDCHAR
STARTCHAR 0192
ENCODING 402
SWIDTH 560 0
DWIDTH 14 0
BBX 11 24 2 -6
BITMAP
07E0
0FE0
0FC0
1E00
1E00
1FC0
7FC0
7FC0
1E00
1E00
1E00
1E00
1E00
1E00
1E00
1E00
1E00
1E00
1E00
1E00
1E00
FE00
FC00
F800
ENDCHAR
STARTCHAR 01A0
ENCODING 416
SWIDTH 800 0
DWIDTH 20 0
BBX 20 19 1 0
BITMAP
0000F0
07F8F0
1FFCF0
3FFFE0
3E1FC0
7C0F80
780780
780780
780780
F80780
F00780
700780
780780
780780
7C0F80
3E1F00
3FFF00
1FFE00
07F800
ENDCHAR
STARTCHAR 01A1
ENCODING 417
SWIDTH 640 0
DWIDTH 16 0
BBX 17 16 1 0
BITMAP
000780
000780
0F8780
3FEF00
7FFE00
78FC00
F07800
F07800
F03800
F03800
F07800
F07800
787800
7FF000
3FE000
1FC000
ENDCHAR
STARTCHAR 01AF
ENCODING 431
SWIDTH 880 0
DWIDTH 22 0
BBX 20 19 2 0
BITMAP
0000F0
F01EF0
F01EF0
F01FE0
F01FC0
F01F00
F01E00
F01E00
F01E00
F01E00
F01E00
F01E00
F01E00
F01E00
F01E00
783C00
7FFC00
3FF800
1FE000
ENDCHAR
STARTCHAR 01B0
ENCODING 432
SWIDTH 760 0
DWIDTH 19 0
BBX 18 16 2 0
BITMAP
0003C0
0003C0
F073C0
F07780
F07F00
F07E00
F07000
F07000
F07000
F07000
F07000
F0F000
F0F000
FFF000
7FF000
3F7000
ENDCHAR
STARTCHAR 01EA
ENCODING 490
SWIDTH 760 0
DWIDTH 19 0
BBX 17 24 1 -6
BITMAP
07F800
1FFC00
3FFE00
3E1F00
7C0F80
780780
780780
780780
F80780
F00780
700780
780780
780780
7C0F80
3E1F00
3FFF00
1FFE00
07F800
00C000
01C000
018000
018000
01F000
00F000
ENDCHAR
STARTCHAR 01EB
ENCODING 491
SWIDTH 600 0
DWIDTH 15 0
BBX 13 20 1 -6
BITMAP
0F80
3FE0
7FF0
78F8
F078
F078
F038
F038
F078
F078
7878
7FF0
3FE0
1FC0
0300
0600
0E00
0E00
0F80
0780
ENDCHAR
STARTCHAR 01EC
ENCODING 492
SWIDTH 760 0
DWIDTH 19 0
BBX 17 28 1 -6
BITMAP
07F800
07F800
07F800
000000
07F800
1FFC00
3FFE00
3E1F00
7C0F80
780780
780780
780780
F80780
F00780
700780
780780
780780
7C0F80
3E1F00
3FFF00
1FFE00
07F800
00C000
01C000
018000
018000
01F000
00F000
ENDCHAR
STARTCHAR 01ED
ENCODING 493
SWIDTH 600 0
DWIDTH 15 0
BBX 13 24 1 -6
BITMAP
1FE0
1FE0
1FE0
0000
0F80
3FE0
7FF0
78F8
F078
F078
F038
F038
F078
F078
7878
7FF0
3FE0
1FC0
0300
0600
0E00
0E00
0F80
0780
ENDCHAR
STARTCHAR 01F0
ENCODING 496
SWIDTH 280 0
DWIDTH 7 0
BBX 11 25 -2 -6
BITMAP
70E0
3BC0
1F80
1F00
0000
0F00
0F00
0F00
0F00
0F00
0F00
0F00
0F00
0F00
0F00
0F00
0F00
0F00
0F00
0F00
0F00
1F00
FE00
FE00
F800
ENDCHAR
STARTCHAR 01FA
ENCODING 506
SWIDTH 680 0
DWIDTH 17 0
BBX 17 24 0 0
BITMAP
007800
00F000
01C000
01C000
03E000
033000
023000
03E000
03E000
03F000
077000
077000
0F3800
0E3800
0E3C00
1E1C00
1C1C00
3FFE00
3FFE00
3FFF00
780F00
780F00
780780
F00780
ENDCHAR
STARTCHAR 01FB
ENCODING 507
SWIDTH 600 0
DWIDTH 15 0
BBX 12 24 1 0
BITMAP
01E0
0380
0600
0000
0F80
0DC0
08C0
0DC0
0F80
0000
1F80
7FE0
3FF0
20F0
00F0
00F0
3FF0
7FF0
F070
F0F0
F0F0
FFF0
7FF0
3E70
ENDCHAR
STARTCHAR 01FC
ENCODING 508
SWIDTH 920 0
DWIDTH 23 0
BBX 22 23 0 0
BITMAP
000780
000F00
001C00
003800
000000
00FFFC
01FFFC
01FFFC
03CE00
03CE00
038E00
078E00
070FFC
0F0FFC
0F0FFC
1E0E00
1FFE00
3FFE00
3FFE00
380E00
780FFC
700FFC
F00FFC
ENDCHAR
STARTCHAR 01FD
ENCODING 509
SWIDTH 880 0
DWIDTH 22 0
BBX 21 19 1 0
BITMAP
001E00
003C00
007800
00E000
000000
1F8F80
7FDFE0
3FFFF0
20F870
00F078
00F078
3FFFF8
7FFFF8
F0F000
F0F000
F0F800
FFFFF0
7F9FF0
3F0FF0
ENDCHAR
STARTCHAR 01FE
ENCODING 510
SWIDTH 760 0
DWIDTH 19 0
BBX 17 24 1 -1
BITMAP
007800
00F000
01E000
01C000
000200
07FF00
1FFE00
3FFE00
3E1F00
7C1F80
783F80
787780
786780
F8E780
F1C780
718780
7B8780
7F0780
7E0F80
3E1F00
3FFF00
1FFE00
3FF800
100000
ENDCHAR
STARTCHAR 01FF
ENCODING 511
SWIDTH 600 0
DWIDTH 15 0
BBX 13 20 1 -1
BITMAP
01E0
03C0
0780
0700
0000
0FB0
3FF0
7FF0
78F8
F1F8
F1F8
F3B8
F738
F678
FE78
7C78
7FF0
3FE0
7FC0
2000
ENDCHAR
STARTCHAR 0218
ENCODING 536
SWIDTH 520 0
DWIDTH 13 0
BBX 12 24 1 -6
BITMAP
1FC0
3FF0
7FE0
7860
F000
F000
7800
7E00
3F80
1FC0
07E0
01F0
00F0
00F0
C0F0
FFE0
FFC0
7F80
0000
0000
0E00
0E00
0C00
0C00
ENDCHAR
STARTCHAR 0219
ENCODING 537
SWIDTH 480 0
DWIDTH 12 0
BBX 10 20 1 -6
BITMAP
1F80
7FC0
FFC0
F080
F000
FC00
7F00
3FC0
0FC0
03C0
01C0
FFC0
FFC0
FF00
0000
0000
0E00
0C00
1C00
1800
ENDCHAR
STARTCHAR 021A
ENCODING 538
SWIDTH 560 0
DWIDTH 14 0
BBX 14 24 0 -6
BITMAP
FFFC
FFFC
FFFC
0780
0780
0780
0780
0780
0780
0780
0780
0780
0780
0780
0780
0780
0780
0780
0000
0000
0380
0380
0700
0600
ENDCHAR
STARTCHAR 021B
ENCODING 539
SWIDTH 400 0
DWIDTH 10 0
BBX 9 23 1 -6
BITMAP
1800
3800
3800
7F80
FF80
FF80
7800
7800
7800
7800
7800
7800
7800
7800
3F80
3F80
1F80
0000
0000
0E00
1C00
1C00
1800
ENDCHAR
STARTCHAR 0237
ENCODING 567
SWIDTH 280 0
DWIDTH 7 0
BBX 8 20 -2 -6
BITMAP
0F
0F
0F
0F
0F
0F
0F
0F
0F
0F
0F
0F
0F
0F
0F
0F
1F
FE
FE
F8
ENDCHAR
STARTCHAR 0259
ENCODING 601
SWIDTH 560 0
DWIDTH 14 0
BBX 13 14 1 0
BITMAP
3F00
7FC0
7FE0
40F0
00F0
0078
FFF8
FFF8
FFF8
F070
F0F0
7DF0
3FE0
1F80
ENDCHAR
STARTCHAR 02BC
ENCODING 700
SWIDTH 200 0
DWIDTH 5 0
BBX 5 6 0 12
BITMAP
78
78
78
70
70
E0
ENDCHAR
STARTCHAR 02C6
ENCODING 710
SWIDTH 480 0
DWIDTH 12 0
BBX 11 4 1 15
BITMAP
1F00
3F80
73C0
E0E0
ENDCHAR
STARTCHAR 02C7
ENCODING 711
SWIDTH 480 0
DWIDTH 12 0
BBX 10 4 1 15
BITMAP
E1C0
7B80
3F00
1F00
ENDCHAR
STARTCHAR 02C9
ENCODING 713
SWIDTH 400 0
DWIDTH 10 0
BBX 8 3 1 15
BITMAP
FF
FF
FF
ENDCHAR
STARTCHAR 02D8
ENCODING 728
SWIDTH 440 0
DWIDTH 11 0
BBX 9 4 1 15
BITMAP
C180
FF80
7F00
1E00
ENDCHAR
STARTCHAR 02D9
ENCODING 729
SWIDTH 240 0
DWIDTH 6 0
BBX 4 4 1 15
BITMAP
F0
F0
F0
60
ENDCHAR
STARTCHAR 02DA
ENCODING 730
SWIDTH 320 0
DWIDTH 8 0
BBX 6 6 1 15
BITMAP
78
FC
CC
CC
FC
78
ENDCHAR
STARTCHAR 02DB
ENCODING 731
SWIDTH 240 0
DWIDTH 6 0
BBX 5 6 1 -6
BITMAP
70
60
E0
E0
F8
78
ENDCHAR
STARTCHAR 02DC
ENCODING 732
SWIDTH 480 0
DWIDTH 12 0
BBX 10 4 1 15
BITMAP
38C0
7FC0
FF80
C300
ENDCHAR
STARTCHAR 02DD
ENCODING 733
SWIDTH 480 0
DWIDTH 12 0
BBX 11 4 1 15
BITMAP
3DE0
7BC0
7380
C600
ENDCHAR
STARTCHAR 02F3
ENCODING 755
SWIDTH 320 0
DWIDTH 8 0
BBX 6 5 1 -7
BITMAP
78
CC
CC
FC
78
ENDCHAR
STARTCHAR 0300
ENCODING 768
SWIDTH 0 0
DWIDTH 0 0
BBX 7 4 -13 15
BITMAP
F0
78
1C
0E
ENDCHAR
STARTCHAR 0301
ENCODING 769
SWIDTH 0 0
DWIDTH 0 0
BBX 6 4 -8 15
BITMAP
3C
78
70
E0
ENDCHAR
STARTCHAR 0302
ENCODING 770
SWIDTH 0 0
DWIDTH 0 0
BBX 10 4 -5 15
BITMAP
3F00
3F00
7380
E1C0
ENDCHAR
STARTCHAR 0303
ENCODING 771
SWIDTH 0 0
DWIDTH 0 0
BBX 10 4 -13 15
BITMAP
38C0
7FC0
FF80
C300
ENDCHAR
STARTCHAR 0304
ENCODING 772
SWIDTH 0 0
DWIDTH 0 0
BBX 8 3 -4 15
BITMAP
FF
FF
FF
ENDCHAR
STARTCHAR 0306
ENCODING 774
SWIDTH 0 0
DWIDTH 0 0
BBX 10 4 -5 15
BITMAP
E1C0
7F80
7F80
1E00
ENDCHAR
STARTCHAR 0307
ENCODING 775
SWIDTH 0 0
DWIDTH 0 0
BBX 4 4 -2 15
BITMAP
F0
F0
F0
60
ENDCHAR
STARTCHAR 0308
ENCODING 776
SWIDTH 0 0
DWIDTH 0 0
BBX 8 3 -4 16
BITMAP
C2
E7
E7
ENDCHAR
STARTCHAR 0309
ENCODING 777
SWIDTH 0 0
DWIDTH 0 0
BBX 6 6 -10 15
BITMAP
F0
F8
3C
1C
78
70
ENDCHAR
STARTCHAR 030A
ENCODING 778
SWIDTH 0 0
DWIDTH 0 0
BBX 6 6 -3 15
BITMAP
78
FC
CC
CC
FC
78
ENDCHAR
STARTCHAR 030B
ENCODING 779
SWIDTH 0 0
DWIDTH 0 0
BBX 11 4 -4 15
BITMAP
3DE0
3BC0
7380
E700
ENDCHAR
STARTCHAR 030C
ENCODING 780
SWIDTH 0 0
DWIDTH 0 0
BBX 10 4 -5 15
BITMAP
E1C0
7380
3F00
1E00
ENDCHAR
STARTCHAR 030F
ENCODING 783
SWIDTH 0 0
DWIDTH 0 0
BBX 10 4 -14 15
BITMAP
F780
7380
39C0
18C0
ENDCHAR
STARTCHAR 0312
ENCODING 786
SWIDTH 0 0
DWIDTH 0 0
BBX 4 6 -2 12
BITMAP
30
70
70
F0
F0
E0
ENDCHAR
STARTCHAR 0323
ENCODING 803
SWIDTH 0 0
DWIDTH 0 0
BBX 4 3 -10 -5
BITMAP
F0
F0
F0
ENDCHAR
STARTCHAR 0326
ENCODING 806
SWIDTH 0 0
DWIDTH 0 0
BBX 4 4 -2 -6
BITMAP
F0
E0
E0
C0
ENDCHAR
STARTCHAR 0327
ENCODING 807
SWIDTH 0 0
DWIDTH 0 0
BBX 6 6 -3 -6
BITMAP
30
78
3C
1C
F8
F8
ENDCHAR
STARTCHAR 0328
ENCODING 808
SWIDTH 0 0
DWIDTH 0 0
BBX 4 6 -2 -6
BITMAP
60
E0
C0
C0
F0
70
ENDCHAR
STARTCHAR 0384
ENCODING 900
SWIDTH 560 0
DWIDTH 14 0
BBX 4 5 6 15
BITMAP
70
70
E0
E0
C0
ENDCHAR
STARTCHAR 0385
ENCODING 901
SWIDTH 560 0
DWIDTH 14 0
BBX 10 5 2 16
BITMAP
0700
0600
6EC0
FDC0
71C0
ENDCHAR
STARTCHAR 0386
ENCODING 902
SWIDTH 680 0
DWIDTH 17 0
BBX 18 19 0 0
BITMAP
780000
71F000
73F000
63F000
E3F800
07B800
073800
073C00
0F1C00
0E1C00
1E1E00
1E1E00
1FFE00
3FFF00
3FFF00
3C0780
780780
780780
7803C0
ENDCHAR
STARTCHAR 0387
ENCODING 903
SWIDTH 280 0
DWIDTH 7 0
BBX 5 4 1 10
BITMAP
70
F8
F8
70
ENDCHAR
STARTCHAR 0388
ENCODING 904
SWIDTH 640 0
DWIDTH 16 0
BBX 15 19 0 0
BITMAP
7000
77FE
77FE
E7FE
C780
0780
0780
0780
07FE
07FE
07FE
0780
0780
0780
0780
0780
07FE
07FE
07FE
ENDCHAR
STARTCHAR 0389
ENCODING 905
SWIDTH 880 0
DWIDTH 22 0
BBX 20 19 0 0
BITMAP
700000
7780F0
7780F0
E780F0
C780F0
0780F0
0780F0
0780F0
07FFF0
07FFF0
07FFF0
0780F0
0780F0
0780F0
0780F0
0780F0
0780F0
0780F0
0780F0
ENDCHAR
STARTCHAR 038A
ENCODING 906
SWIDTH 440 0
DWIDTH 11 0
BBX 9 19 0 0
BITMAP
7000
7780
7780
E780
C780
0780
0780
0780
0780
0780
0780
0780
0780
0780
0780
0780
0780
0780
0780
ENDCHAR
STARTCHAR 038C
ENCODING 908
SWIDTH 840 0
DWIDTH 21 0
BBX 20 19 0 0
BITMAP
700000
70FE00
73FF80
E7FFC0
CF83E0
0F01E0
1F01F0
1E00F0
1E00F0
1E00F0
1E00F0
1E00F0
1E00F0
1E01F0
0F01E0
0F83E0
07FFC0
03FF80
01FF00
ENDCHAR
STARTCHAR 038E
ENCODING 910
SWIDTH 800 0
DWIDTH 20 0
BBX 20 19 0 0
BITMAP
700000
7780F0
7780F0
E3C1E0
C3C1C0
01E3C0
00F380
00F780
007F00
007F00
003E00
003E00
001C00
001C00
001C00
001C00
001C00
001C00
001C00
ENDCHAR
STARTCHAR 038F
ENCODING 911
SWIDTH 840 0
DWIDTH 21 0
BBX 21 19 0 0
BITMAP
700000
70FF00
73FF80
E7FFE0
CFC3E0
0F01F0
1F00F0
1E00F0
1E00F0
1E00F0
0E00F0
0E00F0
0F00E0
0701E0
0381C0
01C780
1FC7F8
1FC7F8
1FC7F8
ENDCHAR
STARTCHAR 0390
ENCODING 912
SWIDTH 400 0
DWIDTH 10 0
BBX 11 21 -1 0
BITMAP
0700
0E00
6E80
EDC0
E1C0
0000
0000
1E00
1E00
1E00
1E00
1E00
1E00
1E00
1E00
1E00
1E00
1E00
1FE0
0FE0
0FE0
ENDCHAR
STARTCHAR 0391
ENCODING 913
SWIDTH 680 0
DWIDTH 17 0
BBX 17 18 0 0
BITMAP
03E000
03E000
07F000
077000
077000
0F7800
0F3800
0E3C00
1E3C00
1E1C00
1C1E00
3FFE00
3FFE00
3FFF00
780F00
780F00
780780
F00780
ENDCHAR
STARTCHAR 0392
ENCODING 914
SWIDTH 640 0
DWIDTH 16 0
BBX 13 18 2 0
BITMAP
FF80
FFF0
FFF8
F1F8
F078
F078
F078
FFF0
FFC0
FFF0
F0F8
F078
F038
F078
F0F8
FFF8
FFF0
FFC0
ENDCHAR
STARTCHAR 0393
ENCODING 915
SWIDTH 560 0
DWIDTH 14 0
BBX 12 18 2 0
BITMAP
FFF0
FFF0
FFF0
F000
F000
F000
F000
F000
F000
F000
F000
F000
F000
F000
F000
F000
F000
F000
ENDCHAR
STARTCHAR 0394
ENCODING 916
SWIDTH 640 0
DWIDTH 16 0
BBX 15 18 1 0
BITMAP
07C0
07C0
0FC0
0FE0
0EE0
1EE0
1CF0
1CF0
3C70
3878
3878
7838
703C
F03C
F01C
FFFE
FFFE
FFFE
ENDCHAR
STARTCHAR 0395
ENCODING 917
SWIDTH 560 0
DWIDTH 14 0
BBX 11 18 2 0
BITMAP
FFE0
FFE0
FFE0
F000
F000
F000
F000
FFC0
FFC0
FFC0
F000
F000
F000
F000
F000
FFE0
FFE0
FFE0
ENDCHAR
STARTCHAR 0396
ENCODING 918
SWIDTH 560 0
DWIDTH 14 0
BBX 13 18 1 0
BITMAP
FFF8
FFF8
FFF8
00F0
01E0
01E0
03C0
0780
0F80
0F00
1E00
3C00
3C00
7800
F000
FFF8
FFF8
FFF8
ENDCHAR
STARTCHAR 0397
ENCODING 919
SWIDTH 760 0
DWIDTH 19 0
BBX 15 18 2 0
BITMAP
F01E
F01E
F01E
F01E
F01E
F01E
F01E
FFFE
FFFE
FFFE
F01E
F01E
F01E
F01E
F01E
F01E
F01E
F01E
ENDCHAR
STARTCHAR 0398
ENCODING 920
SWIDTH 760 0
DWIDTH 19 0
BBX 17 18 1 0
BITMAP
07F800
1FFC00
3FFE00
3E1F00
7C0F80
780780
780780
7BF780
FBF780
F3F780
700780
780780
780780
7C0F80
3E1F00
3FFF00
1FFE00
07F800
ENDCHAR
STARTCHAR 0399
ENCODING 921
SWIDTH 320 0
DWIDTH 8 0
BBX 4 18 2 0
BITMAP
F0
F0
F0
F0
F0
F0
F0
F0
F0
F0
F0
F0
F0
F0
F0
F0
F0
F0
ENDCHAR
STARTCHAR 039A
ENCODING 922
SWIDTH 640 0
DWIDTH 16 0
BBX 14 18 2 0
BITMAP
F03C
F07C
F0F8
F0F0
F1E0
F3C0
F7C0
F780
FF80
FF80
FFC0
F3E0
F1E0
F1F0
F0F0
F078
F07C
F03C
ENDCHAR
STARTCHAR 039B
ENCODING 923
SWIDTH 640 0
DWIDTH 16 0
BBX 16 18 0 0
BITMAP
03C0
03E0
07E0
07E0
07F0
0F70
0E70
0E78
1E78
1E38
1C3C
3C3C
3C1C
381E
781E
780E
F00F
F00F
ENDCHAR
STARTCHAR 039C
ENCODING 924
SWIDTH 920 0
DWIDTH 23 0
BBX 19 18 2 0
BITMAP
FC03E0
FC03E0
FC07E0
FC07E0
EE07E0
EE0EE0
FE0EE0
F70EE0
F71CE0
F71CE0
F79CE0
F3B8E0
F3B8E0
F3F8E0
F1F0E0
F1F0E0
F1F0E0
F0E0E0
ENDCHAR
STARTCHAR 039D
ENCODING 925
SWIDTH 800 0
DWIDTH 20 0
BBX 16 18 2 0
BITMAP
F807
FC07
FC07
FE07
FF07
EF07
E787
F787
F3C7
F3C7
F1E7
F0F7
F0F7
F07F
F07F
F03F
F03F
F01F
ENDCHAR
STARTCHAR 039E
ENCODING 926
SWIDTH 560 0
DWIDTH 14 0
BBX 12 18 1 0
BITMAP
FFF0
FFF0
FFF0
0000
0000
0000
0000
7FE0
7FE0
7FE0
0000
0000
0000
0000
0000
FFF0
FFF0
FFF0
ENDCHAR
STARTCHAR 039F
ENCODING 927
SWIDTH 760 0
DWIDTH 19 0
BBX 17 18 1 0
BITMAP
07F800
1FFC00
3FFE00
3E1F00
7C0F80
780780
780780
780780
F80780
F00780
700780
780780
780780
7C0F80
3E1F00
3FFF00
1FFE00
07F800
ENDCHAR
STARTCHAR 03A0
ENCODING 928
SWIDTH 720 0
DWIDTH 18 0
BBX 14 18 2 0
BITMAP
FFFC
FFFC
FFFC
F01C
F01C
F01C
F01C
F01C
F01C
F01C
F01C
F01C
F01C
F01C
F01C
F01C
F01C
F01C
ENDCHAR
STARTCHAR 03A1
ENCODING 929
SWIDTH 600 0
DWIDTH 15 0
BBX 13 18 2 0
BITMAP
FF80
FFE0
FFF0
F1F0
F0F0
F078
F078
F0F0
F3F0
FFE0
FFC0
FE00
F000
F000
F000
F000
F000
F000
ENDCHAR
STARTCHAR 03A3
ENCODING 931
SWIDTH 560 0
DWIDTH 14 0
BBX 13 18 1 0
BITMAP
FFF0
FFF0
FFF0
7800
3C00
1E00
0F00
0780
03C0
0780
0F00
1E00
3C00
7800
F000
FFF8
FFF8
FFF8
ENDCHAR
STARTCHAR 03A4
ENCODING 932
SWIDTH 560 0
DWIDTH 14 0
BBX 14 18 0 0
BITMAP
FFFC
FFFC
FFFC
0780
0780
0780
0780
0780
0780
0780
0780
0780
0780
0780
0780
0780
0780
0780
ENDCHAR
STARTCHAR 03A5
ENCODING 933
SWIDTH 600 0
DWIDTH 15 0
BBX 15 18 0 0
BITMAP
F01E
781E
783C
3C3C
3C78
1E78
1EF0
0FF0
0FE0
07E0
03C0
03C0
03C0
03C0
03C0
03C0
03C0
03C0
ENDCHAR
STARTCHAR 03A6
ENCODING 934
SWIDTH 840 0
DWIDTH 21 0
BBX 19 18 1 0
BITMAP
00E000
00E000
07FE00
1FFF80
3FFFC0
7CE3E0
F0E1E0
F0E0E0
F0E0E0
F0E0E0
F0E1E0
78E1E0
7EEFC0
3FFF80
1FFF00
01F000
00E000
00E000
ENDCHAR
STARTCHAR 03A7
ENCODING 935
SWIDTH 640 0
DWIDTH 16 0
BBX 16 18 0 0
BITMAP
780F
781E
3C1E
1E3C
1E3C
0F78
0FF0
07F0
03E0
07E0
07F0
0FF0
0E78
1E3C
3C3C
3C1E
781F
F00F
ENDCHAR
STARTCHAR 03A8
ENCODING 936
SWIDTH 840 0
DWIDTH 21 0
BBX 20 18 1 0
BITMAP
F0F0F0
F0F0F0
F0F0F0
F0F0F0
F0F0F0
F0F0F0
F0F0F0
F0F0E0
78F1E0
7EF7E0
3FFFC0
1FFF80
05F800
00F000
00F000
00F000
00F000
00F000
ENDCHAR
STARTCHAR 03A9
ENCODING 937
SWIDTH 760 0
DWIDTH 19 0
BBX 18 18 1 0
BITMAP
07F800
1FFE00
3FFF00
7E1F00
780F80
780780
F00780
F00780
F00780
700780
700780
780700
380F00
1C0E00
0E3C00
FE3FC0
FE3FC0
FE3FC0
ENDCHAR
STARTCHAR 03AA
ENCODING 938
SWIDTH 320 0
DWIDTH 8 0
BBX 8 23 0 0
BITMAP
E7
E7
E7
00
00
3C
3C
3C
3C
3C
3C
3C
3C
3C
3C
3C
3C
3C
3C
3C
3C
3C
3C
ENDCHAR
STARTCHAR 03AB
ENCODING 939
SWIDTH 600 0
DWIDTH 15 0
BBX 15 23 0 0
BITMAP
0E70
0E70
0E70
0000
0000
F01E
781E
783C
3C3C
3C78
1E78
1EF0
0FF0
0FE0
07E0
03C0
03C0
03C0
03C0
03C0
03C0
03C0
03C0
ENDCHAR
STARTCHAR 03AC
ENCODING 940
SWIDTH 640 0
DWIDTH 16 0
BBX 15 20 1 0
BITMAP
01C0
03C0
0380
0380
0300
0000
0F1C
3FB8
7FF8
78F8
F078
F078
F078
F078
F078
F078
7878
7FFE
3FBE
1F1E
ENDCHAR
STARTCHAR 03AD
ENCODING 941
SWIDTH 520 0
DWIDTH 13 0
BBX 12 20 1 0
BITMAP
03C0
0380
0380
0300
0700
0000
1FC0
3FF0
7FE0
7020
7000
7E00
3F80
3F80
F800
F000
F010
FFF0
7FF0
3FE0
ENDCHAR
STARTCHAR 03AE
ENCODING 942
SWIDTH 640 0
DWIDTH 16 0
BBX 13 26 2 -6
BITMAP
03C0
0380
0380
0700
0700
0000
E7C0
EFE0
FFF0
F8F0
F078
F078
F078
F078
F078
F078
F078
F078
F078
F078
0078
0078
0078
0078
0078
0078
ENDCHAR
STARTCHAR 03AF
ENCODING 943
SWIDTH 400 0
DWIDTH 10 0
BBX 8 20 2 0
BITMAP
38
78
70
70
60
00
F0
F0
F0
F0
F0
F0
F0
F0
F0
F0
F0
FF
7F
7F
ENDCHAR
STARTCHAR 03B0
ENCODING 944
SWIDTH 640 0
DWIDTH 16 0
BBX 13 21 2 0
BITMAP
0780
0700
3740
76E0
70E0
0000
0000
E0F0
E0F0
E070
E078
E078
E078
E078
E078
E078
F070
F0F0
FFF0
7FE0
3FC0
ENDCHAR
STARTCHAR 03B1
ENCODING 945
SWIDTH 640 0
DWIDTH 16 0
BBX 15 14 1 0
BITMAP
0F1C
3FB8
7FF8
78F8
F078
F078
F078
F078
F078
F078
7878
7FFE
3FBE
1F1E
ENDCHAR
STARTCHAR 03B2
ENCODING 946
SWIDTH 640 0
DWIDTH 16 0
BBX 14 25 2 -6
BITMAP
1FC0
7FE0
7FF0
F0F8
F078
F078
F070
F0F0
F3C0
F3E0
F3F8
F078
F03C
F03C
F03C
F078
FFF8
FFF0
FFE0
F000
F000
F000
F000
F000
F000
ENDCHAR
STARTCHAR 03B3
ENCODING 947
SWIDTH 560 0
DWIDTH 14 0
BBX 14 20 0 -6
BITMAP
F03C
F03C
7838
7878
3878
3C70
3CF0
1CF0
1EE0
0FE0
0FC0
0FC0
07C0
0780
0780
0780
0F00
0F00
0F00
0F00
ENDCHAR
STARTCHAR 03B4
ENCODING 948
SWIDTH 600 0
DWIDTH 15 0
BBX 13 19 1 0
BITMAP
0FE0
1FF8
3FF0
3C10
3C00
1E00
1F80
0FC0
1FF0
3FF0
7878
F078
F038
F038
F078
F878
7FF0
3FF0
1FC0
ENDCHAR
STARTCHAR 03B5
ENCODING 949
SWIDTH 520 0
DWIDTH 13 0
BBX 12 14 1 0
BITMAP
1FC0
3FF0
7FE0
7020
7000
7E00
3F80
3F80
F800
F000
F010
FFF0
7FF0
3FE0
ENDCHAR
STARTCHAR 03B6
ENCODING 950
SWIDTH 480 0
DWIDTH 12 0
BBX 11 24 1 -5
BITMAP
7FE0
7FE0
7FE0
03C0
0780
0F00
1E00
3C00
3800
7800
7000
F000
F000
F000
F000
F800
7F00
3FC0
0FE0
01E0
00E0
01E0
01C0
03C0
ENDCHAR
STARTCHAR 03B7
ENCODING 951
SWIDTH 640 0
DWIDTH 16 0
BBX 13 20 2 -6
BITMAP
E7C0
EFE0
FFF0
F8F0
F078
F078
F078
F078
F078
F078
F078
F078
F078
F078
0078
0078
0078
0078
0078
0078
ENDCHAR
STARTCHAR 03B8
ENCODING 952
SWIDTH 600 0
DWIDTH 15 0
BBX 13 19 1 0
BITMAP
0FC0
3FE0
3FF0
78F0
7078
F078
F078
F078
FFF8
FFF8
FFF8
F078
F078
F078
7078
7870
3FF0
3FE0
0FC0
ENDCHAR
STARTCHAR 03B9
ENCODING 953
SWIDTH 400 0
DWIDTH 10 0
BBX 8 14 2 0
BITMAP
F0
F0
F0
F0
F0
F0
F0
F0
F0
F0
F0
FF
7F
7F
ENDCHAR
STARTCHAR 03BA
ENCODING 954
SWIDTH 600 0
DWIDTH 15 0
BBX 13 14 2 0
BITMAP
F078
F0F0
F1E0
F3C0
F3C0
F780
FF00
FF00
FF80
F3C0
F1E0
F1F0
F0F0
F078
ENDCHAR
STARTCHAR 03BB
ENCODING 955
SWIDTH 600 0
DWIDTH 15 0
BBX 15 19 0 0
BITMAP
7C00
7E00
7F00
0780
0780
0380
03C0
07C0
07C0
0FE0
0EE0
1EF0
1EF0
1CF0
3C78
3878
783E
783E
F01E
ENDCHAR
STARTCHAR 03BC
ENCODING 956
SWIDTH 640 0
DWIDTH 16 0
BBX 13 20 2 -6
BITMAP
F078
F078
F078
F078
F078
F078
F078
F078
F078
F0F8
F0F8
FFF8
FFF8
FF38
F000
F000
F000
F000
F000
F000
ENDCHAR
STARTCHAR 03BD
ENCODING 957
SWIDTH 560 0
DWIDTH 14 0
BBX 14 14 0 0
BITMAP
F03C
703C
783C
783C
383C
3C38
3C78
1C78
1E70
0EF0
0EE0
0FE0
07C0
0780
ENDCHAR
STARTCHAR 03BE
ENCODING 958
SWIDTH 480 0
DWIDTH 12 0
BBX 11 24 1 -5
BITMAP
7FE0
7FE0
7FE0
3C00
7800
7800
7800
7C00
3FC0
1FC0
7E00
7800
F000
F000
F000
F800
7F00
3FC0
0FE0
01E0
00E0
01E0
01C0
03C0
ENDCHAR
STARTCHAR 03BF
ENCODING 959
SWIDTH 600 0
DWIDTH 15 0
BBX 13 14 1 0
BITMAP
0F80
3FE0
7FF0
78F8
F078
F078
F038
F038
F078
F078
7878
7FF0
3FE0
1FC0
ENDCHAR
STARTCHAR 03C0
ENCODING 960
SWIDTH 720 0
DWIDTH 18 0
BBX 18 14 0 0
BITMAP
3FFFC0
FFFFC0
FFFFC0
1E1E00
1E1E00
1E1E00
1E1E00
1E1E00
1E1E00
1E1E00
1E1E00
1E1F80
1E1F80
1E0F80
ENDCHAR
STARTCHAR 03C1
ENCODING 961
SWIDTH 600 0
DWIDTH 15 0
BBX 13 20 1 -6
BITMAP
0F80
1FE0
3FF0
78F8
7878
7078
F078
F078
F078
F078
F878
FFF0
FFF0
F7E0
F000
F000
F000
F000
F000
F000
ENDCHAR
STARTCHAR 03C2
ENCODING 962
SWIDTH 480 0
DWIDTH 12 0
BBX 11 19 1 -5
BITMAP
0FC0
3FE0
7FE0
7840
F800
F000
F000
F000
F000
F000
7C00
7F80
3FE0
07E0
00E0
00E0
01E0
01C0
03C0
ENDCHAR
STARTCHAR 03C3
ENCODING 963
SWIDTH 640 0
DWIDTH 16 0
BBX 15 14 1 0
BITMAP
03FE
1FFE
3FFE
7870
F070
F078
F038
F03C
F03C
F078
7878
7FF8
3FF0
1FC0
ENDCHAR
STARTCHAR 03C4
ENCODING 964
SWIDTH 520 0
DWIDTH 13 0
BBX 13 14 0 0
BITMAP
3FF8
7FF8
FFF8
0F00
0F00
0F00
0F00
0F00
0F00
0F00
0F00
0FF0
07F0
07F0
ENDCHAR
STARTCHAR 03C5
ENCODING 965
SWIDTH 640 0
DWIDTH 16 0
BBX 13 14 2 0
BITMAP
E0F0
E0F0
E070
E078
E078
E078
E078
E078
E078
F070
F0F0
FFF0
7FE0
3FC0
ENDCHAR
STARTCHAR 03C6
ENCODING 966
SWIDTH 760 0
DWIDTH 19 0
BBX 18 20 1 -6
BITMAP
103C00
38FF00
79FF80
79E780
F1C380
F1C3C0
F1C3C0
F1C3C0
F1C3C0
F1C780
79CF80
7FFF00
3FFE00
0FF800
01C000
01C000
01C000
01C000
01C000
01C000
ENDCHAR
STARTCHAR 03C7
ENCODING 967
SWIDTH 560 0
DWIDTH 14 0
BBX 15 20 0 -6
BITMAP
781E
7C1C
7C3C
1E78
0E78
0FF0
07E0
07E0
07C0
07C0
07C0
0FC0
0FE0
1EE0
1CE0
3CF0
78F8
787E
F07E
F01E
ENDCHAR
STARTCHAR 03C8
ENCODING 968
SWIDTH 800 0
DWIDTH 20 0
BBX 18 25 2 -6
BITMAP
01C000
01C000
01C000
01C000
01C000
E1C780
E1C780
E1C380
E1C380
E1C380
E1C3C0
E1C3C0
E1C3C0
E1C3C0
F1C380
F1C780
7FFF00
3FFE00
1FFC00
01C000
01C000
01C000
01C000
01C000
01C000
ENDCHAR
STARTCHAR 03C9
ENCODING 969
SWIDTH 840 0
DWIDTH 21 0
BBX 19 14 1 0
BITMAP
3803C0
7801C0
7001E0
7001E0
7000E0
F0F0E0
F0F0E0
F0F0E0
F0F0E0
70F0E0
78F1E0
7FFFC0
3FBFC0
1F1F80
ENDCHAR
STARTCHAR 03CA
ENCODING 970
SWIDTH 400 0
DWIDTH 10 0
BBX 10 19 0 0
BITMAP
C200
E700
E700
0000
0000
3C00
3C00
3C00
3C00
3C00
3C00
3C00
3C00
3C00
3C00
3C00
3FC0
1FC0
1FC0
ENDCHAR
STARTCHAR 03CB
ENCODING 971
SWIDTH 640 0
DWIDTH 16 0
BBX 13 19 2 0
BITMAP
3180
39C0
39C0
0000
0000
E0F0
E0F0
E070
E078
E078
E078
E078
E078
E078
F070
F0F0
FFF0
7FE0
3FC0
ENDCHAR
STARTCHAR 03CC
ENCODING 972
SWIDTH 600 0
DWIDTH 15 0
BBX 13 20 1 0
BITMAP
03C0
0380
0380
0300
0700
0000
0F80
3FE0
7FF0
78F8
F078
F078
F038
F038
F078
F078
7878
7FF0
3FE0
1FC0
ENDCHAR
STARTCHAR 03CD
ENCODING 973
SWIDTH 640 0
DWIDTH 16 0
BBX 13 20 2 0
BITMAP
0780
0700
0700
0600
0600
0000
E0F0
E0F0
E070
E078
E078
E078
E078
E078
E078
F070
F0F0
FFF0
7FE0
3FC0
ENDCHAR
STARTCHAR 03CE
ENCODING 974
SWIDTH 840 0
DWIDTH 21 0
BBX 19 20 1 0
BITMAP
007800
007000
007000
006000
006000
000000
3803C0
7801C0
7001E0
7001E0
7000E0
F0F0E0
F0F0E0
F0F0E0
F0F0E0
70F0E0
78F1E0
7FFFC0
3FBFC0
1F1F80
ENDCHAR
STARTCHAR 03D1
ENCODING 977
SWIDTH 720 0
DWIDTH 18 0
BBX 17 19 1 0
BITMAP
07E000
0FF000
1FF800
1C3C00
1C3C00
1E1C00
1F9E00
0FFF80
07FF80
78FF80
F81E00
FC1E00
381E00
381E00
381C00
3C3C00
3FFC00
1FF800
0FE000
ENDCHAR
STARTCHAR 03D2
ENCODING 978
SWIDTH 600 0
DWIDTH 15 0
BBX 16 18 0 0
BITMAP
F00F
781F
783F
3C3C
3C78
1E70
1EF0
0FE0
07E0
07C0
03C0
03C0
03C0
03C0
03C0
03C0
03C0
03C0
ENDCHAR
STARTCHAR 03D6
ENCODING 982
SWIDTH 960 0
DWIDTH 24 0
BBX 23 14 1 0
BITMAP
7FFFFE
FFFFFE
FFFFFE
1C0070
3C0078
3C0078
3C0078
383838
383878
3C3878
3C7C78
1FFFF0
1FEFF0
0FC7E0
ENDCHAR
STARTCHAR 0400
ENCODING 1024
SWIDTH 560 0
DWIDTH 14 0
BBX 11 23 2 0
BITMAP
7C00
1C00
0E00
0700
0000
FFE0
FFE0
FFE0
F000
F000
F000
F000
FFC0
FFC0
FFC0
F000
F000
F000
F000
F000
FFE0
FFE0
FFE0
ENDCHAR
STARTCHAR 0401
ENCODING 1025
SWIDTH 560 0
DWIDTH 14 0
BBX 11 23 2 0
BITMAP
3180
7BC0
3B80
0000
0000
FFE0
FFE0
FFE0
F000
F000
F000
F000
FFC0
FFC0
FFC0
F000
F000
F000
F000
F000
FFE0
FFE0
FFE0
ENDCHAR
STARTCHAR 0402
ENCODING 1026
SWIDTH 800 0
DWIDTH 20 0
BBX 19 18 0 0
BITMAP
FFFC00
FFFC00
FFFC00
078000
078000
078000
078000
07FF80
07FFC0
07FFC0
0781E0
0781E0
0781E0
0781E0
0781E0
079FC0
079FC0
079F80
ENDCHAR
STARTCHAR 0403
ENCODING 1027
SWIDTH 560 0
DWIDTH 14 0
BBX 12 23 2 0
BITMAP
03C0
0780
0700
0E00
0000
FFF0
FFF0
FFF0
F000
F000
F000
F000
F000
F000
F000
F000
F000
F000
F000
F000
F000
F000
F000
ENDCHAR
STARTCHAR 0404
ENCODING 1028
SWIDTH 640 0
DWIDTH 16 0
BBX 15 18 1 0
BITMAP
03F8
0FFE
1FFC
3E0C
7C00
7800
7800
7FF0
FFF0
FFF0
7FF0
7800
7800
7800
3E04
3FFC
1FFC
07FC
ENDCHAR
STARTCHAR 0405
ENCODING 1029
SWIDTH 520 0
DWIDTH 13 0
BBX 12 18 1 0
BITMAP
1FC0
3FF0
7FE0
7860
F000
F000
7800
7E00
3F80
1FC0
07E0
01F0
00F0
00F0
C0F0
FFE0
FFC0
7F80
ENDCHAR
STARTCHAR 0406
ENCODING 1030
SWIDTH 320 0
DWIDTH 8 0
BBX 4 18 2 0
BITMAP
F0
F0
F0
F0
F0
F0
F0
F0
F0
F0
F0
F0
F0
F0
F0
F0
F0
F0
ENDCHAR
STARTCHAR 0407
ENCODING 1031
SWIDTH 320 0
DWIDTH 8 0
BBX 8 23 0 0
BITMAP
E7
E7
E7
00
00
3C
3C
3C
3C
3C
3C
3C
3C
3C
3C
3C
3C
3C
3C
3C
3C
3C
3C
ENDCHAR
STARTCHAR 0408
ENCODING 1032
SWIDTH 320 0
DWIDTH 8 0
BBX 8 23 -2 -5
BITMAP
0F
0F
0F
0F
0F
0F
0F
0F
0F
0F
0F
0F
0F
0F
0F
0F
0F
0F
0F
0F
FE
FE
FC
ENDCHAR
STARTCHAR 0409
ENCODING 1033
SWIDTH 960 0
DWIDTH 24 0
BBX 24 18 0 0
BITMAP
07FF00
07FF00
07FF00
070F00
070F00
0F0F00
0F0F00
0F0FF0
0F0FFC
0E0FFE
0E0F1F
1E0F0F
1E0F0F
1E0F0F
1C0F1F
FC0FFE
FC0FFC
F80FF0
ENDCHAR
STARTCHAR 040A
ENCODING 1034
SWIDTH 1000 0
DWIDTH 25 0
BBX 22 18 2 0
BITMAP
F03C00
F03C00
F03C00
F03C00
F03C00
F03C00
F03C00
FFFFC0
FFFFF0
FFFFF8
F03C7C
F03C3C
F03C3C
F03C3C
F03C7C
F03FF8
F03FF0
F03FE0
ENDCHAR
STARTCHAR 040B
ENCODING 1035
SWIDTH 800 0
DWIDTH 20 0
BBX 19 18 0 0
BITMAP
FFFC00
FFFC00
FFFC00
078000
078000
078000
078000
07FF80
07FFC0
07FFC0
0781E0
0781E0
0781E0
0781E0
0781E0
0781E0
0781E0
0781E0
ENDCHAR
STARTCHAR 040C
ENCODING 1036
SWIDTH 640 0
DWIDTH 16 0
BBX 14 23 2 0
BITMAP
01E0
03C0
0380
0700
0000
F03C
F078
F078
F0F0
F1E0
F3C0
F3C0
F780
FF00
FF80
F780
F3C0
F1E0
F1E0
F0F0
F078
F07C
F03C
ENDCHAR
STARTCHAR 040D
ENCODING 1037
SWIDTH 800 0
DWIDTH 20 0
BBX 16 23 2 0
BITMAP
0F80
0380
01C0
00E0
0000
F00F
F01F
F03F
F03F
F07F
F077
F0F7
F1E7
F1E7
F3C7
F787
F787
FF07
FF07
FE07
FC07
FC07
F807
ENDCHAR
STARTCHAR 040E
ENCODING 1038
SWIDTH 640 0
DWIDTH 16 0
BBX 16 24 0 0
BITMAP
1C1C
1C1C
1F7C
0FF8
03C0
0000
F007
780F
780F
3C1E
3C1E
1E3C
1E3C
0E38
0F78
0770
07F0
03F0
03E0
03E0
07C0
7FC0
7F80
7F00
ENDCHAR
STARTCHAR 040F
ENCODING 1039
SWIDTH 720 0
DWIDTH 18 0
BBX 14 23 2 -5
BITMAP
F01C
F01C
F01C
F01C
F01C
F01C
F01C
F01C
F01C
F01C
F01C
F01C
F01C
F01C
F01C
FFFC
FFFC
FFFC
0780
0780
0780
0780
0780
ENDCHAR
STARTCHAR 0410
ENCODING 1040
SWIDTH 680 0
DWIDTH 17 0
BBX 17 18 0 0
BITMAP
03E000
03E000
07F000
077000
077000
0F7800
0F3800
0E3C00
1E3C00
1E1C00
1C1E00
3FFE00
3FFE00
3FFF00
780F00
780F00
780780
F00780
ENDCHAR
STARTCHAR 0411
ENCODING 1041
SWIDTH 600 0
DWIDTH 15 0
BBX 13 18 2 0
BITMAP
FFF0
FFF0
FFF0
F000
F000
F000
F000
FF80
FFE0
FFF0
F0F0
F078
F078
F078
F0F0
FFF0
FFE0
FF80
ENDCHAR
STARTCHAR 0412
ENCODING 1042
SWIDTH 640 0
DWIDTH 16 0
BBX 13 18 2 0
BITMAP
FF80
FFF0
FFF8
F1F8
F078
F078
F078
FFF0
FFC0
FFF0
F0F8
F078
F038
F078
F0F8
FFF8
FFF0
FFC0
ENDCHAR
STARTCHAR 0413
ENCODING 1043
SWIDTH 560 0
DWIDTH 14 0
BBX 12 18 2 0
BITMAP
FFF0
FFF0
FFF0
F000
F000
F000
F000
F000
F000
F000
F000
F000
F000
F000
F000
F000
F000
F000
ENDCHAR
STARTCHAR 0414
ENCODING 1044
SWIDTH 760 0
DWIDTH 19 0
BBX 19 23 0 -5
BITMAP
03FF00
03FF00
07FF00
078F00
078F00
070F00
070F00
0F0F00
0F0F00
0E0F00
1E0F00
1E0F00
1C0F00
3C0F00
3C0F00
FFFFE0
FFFFE0
FFFFE0
F001E0
F001E0
F001E0
F001E0
F001E0
ENDCHAR
STARTCHAR 0415
ENCODING 1045
SWIDTH 560 0
DWIDTH 14 0
BBX 11 18 2 0
BITMAP
FFE0
FFE0
FFE0
F000
F000
F000
F000
FFC0
FFC0
FFC0
F000
F000
F000
F000
F000
FFE0
FFE0
FFE0
ENDCHAR
STARTCHAR 0416
ENCODING 1046
SWIDTH 920 0
DWIDTH 23 0
BBX 23 18 0 0
BITMAP
703C1E
783C3C
3C3C3C
1C3C78
1E3CF0
0F3CF0
073DE0
07BFC0
03FF80
03FFC0
07BDC0
0F3DE0
0F3CF0
1E3C78
3C3C78
3C3C3C
783C1E
F03C1E
ENDCHAR
STARTCHAR 0417
ENCODING 1047
SWIDTH 640 0
DWIDTH 16 0
BBX 14 18 1 0
BITMAP
1FE0
7FF0
7FF8
7078
003C
0038
0078
1FF0
1F80
1FF0
00F8
003C
003C
003C
807C
FFF8
FFF8
7FE0
ENDCHAR
STARTCHAR 0418
ENCODING 1048
SWIDTH 800 0
DWIDTH 20 0
BBX 16 18 2 0
BITMAP
F00F
F01F
F03F
F03F
F07F
F077
F0F7
F1E7
F1E7
F3C7
F787
F787
FF07
FF07
FE07
FC07
FC07
F807
ENDCHAR
STARTCHAR 0419
ENCODING 1049
SWIDTH 800 0
DWIDTH 20 0
BBX 16 24 2 0
BITMAP
1C1E
1C1C
1F7C
0FF8
03E0
0000
F00F
F01F
F03F
F03F
F07F
F077
F0F7
F1E7
F1E7
F3C7
F787
F787
FF07
FF07
FE07
FC07
FC07
F807
ENDCHAR
STARTCHAR 041A
ENCODING 1050
SWIDTH 640 0
DWIDTH 16 0
BBX 14 18 2 0
BITMAP
F03C
F078
F078
F0F0
F1E0
F3C0
F3C0
F780
FF00
FF80
F780
F3C0
F1E0
F1E0
F0F0
F078
F07C
F03C
ENDCHAR
STARTCHAR 041B
ENCODING 1051
SWIDTH 720 0
DWIDTH 18 0
BBX 16 18 0 0
BITMAP
07FF
07FF
07FF
0707
0707
0F07
0F07
0F07
0F07
0E07
0E07
1E07
1E07
1E07
1C07
FC07
FC07
F807
ENDCHAR
STARTCHAR 041C
ENCODING 1052
SWIDTH 920 0
DWIDTH 23 0
BBX 19 18 2 0
BITMAP
FC03E0
FC03E0
FC07E0
FC07E0
EE07E0
EE0EE0
FE0EE0
F70EE0
F71CE0
F71CE0
F79CE0
F3B8E0
F3B8E0
F3F8E0
F1F0E0
F1F0E0
F1F0E0
F0E0E0
ENDCHAR
STARTCHAR 041D
ENCODING 1053
SWIDTH 760 0
DWIDTH 19 0
BBX 15 18 2 0
BITMAP
F01E
F01E
F01E
F01E
F01E
F01E
F01E
FFFE
FFFE
FFFE
F01E
F01E
F01E
F01E
F01E
F01E
F01E
F01E
ENDCHAR
STARTCHAR 041E
ENCODING 1054
SWIDTH 760 0
DWIDTH 19 0
BBX 17 18 1 0
BITMAP
07F800
1FFC00
3FFE00
3E1F00
7C0F80
780780
780780
780780
F80780
F00780
700780
780780
780780
7C0F80
3E1F00
3FFF00
1FFE00
07F800
ENDCHAR
STARTCHAR 041F
ENCODING 1055
SWIDTH 720 0
DWIDTH 18 0
BBX 14 18 2 0
BITMAP
FFFC
FFFC
FFFC
F01C
F01C
F01C
F01C
F01C
F01C
F01C
F01C
F01C
F01C
F01C
F01C
F01C
F01C
F01C
ENDCHAR
STARTCHAR 0420
ENCODING 1056
SWIDTH 600 0
DWIDTH 15 0
BBX 13 18 2 0
BITMAP
FF80
FFE0
FFF0
F1F0
F0F0
F078
F078
F0F0
F3F0
FFE0
FFC0
FE00
F000
F000
F000
F000
F000
F000
ENDCHAR
STARTCHAR 0421
ENCODING 1057
SWIDTH 600 0
DWIDTH 15 0
BBX 14 18 1 0
BITMAP
07F0
0FFC
1FFC
3E18
7C00
7800
7800
7000
F000
F000
7000
7800
7800
7800
3C08
3FF8
1FF8
07F8
ENDCHAR
STARTCHAR 0422
ENCODING 1058
SWIDTH 560 0
DWIDTH 14 0
BBX 14 18 0 0
BITMAP
FFFC
FFFC
FFFC
0780
0780
0780
0780
0780
0780
0780
0780
0780
0780
0780
0780
0780
0780
0780
ENDCHAR
STARTCHAR 0423
ENCODING 1059
SWIDTH 640 0
DWIDTH 16 0
BBX 16 18 0 0
BITMAP
F007
780F
780F
3C1E
3C1E
1E3C
1E3C
0E38
0F78
0770
07F0
03F0
03E0
03E0
07C0
7FC0
7F80
7F00
ENDCHAR
STARTCHAR 0424
ENCODING 1060
SWIDTH 840 0
DWIDTH 21 0
BBX 19 18 1 0
BITMAP
00E000
00E000
07FE00
1FFF80
3FFFC0
7CE3E0
F0E1E0
F0E0E0
F0E0E0
F0E0E0
F0E1E0
78E1E0
7EEFC0
3FFF80
1FFF00
01F000
00E000
00E000
ENDCHAR
STARTCHAR 0425
ENCODING 1061
SWIDTH 640 0
DWIDTH 16 0
BBX 16 18 0 0
BITMAP
780F
781E
3C1E
1E3C
1E3C
0F78
0FF0
07F0
03E0
07E0
07F0
0FF0
0E78
1E3C
3C3C
3C1E
781F
F00F
ENDCHAR
STARTCHAR 0426
ENCODING 1062
SWIDTH 760 0
DWIDTH 19 0
BBX 17 23 2 -5
BITMAP
F01C00
F01C00
F01C00
F01C00
F01C00
F01C00
F01C00
F01C00
F01C00
F01C00
F01C00
F01C00
F01C00
F01C00
F01C00
FFFF80
FFFF80
FFFF80
000780
000780
000780
000780
000780
ENDCHAR
STARTCHAR 0427
ENCODING 1063
SWIDTH 720 0
DWIDTH 18 0
BBX 15 18 1 0
BITMAP
F01E
F01E
F01E
F01E
F01E
F01E
F01E
F01E
F83E
7FFE
7FFE
3FDE
001E
001E
001E
001E
001E
001E
ENDCHAR
STARTCHAR 0428
ENCODING 1064
SWIDTH 1040 0
DWIDTH 26 0
BBX 23 18 2 0
BITMAP
F0381E
F0381E
F0381E
F0381E
F0381E
F0381E
F0381E
F0381E
F0381E
F0381E
F0381E
F0381E
F0381E
F0381E
F0381E
FFFFFE
FFFFFE
FFFFFE
ENDCHAR
STARTCHAR 0429
ENCODING 1065
SWIDTH 1080 0
DWIDTH 27 0
BBX 25 23 2 -5
BITMAP
F0381E00
F0381E00
F0381E00
F0381E00
F0381E00
F0381E00
F0381E00
F0381E00
F0381E00
F0381E00
F0381E00
F0381E00
F0381E00
F0381E00
F0381E00
FFFFFF80
FFFFFF80
FFFFFF80
00000380
00000380
00000380
00000380
00000380
ENDCHAR
STARTCHAR 042A
ENCODING 1066
SWIDTH 720 0
DWIDTH 18 0
BBX 17 18 0 0
BITMAP
FF0000
FF0000
FF0000
0F0000
0F0000
0F0000
0F0000
0FF800
0FFE00
0FFF00
0F0F80
0F0780
0F0780
0F0780
0F0F80
0FFF00
0FFE00
0FF800
ENDCHAR
STARTCHAR 042B
ENCODING 1067
SWIDTH 880 0
DWIDTH 22 0
BBX 18 18 2 0
BITMAP
F001C0
F001C0
F001C0
F001C0
F001C0
F001C0
F001C0
FF81C0
FFE1C0
FFF1C0
F1F1C0
F0F1C0
F071C0
F0F1C0
F1F1C0
FFF1C0
FFE1C0
FF81C0
ENDCHAR
STARTCHAR 042C
ENCODING 1068
SWIDTH 600 0
DWIDTH 15 0
BBX 13 18 2 0
BITMAP
F000
F000
F000
F000
F000
F000
F000
FF80
FFE0
FFF0
F0F0
F078
F078
F078
F0F0
FFF0
FFE0
FF80
ENDCHAR
STARTCHAR 042D
ENCODING 1069
SWIDTH 640 0
DWIDTH 16 0
BBX 14 18 1 0
BITMAP
3F80
FFE0
FFF0
60F8
0078
003C
003C
3FFC
3FFC
3FFC
3FFC
003C
003C
0078
80F8
FFF0
FFE0
7FC0
ENDCHAR
STARTCHAR 042E
ENCODING 1070
SWIDTH 1040 0
DWIDTH 26 0
BBX 23 18 2 0
BITMAP
F00FE0
F03FF0
F07FF8
F0787C
F0F03E
F0F01E
F0F01E
FFE01E
FFE01E
FFE01E
F1E01E
F0F01E
F0F01E
F0F03E
F0787C
F07FFC
F03FF8
F00FE0
ENDCHAR
STARTCHAR 042F
ENCODING 1071
SWIDTH 640 0
DWIDTH 16 0
BBX 14 18 0 0
BITMAP
03FC
0FFC
1FFC
3E1C
3C1C
3C1C
3C1C
3E1C
1FFC
0FFC
07FC
0F1C
1E1C
1E1C
3C1C
7C1C
781C
F01C
ENDCHAR
STARTCHAR 0430
ENCODING 1072
SWIDTH 600 0
DWIDTH 15 0
BBX 12 14 1 0
BITMAP
1F80
7FE0
3FF0
20F0
00F0
00F0
3FF0
7FF0
F070
F0F0
F0F0
FFF0
7FF0
3E70
ENDCHAR
STARTCHAR 0431
ENCODING 1073
SWIDTH 600 0
DWIDTH 15 0
BBX 13 19 1 0
BITMAP
00F8
07F8
1FF8
3FC0
7C00
7800
71C0
F7F0
FFF8
FC78
F078
F038
F038
F038
7878
7878
7FF0
3FF0
0FC0
ENDCHAR
STARTCHAR 0432
ENCODING 1074
SWIDTH 600 0
DWIDTH 15 0
BBX 12 14 2 0
BITMAP
FF00
FFE0
FFF0
F0F0
F0F0
F1F0
FFC0
FFE0
F0F0
F070
F0F0
FFF0
FFE0
FFC0
ENDCHAR
STARTCHAR 0433
ENCODING 1075
SWIDTH 440 0
DWIDTH 11 0
BBX 9 14 2 0
BITMAP
FF80
FF80
FF80
F000
F000
F000
F000
F000
F000
F000
F000
F000
F000
F000
ENDCHAR
STARTCHAR 0434
ENCODING 1076
SWIDTH 640 0
DWIDTH 16 0
BBX 16 19 0 -5
BITMAP
07FC
0FFC
0FFC
0F3C
0E3C
0E3C
0E3C
1E3C
1E3C
3C3C
3C3C
FFFF
FFFF
FFFF
F007
F007
F007
F007
F007
ENDCHAR
STARTCHAR 0435
ENCODING 1077
SWIDTH 560 0
DWIDTH 14 0
BBX 13 14 1 0
BITMAP
0F80
3FE0
7FF0
78F0
F078
F078
FFF8
FFF8
F000
F000
7800
7FF0
3FF0
1FE0
ENDCHAR
STARTCHAR 0436
ENCODING 1078
SWIDTH 840 0
DWIDTH 21 0
BBX 21 14 0 0
BITMAP
707878
787870
3C78F0
1E79E0
0E7BC0
0F7B80
07FF80
07FF80
0F7BC0
1E7BC0
1E79E0
3C78F0
787878
F07878
ENDCHAR
STARTCHAR 0437
ENCODING 1079
SWIDTH 520 0
DWIDTH 13 0
BBX 12 14 1 0
BITMAP
3F80
FFE0
7FE0
40F0
00E0
07E0
1F80
1FE0
01F0
00F0
00F0
FFF0
FFE0
FF80
ENDCHAR
STARTCHAR 0438
ENCODING 1080
SWIDTH 720 0
DWIDTH 18 0
BBX 14 14 2 0
BITMAP
F07C
F07C
F0FC
F1FC
F1FC
F3DC
F39C
E7BC
EF3C
EE3C
FE3C
FC3C
F83C
F83C
ENDCHAR
STARTCHAR 0439
ENCODING 1081
SWIDTH 720 0
DWIDTH 18 0
BBX 14 20 2 0
BITMAP
7838
7878
3CF0
3FF0
0FC0
0000
F07C
F07C
F0FC
F1FC
F1FC
F3DC
F39C
E7BC
EF3C
EE3C
FE3C
FC3C
F83C
F83C
ENDCHAR
STARTCHAR 043A
ENCODING 1082
SWIDTH 600 0
DWIDTH 15 0
BBX 13 14 2 0
BITMAP
F078
F0F0
F1E0
F3C0
F3C0
F780
FF00
FF00
F780
F3C0
F3E0
F1E0
F0F0
F078
ENDCHAR
STARTCHAR 043B
ENCODING 1083
SWIDTH 640 0
DWIDTH 16 0
BBX 14 14 0 0
BITMAP
0FFC
0FFC
0FFC
0E3C
1E3C
1E3C
1E3C
1E3C
1C3C
1C3C
3C3C
FC3C
F83C
F03C
ENDCHAR
STARTCHAR 043C
ENCODING 1084
SWIDTH 840 0
DWIDTH 21 0
BBX 17 14 2 0
BITMAP
F80F80
FC0F80
FC1F80
FC1F80
EE1B80
EE3B80
EE3B80
E77380
E77380
E3F380
E3E380
E3E380
E1E380
E1C380
ENDCHAR
STARTCHAR 043D
ENCODING 1085
SWIDTH 640 0
DWIDTH 16 0
BBX 13 14 2 0
BITMAP
F078
F078
F078
F078
F078
F078
FFF8
FFF8
F078
F078
F078
F078
F078
F078
ENDCHAR
STARTCHAR 043E
ENCODING 1086
SWIDTH 600 0
DWIDTH 15 0
BBX 13 14 1 0
BITMAP
0F80
3FE0
7FF0
78F8
F078
F078
F038
F038
F078
F078
7878
7FF0
3FE0
1FC0
ENDCHAR
STARTCHAR 043F
ENCODING 1087
SWIDTH 640 0
DWIDTH 16 0
BBX 12 14 2 0
BITMAP
FFF0
FFF0
FFF0
F070
F070
F070
F070
F070
F070
F070
F070
F070
F070
F070
ENDCHAR
STARTCHAR 0440
ENCODING 1088
SWIDTH 600 0
DWIDTH 15 0
BBX 13 20 2 -6
BITMAP
E380
EFE0
FFF0
F8F0
F0F0
F078
F078
F078
F078
F078
F8F0
FFF0
FFE0
F7C0
F000
F000
F000
F000
F000
F000
ENDCHAR
STARTCHAR 0441
ENCODING 1089
SWIDTH 480 0
DWIDTH 12 0
BBX 11 14 1 0
BITMAP
0FC0
3FE0
7FE0
7840
F000
F000
F000
F000
F000
F000
7820
7FE0
3FE0
1FC0
ENDCHAR
STARTCHAR 0442
ENCODING 1090
SWIDTH 520 0
DWIDTH 13 0
BBX 12 14 1 0
BITMAP
FFF0
FFF0
FFF0
0F00
0F00
0F00
0F00
0F00
0F00
0F00
0F00
0F00
0F00
0F00
ENDCHAR
STARTCHAR 0443
ENCODING 1091
SWIDTH 560 0
DWIDTH 14 0
BBX 14 20 0 -6
BITMAP
F03C
F03C
7838
7878
3878
3C70
3CF0
1CF0
1EE0
0FE0
0FC0
0FC0
07C0
0780
0780
0780
0F00
7F00
7E00
7800
ENDCHAR
STARTCHAR 0444
ENCODING 1092
SWIDTH 800 0
DWIDTH 20 0
BBX 18 25 1 -6
BITMAP
01E000
01E000
01E000
01E000
01E000
03F800
1FFE00
3FFF00
7DEF80
79E3C0
F1E3C0
F1E3C0
F1E3C0
F1E3C0
F9E3C0
79E780
3FFF80
1FFF00
07FC00
01E000
01E000
01E000
01E000
01E000
01E000
ENDCHAR
STARTCHAR 0445
ENCODING 1093
SWIDTH 560 0
DWIDTH 14 0
BBX 14 14 0 0
BITMAP
F83C
7878
3C78
3EF0
1FE0
0FE0
0FC0
0FC0
0FE0
1FE0
3EF0
3C78
7878
F83C
ENDCHAR
STARTCHAR 0446
ENCODING 1094
SWIDTH 680 0
DWIDTH 17 0
BBX 15 19 2 -5
BITMAP
F078
F078
F078
F078
F078
F078
F078
F078
F078
F078
F078
FFFE
FFFE
FFFE
001E
001E
001E
001E
001E
ENDCHAR
STARTCHAR 0447
ENCODING 1095
SWIDTH 640 0
DWIDTH 16 0
BBX 13 14 1 0
BITMAP
F038
F038
F038
F038
F038
F038
7878
7FF8
3FF8
1E38
0038
0038
0038
0038
ENDCHAR
STARTCHAR 0448
ENCODING 1096
SWIDTH 960 0
DWIDTH 24 0
BBX 20 14 2 0
BITMAP
F0F070
F0F070
F0F070
F0F070
F0F070
F0F070
F0F070
F0F070
F0F070
F0F070
F0F070
FFFFF0
FFFFF0
FFFFF0
ENDCHAR
STARTCHAR 0449
ENCODING 1097
SWIDTH 960 0
DWIDTH 24 0
BBX 22 19 2 -5
BITMAP
F0F070
F0F070
F0F070
F0F070
F0F070
F0F070
F0F070
F0F070
F0F070
F0F070
F0F070
FFFFFC
FFFFFC
FFFFFC
00001C
00001C
00001C
00001C
00001C
ENDCHAR
STARTCHAR 044A
ENCODING 1098
SWIDTH 680 0
DWIDTH 17 0
BBX 17 14 0 0
BITMAP
FF0000
FF0000
FF0000
0F0000
0F0000
0F0000
0FFE00
0FFF00
0F0F80
0F0780
0F0780
0FFF00
0FFF00
0FFC00
ENDCHAR
STARTCHAR 044B
ENCODING 1099
SWIDTH 840 0
DWIDTH 21 0
BBX 17 14 2 0
BITMAP
F00380
F00380
F00380
F00380
F00380
F00380
FFC380
FFE380
F1E380
F0F380
F0F380
FFE380
FFE380
FF8380
ENDCHAR
STARTCHAR 044C
ENCODING 1100
SWIDTH 600 0
DWIDTH 15 0
BBX 12 14 2 0
BITMAP
F000
F000
F000
F000
F000
F000
FFE0
FFF0
F0F0
F070
F070
FFF0
FFE0
FFC0
ENDCHAR
STARTCHAR 044D
ENCODING 1101
SWIDTH 480 0
DWIDTH 12 0
BBX 11 14 1 0
BITMAP
3E00
FF80
7FC0
03C0
01C0
01E0
3FE0
3FE0
01E0
01C0
03C0
FFC0
FF80
FF00
ENDCHAR
STARTCHAR 044E
ENCODING 1102
SWIDTH 840 0
DWIDTH 21 0
BBX 19 14 2 0
BITMAP
F03E00
F0FF80
F1FF80
F1E3C0
F3C1C0
F3C1E0
FFC1E0
FFC1E0
F3C1E0
F3C1E0
F1E3C0
F1FFC0
F0FF80
F07F00
ENDCHAR
STARTCHAR 044F
ENCODING 1103
SWIDTH 560 0
DWIDTH 14 0
BBX 13 14 0 0
BITMAP
07F8
3FF8
3FF8
7878
7878
7878
7FF8
3FF8
1FF8
1E78
3C78
3C78
7878
F078
ENDCHAR
STARTCHAR 0450
ENCODING 1104
SWIDTH 560 0
DWIDTH 14 0
BBX 13 19 1 0
BITMAP
3C00
1E00
0F00
0380
0000
0F80
3FE0
7FF0
78F0
F078
F078
FFF8
FFF8
F000
F000
7800
7FF0
3FF0
1FE0
ENDCHAR
STARTCHAR 0451
ENCODING 1105
SWIDTH 560 0
DWIDTH 14 0
BBX 13 19 1 0
BITMAP
18C0
3DE0
3DC0
0000
0000
0F80
3FE0
7FF0
78F0
F078
F078
FFF8
FFF8
F000
F000
7800
7FF0
3FF0
1FE0
ENDCHAR
STARTCHAR 0452
ENCODING 1106
SWIDTH 640 0
DWIDTH 16 0
BBX 15 25 0 -6
BITMAP
3C00
3C00
FFC0
FFC0
3C00
3C00
3DF0
3FFC
3FFC
3E3C
3C1E
3C1E
3C1E
3C1E
3C1E
3C1E
3C1E
3C1E
3C1E
001E
001E
003C
00FC
00FC
00F0
ENDCHAR
STARTCHAR 0453
ENCODING 1107
SWIDTH 440 0
DWIDTH 11 0
BBX 9 19 2 0
BITMAP
0780
0F00
1E00
1C00
0000
FF80
FF80
FF80
F000
F000
F000
F000
F000
F000
F000
F000
F000
F000
F000
ENDCHAR
STARTCHAR 0454
ENCODING 1108
SWIDTH 520 0
DWIDTH 13 0
BBX 11 14 1 0
BITMAP
0FC0
3FE0
7FE0
7800
F000
F000
FF80
FF80
F000
F000
7800
7FE0
3FE0
1FE0
ENDCHAR
STARTCHAR 0455
ENCODING 1109
SWIDTH 480 0
DWIDTH 12 0
BBX 10 14 1 0
BITMAP
1F80
7FC0
FFC0
F080
F000
FC00
7F00
3FC0
0FC0
03C0
01C0
FFC0
FFC0
FF00
ENDCHAR
STARTCHAR 0456
ENCODING 1110
SWIDTH 280 0
DWIDTH 7 0
BBX 4 19 2 0
BITMAP
E0
F0
F0
40
00
F0
F0
F0
F0
F0
F0
F0
F0
F0
F0
F0
F0
F0
F0
ENDCHAR
STARTCHAR 0457
ENCODING 1111
SWIDTH 280 0
DWIDTH 7 0
BBX 8 19 0 0
BITMAP
C6
E7
E7
00
00
3C
3C
3C
3C
3C
3C
3C
3C
3C
3C
3C
3C
3C
3C
ENDCHAR
STARTCHAR 0458
ENCODING 1112
SWIDTH 280 0
DWIDTH 7 0
BBX 8 25 -2 -6
BITMAP
0E
0F
0F
04
00
0F
0F
0F
0F
0F
0F
0F
0F
0F
0F
0F
0F
0F
0F
0F
0F
1F
FE
FE
F8
ENDCHAR
STARTCHAR 0459
ENCODING 1113
SWIDTH 880 0
DWIDTH 22 0
BBX 21 14 0 0
BITMAP
0FFC00
0FFC00
0FFC00
0E3C00
1E3C00
1E3C00
1E3FF0
1E3FF8
1C3C78
1C3C38
3C3C78
FC3FF8
F83FF0
F03FE0
ENDCHAR
STARTCHAR 045A
ENCODING 1114
SWIDTH 880 0
DWIDTH 22 0
BBX 19 14 2 0
BITMAP
F0F000
F0F000
F0F000
F0F000
F0F000
F0F000
FFFFC0
FFFFE0
F0F1E0
F0F0E0
F0F1E0
F0FFE0
F0FFC0
F0FF80
ENDCHAR
STARTCHAR 045B
ENCODING 1115
SWIDTH 640 0
DWIDTH 16 0
BBX 15 19 0 0
BITMAP
3C00
3C00
FFC0
FFC0
3C00
3C00
3DF0
3FFC
3FFC
3E3C
3C1E
3C1E
3C1E
3C1E
3C1E
3C1E
3C1E
3C1E
3C1E
ENDCHAR
STARTCHAR 045C
ENCODING 1116
SWIDTH 600 0
DWIDTH 15 0
BBX 13 19 2 0
BITMAP
03E0
0380
0700
0E00
0000
F078
F0F0
F1E0
F3C0
F3C0
F780
FF00
FF00
F780
F3C0
F3E0
F1E0
F0F0
F078
ENDCHAR
STARTCHAR 045D
ENCODING 1117
SWIDTH 720 0
DWIDTH 18 0
BBX 14 19 2 0
BITMAP
1E00
0F00
0700
0380
0000
F07C
F07C
F0FC
F1FC
F1FC
F3DC
F39C
E7BC
EF3C
EE3C
FE3C
FC3C
F83C
F83C
ENDCHAR
STARTCHAR 045E
ENCODING 1118
SWIDTH 560 0
DWIDTH 14 0
BBX 14 26 0 -6
BITMAP
7838
7838
3CF8
3FF0
0FC0
0000
F03C
F03C
7838
7878
3878
3C70
3CF0
1CF0
1EE0
0FE0
0FC0
0FC0
07C0
0780
0780
0780
0F00
7F00
7E00
7800
ENDCHAR
STARTCHAR 045F
ENCODING 1119
SWIDTH 640 0
DWIDTH 16 0
BBX 13 19 2 -5
BITMAP
F078
F078
F078
F078
F078
F078
F078
F078
F078
F078
F078
FFF8
FFF8
FFF8
0700
0700
0700
0700
0700
ENDCHAR
STARTCHAR 0460
ENCODING 1120
SWIDTH 920 0
DWIDTH 23 0
BBX 22 18 1 0
BITMAP
E0783C
F0783C
F0783C
F0783C
F0783C
F0783C
F0783C
F07C3C
78FC38
78FC78
78FC78
3DDE78
3DDE70
3DCEF0
1FCFF0
1F87E0
0F87C0
0783C0
ENDCHAR
STARTCHAR 0461
ENCODING 1121
SWIDTH 880 0
DWIDTH 22 0
BBX 21 14 0 0
BITMAP
F07878
707878
707878
787878
787878
783870
787C70
387CF0
3CFCE0
1DFCE0
1FCFE0
0FCFC0
0F87C0
078780
ENDCHAR
STARTCHAR 0462
ENCODING 1122
SWIDTH 640 0
DWIDTH 16 0
BBX 16 18 0 0
BITMAP
1E00
1E00
FFF0
FFF0
FFF0
1E00
1E00
1FF0
1FFC
1FFE
1E1E
1E0F
1E0F
1E0F
1E3E
1FFE
1FFC
1FF0
ENDCHAR
STARTCHAR 0463
ENCODING 1123
SWIDTH 640 0
DWIDTH 16 0
BBX 16 16 0 0
BITMAP
1E00
1E00
FFE0
FFE0
FFE0
1E00
1E00
1E00
1FFC
1FFE
1E1F
1E0F
1E0F
1FFE
1FFE
1FF8
ENDCHAR
STARTCHAR 0464
ENCODING 1124
SWIDTH 920 0
DWIDTH 23 0
BBX 21 18 2 0
BITMAP
F00FE0
F03FF8
F07FF0
F0F830
F1F000
F1E000
F1E000
FFFFC0
FFFFC0
FFFFC0
F1E000
F1E000
F1E000
F1F000
F0F810
F0FFF0
F07FF0
F01FF0
ENDCHAR
STARTCHAR 0465
ENCODING 1125
SWIDTH 800 0
DWIDTH 20 0
BBX 17 14 2 0
BITMAP
F03E00
F0FF80
F1FF00
F1E000
F1C000
F3C000
FFFE00
FFFE00
F3C000
F1C000
F1E000
F1FF80
F0FF80
F07F80
ENDCHAR
STARTCHAR 0466
ENCODING 1126
SWIDTH 720 0
DWIDTH 18 0
BBX 18 18 0 0
BITMAP
01F000
03F000
03F000
07B800
073800
073800
0F1C00
0FFC00
0FFE00
1FFE00
1DEE00
3DEF00
3DE700
39E780
79E780
79E380
71E3C0
F1E3C0
ENDCHAR
STARTCHAR 0467
ENCODING 1127
SWIDTH 640 0
DWIDTH 16 0
BBX 16 14 0 0
BITMAP
03C0
07E0
07E0
0FF0
0E70
0E70
1FF8
1FF8
3FFC
3BDC
7BDE
73CE
73CE
F3CF
ENDCHAR
STARTCHAR 0468
ENCODING 1128
SWIDTH 1000 0
DWIDTH 25 0
BBX 23 18 2 0
BITMAP
F00F00
F01F80
F01F80
F03FC0
F039C0
F039C0
F070E0
FFFFE0
FFFFF0
FFFFF0
F0EF70
F1EF78
F1CF38
F1CF38
F3CF3C
F38F1C
F78F1E
F78F1E
ENDCHAR
STARTCHAR 0469
ENCODING 1129
SWIDTH 880 0
DWIDTH 22 0
BBX 20 14 2 0
BITMAP
E03E00
E03E00
E07F00
E07700
E07780
E0E380
FFFF80
FFFFC0
E1DDC0
E3DDE0
E39CE0
E39CE0
E79CF0
E71C70
ENDCHAR
STARTCHAR 046A
ENCODING 1130
SWIDTH 800 0
DWIDTH 20 0
BBX 18 18 1 0
BITMAP
7FFF80
7FFF80
3FFF80
3C0F00
1E1E00
0F3C00
07B800
03F000
0FFC00
1FFE00
3FFF00
3DEF00
79E780
79E780
71E380
F1E3C0
F1E3C0
E1E1C0
ENDCHAR
STARTCHAR 046B
ENCODING 1131
SWIDTH 600 0
DWIDTH 15 0
BBX 15 14 0 0
BITMAP
7FFC
7FFC
3FFC
1C78
0E70
0FE0
0FF0
1FF8
3FF8
3B9C
7B9C
739C
738E
F38E
ENDCHAR
STARTCHAR 046C
ENCODING 1132
SWIDTH 1040 0
DWIDTH 26 0
BBX 24 18 2 0
BITMAP
F1FFFE
F1FFFE
F1FFFC
F0F038
F07878
F038F0
F01DE0
FFFFC0
FFFFF0
FFFFF8
F0FFFC
F1E7BC
F1E79C
F1C79E
F3C79E
F3C78E
F3C78F
F7878F
ENDCHAR
STARTCHAR 046D
ENCODING 1133
SWIDTH 880 0
DWIDTH 22 0
BBX 20 14 2 0
BITMAP
E3FFE0
E3FFE0
E3FFC0
E1E380
E0E780
E07F00
FFFF00
FFFF80
E1FFC0
E39DC0
E39DE0
E39CE0
E71CE0
E71CF0
ENDCHAR
STARTCHAR 046E
ENCODING 1134
SWIDTH 600 0
DWIDTH 15 0
BBX 15 27 0 -6
BITMAP
0018
1C78
0EE0
07C0
1FE0
7FF8
7FFC
303C
003C
003C
003C
0FF8
0FE0
0FF8
00FC
001C
001E
001E
003C
0FFC
3FF8
7FE0
7800
F000
7FF0
7FF0
3FF0
ENDCHAR
STARTCHAR 046F
ENCODING 1135
SWIDTH 520 0
DWIDTH 13 0
BBX 13 22 0 -6
BITMAP
3030
1CF0
1FC0
1FC0
7FF0
3FF0
2078
0070
03F0
0FE0
0FF0
00F8
0078
0078
0FF8
3FF0
7FE0
F000
F000
FFC0
7FE0
3FE0
ENDCHAR
STARTCHAR 0470
ENCODING 1136
SWIDTH 840 0
DWIDTH 21 0
BBX 20 18 1 0
BITMAP
F0F0F0
F0F0F0
F0F0F0
F0F0F0
F0F0F0
F0F0F0
F0F0F0
F0F0E0
78F1E0
7EF7E0
3FFFC0
1FFF80
05F800
00F000
00F000
00F000
00F000
00F000
ENDCHAR
STARTCHAR 0471
ENCODING 1137
SWIDTH 800 0
DWIDTH 20 0
BBX 18 25 2 -6
BITMAP
01C000
01C000
01C000
01C000
01C000
E1C780
E1C780
E1C380
E1C380
E1C380
E1C3C0
E1C3C0
E1C3C0
E1C3C0
F1C380
F1C780
7FFF00
3FFE00
1FFC00
01C000
01C000
01C000
01C000
01C000
01C000
ENDCHAR
STARTCHAR 0472
ENCODING 1138
SWIDTH 760 0
DWIDTH 19 0
BBX 17 18 1 0
BITMAP
07F800
1FFC00
3FFE00
3E1F00
7C0F80
780780
780780
7FFF80
FFFF80
FFFF80
700780
780780
780780
780F80
3E1F00
3FFF00
1FFE00
07F800
ENDCHAR
STARTCHAR 0473
ENCODING 1139
SWIDTH 600 0
DWIDTH 15 0
BBX 13 14 1 0
BITMAP
0F80
3FE0
7FF0
78F8
F078
F078
FFF8
FFF8
F078
F078
7878
7FF0
3FE0
1FC0
ENDCHAR
STARTCHAR 0474
ENCODING 1140
SWIDTH 680 0
DWIDTH 17 0
BBX 18 18 0 0
BITMAP
F003C0
F007C0
780FC0
780F00
781E00
3C1E00
3C1C00
3C3C00
1C3C00
1E3800
0E7800
0E7000
0F7000
07F000
07E000
07E000
03E000
03C000
ENDCHAR
STARTCHAR 0475
ENCODING 1141
SWIDTH 600 0
DWIDTH 15 0
BBX 15 14 0 0
BITMAP
F00E
F03E
783E
7878
3878
3C70
3CF0
1CF0
1EE0
0FE0
0FC0
0FC0
07C0
0780
ENDCHAR
STARTCHAR 0476
ENCODING 1142
SWIDTH 680 0
DWIDTH 17 0
BBX 18 23 0 0
BITMAP
3DE000
1CE000
0E7000
063000
000000
F003C0
F007C0
780FC0
780F00
781E00
3C1E00
3C1C00
3C3C00
1C3C00
1E3800
0E7800
0E7000
0F7000
07F000
07E000
07E000
03E000
03C000
ENDCHAR
STARTCHAR 0477
ENCODING 1143
SWIDTH 600 0
DWIDTH 15 0
BBX 15 19 0 0
BITMAP
7BC0
39C0
1CE0
0C60
0000
F00E
F03E
783E
7878
3878
3C70
3CF0
1CF0
1EE0
0FE0
0FC0
0FC0
07C0
0780
ENDCHAR
STARTCHAR 0478
ENCODING 1144
SWIDTH 1280 0
DWIDTH 32 0
BBX 32 24 1 -6
BITMAP
07F00000
1FFC0000
3FFE0000
3C1E0000
780F3C0F
780F3C0F
780F1E1E
F00F1E1E
F0071E1C
F0070F3C
F00F0F3C
780F0738
780F07F8
780F07F8
3C1E03F0
3FFE03F0
1FFC01E0
07F001E0
000001E0
000001C0
000003C0
00001F80
00001F00
00001E00
ENDCHAR
STARTCHAR 0479
ENCODING 1145
SWIDTH 1160 0
DWIDTH 29 0
BBX 28 20 1 -6
BITMAP
0F83C0F0
3FE3C0F0
7FF1E1E0
78F9E1E0
F078E1E0
F078F1C0
F038F3C0
F03873C0
F0787B80
F0783F80
78783F00
7FF03F00
3FE01F00
1FC01E00
00001E00
00001E00
00003C00
0001FC00
0001F800
0001E000
ENDCHAR
STARTCHAR 047A
ENCODING 1146
SWIDTH 800 0
DWIDTH 20 0
BBX 18 21 1 -2
BITMAP
00E000
03F800
0FFE00
3FFF00
3EEF80
7C07C0
7803C0
7803C0
7003C0
F001C0
F001C0
7003C0
7803C0
7803C0
7C07C0
3EEF80
3FFF00
1FFE00
07FC00
00E000
004000
ENDCHAR
STARTCHAR 047B
ENCODING 1147
SWIDTH 640 0
DWIDTH 16 0
BBX 15 16 1 -1
BITMAP
0300
07C0
1FF0
3FF8
7BBC
F01C
F01E
F01E
F01E
F01E
F01E
7BBC
7FFC
3FF8
0FE0
0380
ENDCHAR
STARTCHAR 047C
ENCODING 1148
SWIDTH 1080 0
DWIDTH 27 0
BBX 25 27 1 0
BITMAP
00380000
00FF0000
00FFC000
00C3C000
001C0000
001C0000
000C0000
001C0000
00100000
0FC1F800
1FE3FC00
3FE1FE00
7C411F00
78000F00
78000700
70000780
F0000780
F0000780
F01C0780
701C0780
781C0780
781C0F00
781C0F00
3E3E1F00
3FFFFE00
1FFFFC00
07E3F800
ENDCHAR
STARTCHAR 047D
ENCODING 1149
SWIDTH 920 0
DWIDTH 23 0
BBX 22 23 1 0
BITMAP
01E000
03FC00
03FE00
030E00
00F000
00F000
003000
00E000
008000
0F87C0
3FCFF0
3F87F0
780078
780078
700038
F00038
F0783C
F07838
787878
787878
7FFFF8
3FFFF0
1FCFE0
ENDCHAR
STARTCHAR 047E
ENCODING 1150
SWIDTH 920 0
DWIDTH 23 0
BBX 22 23 1 0
BITMAP
03FF00
03FF00
013300
011200
000000
E0783C
F0783C
F0783C
F0783C
F0783C
F0783C
F0783C
F07C3C
78FC38
78FC78
78FC78
3DDE78
3DDE70
3DCEF0
1FCFF0
1F87E0
0F87C0
0783C0
ENDCHAR
STARTCHAR 047F
ENCODING 1151
SWIDTH 880 0
DWIDTH 22 0
BBX 21 18 0 0
BITMAP
03FF00
03FE00
022200
000000
F07878
707878
707878
787878
787878
783870
787C70
387CF0
3CFCE0
1DFCE0
1FCFE0
0FCFC0
0F87C0
078780
ENDCHAR
STARTCHAR 0480
ENCODING 1152
SWIDTH 640 0
DWIDTH 16 0
BBX 15 24 1 -6
BITMAP
03F8
0FFE
1FFE
3E0C
7C00
7800
7800
7000
F000
F000
7000
7800
7800
7C00
3E00
3FF8
1FF8
07F8
0078
0078
0078
0078
0078
0078
ENDCHAR
STARTCHAR 0481
ENCODING 1153
SWIDTH 520 0
DWIDTH 13 0
BBX 11 20 1 -6
BITMAP
0FC0
3FE0
7FE0
7840
F000
F000
F000
F000
F000
F000
7800
7FC0
3FC0
1FC0
03C0
03C0
03C0
03C0
03C0
03C0
ENDCHAR
STARTCHAR 0482
ENCODING 1154
SWIDTH 600 0
DWIDTH 15 0
BBX 12 16 2 0
BITMAP
0040
00E0
10C0
1D80
0F80
0380
03E0
0670
8C00
EC00
7800
1E00
3700
7300
6000
4000
ENDCHAR
STARTCHAR 0483
ENCODING 1155
SWIDTH 0 0
DWIDTH 0 0
BBX 10 4 -12 14
BITMAP
01C0
7FC0
FF80
6000
ENDCHAR
STARTCHAR 0484
ENCODING 1156
SWIDTH 0 0
DWIDTH 0 0
BBX 9 4 -11 15
BITMAP
0F00
FF80
FF80
E180
ENDCHAR
STARTCHAR 0485
ENCODING 1157
SWIDTH 0 0
DWIDTH 0 0
BBX 4 5 -9 15
BITMAP
60
F0
E0
60
30
ENDCHAR
STARTCHAR 0486
ENCODING 1158
SWIDTH 0 0
DWIDTH 0 0
BBX 4 5 -9 15
BITMAP
60
F0
70
70
C0
ENDCHAR
STARTCHAR 0488
ENCODING 1160
SWIDTH 960 0
DWIDTH 24 0
BBX 23 21 1 -4
BITMAP
007800
004400
000000
1C0070
260098
000000
000000
000000
000000
F0001C
900022
000000
000000
000000
000000
1C0070
3600D8
220088
000000
007800
004400
ENDCHAR
STARTCHAR 0489
ENCODING 1161
SWIDTH 920 0
DWIDTH 23 0
BBX 23 23 0 -5
BITMAP
000800
001800
001800
081800
0C0038
0600E0
060040
000000
000000
000000
E00018
78001E
080000
000000
000000
000000
020040
070060
1C1820
001830
001800
001000
001000
ENDCHAR
STARTCHAR 048A
ENCODING 1162
SWIDTH 880 0
DWIDTH 22 0
BBX 20 29 2 -5
BITMAP
3C1C00
1C1C00
1F7C00
0FF800
03C000
000000
F00F00
F01F00
F03F00
F03F00
F07F00
F07700
F0F700
F1E700
F1E700
F3C700
F78700
F78700
FF0700
FF0700
FE0700
FC07F0
FC07F0
F807F0
0000E0
0000E0
0001E0
0001E0
0003C0
ENDCHAR
STARTCHAR 048B
ENCODING 1163
SWIDTH 800 0
DWIDTH 20 0
BBX 18 25 2 -5
BITMAP
703800
787800
3CF000
3FF000
0FC000
000000
F07C00
F07C00
F0FC00
F1FC00
F1FC00
F3DC00
F39C00
E7BC00
EF3C00
EE3C00
FE3C00
FC3FC0
F83F80
F83F80
000380
000380
000780
000700
000700
ENDCHAR
STARTCHAR 048C
ENCODING 1164
SWIDTH 600 0
DWIDTH 15 0
BBX 14 18 1 0
BITMAP
7800
7800
FF80
FF80
FF80
7800
7800
7FC0
7FF0
7FF8
7878
783C
783C
783C
7878
7FF8
7FF0
7FC0
ENDCHAR
STARTCHAR 048D
ENCODING 1165
SWIDTH 600 0
DWIDTH 15 0
BBX 14 19 0 0
BITMAP
3C00
3C00
3C00
FFC0
FFC0
3C00
3C00
3C00
3C00
3C00
3C00
3FF8
3FFC
3C3C
3C1C
3C1C
3FFC
3FF8
3FF0
ENDCHAR
STARTCHAR 048E
ENCODING 1166
SWIDTH 600 0
DWIDTH 15 0
BBX 13 18 2 0
BITMAP
FF80
FFE0
FFF0
F1F0
F0F0
F078
F278
F7F0
F3F0
FFE0
FFC0
FEE0
F060
F000
F000
F000
F000
F000
ENDCHAR
STARTCHAR 048F
ENCODING 1167
SWIDTH 600 0
DWIDTH 15 0
BBX 13 20 2 -6
BITMAP
E380
EFE0
FFF0
F8F0
F0F0
F078
F078
F078
F378
F7F0
FBF0
FFF0
FFE0
F7E0
F070
F000
F000
F000
F000
F000
ENDCHAR
STARTCHAR 0490
ENCODING 1168
SWIDTH 560 0
DWIDTH 14 0
BBX 12 22 2 0
BITMAP
0070
0070
0070
0070
FFF0
FFF0
FFF0
F000
F000
F000
F000
F000
F000
F000
F000
F000
F000
F000
F000
F000
F000
F000
ENDCHAR
STARTCHAR 0491
ENCODING 1169
SWIDTH 480 0
DWIDTH 12 0
BBX 10 17 2 0
BITMAP
01C0
01C0
01C0
FFC0
FFC0
FFC0
F000
F000
F000
F000
F000
F000
F000
F000
F000
F000
F000
ENDCHAR
STARTCHAR 0492
ENCODING 1170
SWIDTH 520 0
DWIDTH 13 0
BBX 12 18 1 0
BITMAP
7FF0
7FF0
7FF0
7800
7800
7800
7800
7800
FFC0
FFC0
FFC0
7800
7800
7800
7800
7800
7800
7800
ENDCHAR
STARTCHAR 0493
ENCODING 1171
SWIDTH 480 0
DWIDTH 12 0
BBX 12 14 0 0
BITMAP
3FF0
3FF0
3FF0
3800
3800
3800
FFC0
FFC0
FFC0
3800
3800
3800
3800
3800
ENDCHAR
STARTCHAR 0494
ENCODING 1172
SWIDTH 720 0
DWIDTH 18 0
BBX 15 24 2 -6
BITMAP
FFE0
FFE0
FFE0
F000
F000
F000
F000
F000
FFC0
FFF0
FFF8
F9FC
F03C
F01E
F01E
F01E
F01E
F01E
001E
001E
007C
07FC
07F8
07E0
ENDCHAR
STARTCHAR 0495
ENCODING 1173
SWIDTH 600 0
DWIDTH 15 0
BBX 12 20 2 -6
BITMAP
FFC0
FFC0
FFC0
F000
F000
F000
FF00
FFC0
FFE0
F7E0
F0F0
F0F0
F070
F070
00F0
00F0
11F0
1FE0
1FC0
1F80
ENDCHAR
STARTCHAR 0496
ENCODING 1174
SWIDTH 1000 0
DWIDTH 25 0
BBX 25 23 0 -5
BITMAP
703C1E00
783C3C00
3C3C3C00
1C3C7800
1E3CF000
0F3CF000
073DE000
07BFC000
03FF8000
03FFC000
07BDC000
0F3DE000
0F3CF000
1E3C7800
3C3C7800
3C3C3F80
783C1F80
F03C1F80
00000380
00000380
00000380
00000380
00000380
ENDCHAR
STARTCHAR 0497
ENCODING 1175
SWIDTH 920 0
DWIDTH 23 0
BBX 23 19 0 -5
BITMAP
707878
787870
3C78F0
1E79E0
0E7BC0
0F7B80
07FF80
07FF80
0F7BC0
1E7BC0
1E79E0
3C78FE
78787E
F0787E
00000E
00000E
00000E
00000E
00000E
ENDCHAR
STARTCHAR 0498
ENCODING 1176
SWIDTH 640 0
DWIDTH 16 0
BBX 14 24 1 -6
BITMAP
1FE0
7FF0
7FF8
7078
003C
0038
0078
1FF0
1F80
1FF0
00F8
003C
003C
003C
807C
FFF8
FFF8
7FE0
0700
0380
0180
0380
0F80
0F00
ENDCHAR
STARTCHAR 0499
ENCODING 1177
SWIDTH 520 0
DWIDTH 13 0
BBX 12 20 1 -6
BITMAP
3F80
FFE0
7FE0
40F0
00E0
07E0
1F80
1FE0
01F0
00F0
00F0
FFF0
FFE0
FF80
0C00
0600
0700
0700
1F00
1E00
ENDCHAR
STARTCHAR 049A
ENCODING 1178
SWIDTH 720 0
DWIDTH 18 0
BBX 16 23 2 -5
BITMAP
F03C
F078
F078
F0F0
F1E0
F3C0
F3C0
F780
FF00
FF80
F780
F3C0
F1E0
F1E0
F0F0
F07F
F07F
F03F
0007
0007
0007
0007
0007
ENDCHAR
STARTCHAR 049B
ENCODING 1179
SWIDTH 640 0
DWIDTH 16 0
BBX 14 19 2 -5
BITMAP
F078
F0F0
F1E0
F3C0
F3C0
F780
FF00
FF00
F780
F3C0
F3E0
F1FC
F0FC
F07C
001C
001C
001C
001C
001C
ENDCHAR
STARTCHAR 049C
ENCODING 1180
SWIDTH 640 0
DWIDTH 16 0
BBX 14 18 2 0
BITMAP
F03C
F078
F278
F2F0
F3E0
F3C0
F3C0
F780
FF00
FF80
F780
F3C0
F3E0
F3E0
F2F0
F278
F07C
F03C
ENDCHAR
STARTCHAR 049D
ENCODING 1181
SWIDTH 600 0
DWIDTH 15 0
BBX 13 14 2 0
BITMAP
F078
F0F0
F5E0
F7C0
F7C0
F780
FF00
FF00
F780
F7C0
F7E0
F5E0
F4F0
F078
ENDCHAR
STARTCHAR 049E
ENCODING 1182
SWIDTH 640 0
DWIDTH 16 0
BBX 15 18 1 0
BITMAP
781E
783C
FE78
FEF0
FEF0
79E0
7BC0
7F80
7F80
7F80
7BC0
7BE0
79E0
78F0
78F8
7878
783C
781E
ENDCHAR
STARTCHAR 049F
ENCODING 1183
SWIDTH 600 0
DWIDTH 15 0
BBX 15 19 0 0
BITMAP
3C00
3C00
FFC0
FFC0
3C00
3C1E
3C3C
3C78
3CF0
3CF0
3DE0
3FC0
3FC0
3DE0
3CF0
3CF8
3C78
3C3C
3C1E
ENDCHAR
STARTCHAR 04A0
ENCODING 1184
SWIDTH 720 0
DWIDTH 18 0
BBX 18 18 0 0
BITMAP
FF03C0
FF0780
FF0F00
0F0F00
0F1E00
0F3C00
0F7800
0F7800
0FF000
0FF000
0F7800
0F3C00
0F3C00
0F1E00
0F0F00
0F0F80
0F0780
0F03C0
ENDCHAR
STARTCHAR 04A1
ENCODING 1185
SWIDTH 680 0
DWIDTH 17 0
BBX 17 14 0 0
BITMAP
FF0780
FF0F00
FF1E00
0F1C00
0F3800
0F7800
0FF000
0FF000
0F7800
0F3C00
0F1C00
0F1E00
0F0F00
0F0780
ENDCHAR
STARTCHAR 04A2
ENCODING 1186
SWIDTH 840 0
DWIDTH 21 0
BBX 19 23 2 -5
BITMAP
F01E00
F01E00
F01E00
F01E00
F01E00
F01E00
F01E00
FFFE00
FFFE00
FFFE00
F01E00
F01E00
F01E00
F01E00
F01E00
F01FE0
F01FE0
F01FE0
0001E0
0001E0
0001E0
0001E0
0001E0
ENDCHAR
STARTCHAR 04A3
ENCODING 1187
SWIDTH 720 0
DWIDTH 18 0
BBX 16 19 2 -5
BITMAP
F078
F078
F078
F078
F078
F078
FFF8
FFF8
F078
F078
F078
F07F
F07F
F07F
0007
0007
0007
0007
0007
ENDCHAR
STARTCHAR 04A4
ENCODING 1188
SWIDTH 800 0
DWIDTH 20 0
BBX 19 18 2 0
BITMAP
F01FE0
F01FE0
F01FE0
F01E00
F01E00
F01E00
F01E00
FFFE00
FFFE00
FFFE00
F01E00
F01E00
F01E00
F01E00
F01E00
F01E00
F01E00
F01E00
ENDCHAR
STARTCHAR 04A5
ENCODING 1189
SWIDTH 720 0
DWIDTH 18 0
BBX 17 14 2 0
BITMAP
F07F80
F07F80
F07F80
F07800
F07800
F07800
FFF800
FFF800
F07800
F07800
F07800
F07800
F07800
F07800
ENDCHAR
STARTCHAR 04A6
ENCODING 1190
SWIDTH 1120 0
DWIDTH 28 0
BBX 25 24 2 -6
BITMAP
FFFC0000
FFFC0000
FFFC0000
F03C0000
F03C0000
F03C0000
F03C0000
F03C0000
F03FF000
F03FFC00
F03FFE00
F03EFF00
F03C0F00
F03C0780
F03C0780
F03C0780
F03C0780
F03C0780
00000780
00000F00
00021F00
0003FE00
0003FE00
0003F800
ENDCHAR
STARTCHAR 04A7
ENCODING 1191
SWIDTH 880 0
DWIDTH 22 0
BBX 19 20 2 -6
BITMAP
FFF000
FFF000
FFF000
F0F000
F0F000
F0F000
F0FE00
F0FF80
F0FFC0
F0F7E0
F0F1E0
F0F0E0
F0F0E0
F0F0E0
0000E0
0001E0
0023E0
003FC0
003FC0
003F00
ENDCHAR
STARTCHAR 04A8
ENCODING 1192
SWIDTH 760 0
DWIDTH 19 0
BBX 18 19 1 -1
BITMAP
07E000
1FE000
3FE000
3C0000
783C00
787F00
78FF00
70E780
F0E380
F0E380
F0E380
78E380
78E780
78F700
3E7F00
3FFE00
1FFFC0
07FFC0
0007C0
ENDCHAR
STARTCHAR 04A9
ENCODING 1193
SWIDTH 640 0
DWIDTH 16 0
BBX 15 15 1 -1
BITMAP
0F80
3F80
7F80
7800
F1F8
F1FC
F39C
F39C
F39C
F39C
79FC
7FF8
3FFE
1FFE
001E
ENDCHAR
STARTCHAR 04AA
ENCODING 1194
SWIDTH 600 0
DWIDTH 15 0
BBX 14 24 1 -6
BITMAP
07F0
0FFC
1FFC
3E18
7C00
7800
7800
7000
F000
F000
7000
7800
7800
7800
3C08
3FF8
1FF8
07F8
0180
00C0
00E0
00E0
03E0
03C0
ENDCHAR
STARTCHAR 04AB
ENCODING 1195
SWIDTH 480 0
DWIDTH 12 0
BBX 11 20 1 -6
BITMAP
0FC0
3FE0
7FE0
7840
F000
F000
F000
F000
F000
F000
7820
7FE0
3FE0
1FC0
0700
0380
0180
0380
0F80
0F00
ENDCHAR
STARTCHAR 04AC
ENCODING 1196
SWIDTH 560 0
DWIDTH 14 0
BBX 14 23 0 -5
BITMAP
FFFC
FFFC
FFFC
0780
0780
0780
0780
0780
0780
0780
0780
0780
0780
0780
0780
07F8
07F8
07F8
0078
0078
0078
0078
0078
ENDCHAR
STARTCHAR 04AD
ENCODING 1197
SWIDTH 520 0
DWIDTH 13 0
BBX 12 19 1 -5
BITMAP
FFF0
FFF0
FFF0
0F00
0F00
0F00
0F00
0F00
0F00
0F00
0F00
0FE0
0FE0
0FE0
00E0
00E0
00E0
00E0
00E0
ENDCHAR
STARTCHAR 04AE
ENCODING 1198
SWIDTH 600 0
DWIDTH 15 0
BBX 15 18 0 0
BITMAP
F01E
781E
783C
3C3C
3C78
1E78
1EF0
0FF0
0FE0
07E0
03C0
03C0
03C0
03C0
03C0
03C0
03C0
03C0
ENDCHAR
STARTCHAR 04AF
ENCODING 1199
SWIDTH 560 0
DWIDTH 14 0
BBX 14 20 0 -6
BITMAP
F03C
F83C
783C
7878
3C78
3CF0
3CF0
1EF0
1EE0
0FE0
0FC0
0FC0
07C0
0780
0780
0780
0780
0780
0780
0780
ENDCHAR
STARTCHAR 04B0
ENCODING 1200
SWIDTH 600 0
DWIDTH 15 0
BBX 15 18 0 0
BITMAP
F01E
781E
783C
3C3C
3C78
1E78
1EF0
0FF0
0FE0
07E0
03C0
03C0
3FFC
3FFC
3FFC
03C0
03C0
03C0
ENDCHAR
STARTCHAR 04B1
ENCODING 1201
SWIDTH 560 0
DWIDTH 14 0
BBX 14 20 0 -6
BITMAP
F03C
F83C
783C
7878
3C78
3CF0
3CF0
1EF0
1EE0
0FE0
0FC0
0FC0
07C0
0780
3FF8
3FF8
3FF8
0780
0780
0780
ENDCHAR
STARTCHAR 04B2
ENCODING 1202
SWIDTH 720 0
DWIDTH 18 0
BBX 18 23 0 -5
BITMAP
780F00
781E00
3C1E00
1E3C00
1E3C00
0F7800
0FF000
07F000
03E000
07E000
07F000
0FF000
0E7800
1E3C00
3C3C00
3C1FC0
781FC0
F00FC0
0003C0
0003C0
0003C0
0003C0
0003C0
ENDCHAR
STARTCHAR 04B3
ENCODING 1203
SWIDTH 640 0
DWIDTH 16 0
BBX 16 19 0 -5
BITMAP
F83C
7878
3C78
3EF0
1FE0
0FE0
0FC0
0FC0
0FE0
1FE0
3EF0
3C7F
787F
F83F
000F
000F
000F
000F
000F
ENDCHAR
STARTCHAR 04B4
ENCODING 1204
SWIDTH 920 0
DWIDTH 23 0
BBX 23 23 0 -5
BITMAP
FFFDE0
FFFDE0
FFFDE0
0781E0
0781E0
0781E0
0781E0
0781E0
0781E0
0781E0
0781E0
0781E0
0781E0
0781E0
0781E0
07FFFE
07FFFE
07FFFE
00001E
00001E
00001E
00001E
00001E
ENDCHAR
STARTCHAR 04B5
ENCODING 1205
SWIDTH 760 0
DWIDTH 19 0
BBX 18 19 1 -5
BITMAP
FFDE00
FFDE00
FFDE00
1C1E00
1C1E00
1C1E00
1C1E00
1C1E00
1C1E00
1C1E00
1C1E00
1FFFC0
1FFFC0
1FFFC0
0001C0
0001C0
0001C0
0001C0
0001C0
ENDCHAR
STARTCHAR 04B6
ENCODING 1206
SWIDTH 800 0
DWIDTH 20 0
BBX 19 23 1 -5
BITMAP
F01E00
F01E00
F01E00
F01E00
F01E00
F01E00
F01E00
F01E00
F83E00
7FFE00
7FFE00
3FDE00
001E00
001E00
001E00
001FE0
001FE0
001FE0
0001E0
0001E0
0001E0
0001E0
0001E0
ENDCHAR
STARTCHAR 04B7
ENCODING 1207
SWIDTH 720 0
DWIDTH 18 0
BBX 17 19 1 -5
BITMAP
F03800
F03800
F03800
F03800
F03800
F03800
787800
7FF800
3FF800
1E3800
003800
003F80
003F80
003F80
000780
000780
000780
000780
000780
ENDCHAR
STARTCHAR 04B8
ENCODING 1208
SWIDTH 720 0
DWIDTH 18 0
BBX 15 18 1 0
BITMAP
F01E
F01E
F01E
F01E
F01E
F11E
F11E
F11E
F93E
7FFE
7FFE
1FDE
011E
011E
011E
011E
001E
001E
ENDCHAR
STARTCHAR 04B9
ENCODING 1209
SWIDTH 640 0
DWIDTH 16 0
BBX 13 14 1 0
BITMAP
F038
F038
F038
F038
F338
F338
7378
7FF8
3FF8
1F38
0338
0338
0038
0038
ENDCHAR
STARTCHAR 04BA
ENCODING 1210
SWIDTH 720 0
DWIDTH 18 0
BBX 15 18 2 0
BITMAP
F000
F000
F000
F000
F000
F000
F3F0
FFFC
FFFC
FC3E
F01E
F01E
F01E
F01E
F01E
F01E
F01E
F01E
ENDCHAR
STARTCHAR 04BB
ENCODING 1211
SWIDTH 640 0
DWIDTH 16 0
BBX 13 19 2 0
BITMAP
F000
F000
F000
F000
F000
F3C0
FFE0
FFF0
F8F0
F078
F078
F078
F078
F078
F078
F078
F078
F078
F078
ENDCHAR
STARTCHAR 04BC
ENCODING 1212
SWIDTH 920 0
DWIDTH 23 0
BBX 22 18 0 0
BITMAP
003F80
00FFE0
01FFF0
03E0F0
03C078
E78038
E78038
FFFFFC
FFFFFC
7FFFFC
078000
078000
078000
03C008
03E078
01FFF8
00FFF8
003FE0
ENDCHAR
STARTCHAR 04BD
ENCODING 1213
SWIDTH 680 0
DWIDTH 17 0
BBX 17 14 0 0
BITMAP
00F800
03FE00
07FF00
E78700
EF0780
EF0780
FFFF80
7FFF80
0F0000
0F0000
078000
07FF00
03FF00
01FE00
ENDCHAR
STARTCHAR 04BE
ENCODING 1214
SWIDTH 920 0
DWIDTH 23 0
BBX 22 23 0 -5
BITMAP
003F80
00FFE0
01FFF0
03E0F0
03C078
E78038
E78038
FFFFFC
FFFFFC
7FFFFC
078000
078000
078000
03C008
03E078
01FFF8
00FFF8
003FE0
000E00
000E00
000E00
000E00
000E00
ENDCHAR
STARTCHAR 04BF
ENCODING 1215
SWIDTH 680 0
DWIDTH 17 0
BBX 17 19 0 -5
BITMAP
00F800
03FE00
07FF00
E78700
EF0780
EF0780
FFFF80
7FFF80
0F0000
0F0000
078000
07FF00
03FF00
01FF00
007000
007000
007000
007000
007000
ENDCHAR
STARTCHAR 04C0
ENCODING 1216
SWIDTH 320 0
DWIDTH 8 0
BBX 4 18 2 0
BITMAP
F0
F0
F0
F0
F0
F0
F0
F0
F0
F0
F0
F0
F0
F0
F0
F0
F0
F0
ENDCHAR
STARTCHAR 04C1
ENCODING 1217
SWIDTH 920 0
DWIDTH 23 0
BBX 23 24 0 0
BITMAP
0383C0
03C3C0
01FF80
01FF00
003C00
000000
703C1E
783C3C
3C3C3C
1C3C78
1E3CF0
0F3CF0
073DE0
07BFC0
03FF80
03FFC0
07BDC0
0F3DE0
0F3CF0
1E3C78
3C3C78
3C3C3C
783C1E
F03C1E
ENDCHAR
STARTCHAR 04C2
ENCODING 1218
SWIDTH 840 0
DWIDTH 21 0
BBX 21 20 0 0
BITMAP
070780
078780
07CF00
03FF00
00FC00
000000
707878
787870
3C78F0
1E79E0
0E7BC0
0F7B80
07FF80
07FF80
0F7BC0
1E7BC0
1E79E0
3C78F0
787878
F07878
ENDCHAR
STARTCHAR 04C3
ENCODING 1219
SWIDTH 760 0
DWIDTH 19 0
BBX 16 24 2 -6
BITMAP
F03E
F03C
F078
F0F0
F1E0
F3C0
F3C0
F780
FF00
FFF0
FFFC
FDFC
F03E
F01E
F00F
F00F
F00F
F00F
000F
001E
043E
07FC
07F8
07F0
ENDCHAR
STARTCHAR 04C4
ENCODING 1220
SWIDTH 640 0
DWIDTH 16 0
BBX 13 20 2 -6
BITMAP
F078
F0F0
F1E0
F3C0
F780
FF00
FE00
FFE0
FFF0
F1F8
F078
F078
F038
F038
0038
0078
08F8
0FF0
0FE0
0FC0
ENDCHAR
STARTCHAR 04C5
ENCODING 1221
SWIDTH 800 0
DWIDTH 20 0
BBX 20 23 0 -5
BITMAP
07FF00
07FF00
07FF00
070700
070700
0F0700
0F0700
0F0700
0F0700
0E0700
0E0700
1E0700
1E0700
1E0700
1C0700
FC07F0
FC07F0
F807F0
0000F0
0000E0
0001E0
0001E0
0003C0
ENDCHAR
STARTCHAR 04C6
ENCODING 1222
SWIDTH 720 0
DWIDTH 18 0
BBX 18 19 0 -5
BITMAP
0FFC00
0FFC00
0FFC00
0E3C00
1E3C00
1E3C00
1E3C00
1E3C00
1C3C00
1C3C00
3C3C00
FC3FC0
F83FC0
F03F80
000380
000380
000780
000700
000700
ENDCHAR
STARTCHAR 04C7
ENCODING 1223
SWIDTH 760 0
DWIDTH 19 0
BBX 15 24 2 -6
BITMAP
F01E
F01E
F01E
F01E
F01E
F01E
F01E
FFFE
FFFE
FFFE
F01E
F01E
F01E
F01E
F01E
F01E
F01E
F01E
001E
003E
087C
0FFC
0FF8
0FE0
ENDCHAR
STARTCHAR 04C8
ENCODING 1224
SWIDTH 640 0
DWIDTH 16 0
BBX 13 20 2 -6
BITMAP
F078
F078
F078
F078
F078
F078
FFF8
FFF8
F078
F078
F078
F078
F078
F078
0078
00F0
10F0
1FF0
1FE0
1FC0
ENDCHAR
STARTCHAR 04C9
ENCODING 1225
SWIDTH 840 0
DWIDTH 21 0
BBX 19 23 2 -5
BITMAP
F01E00
F01E00
F01E00
F01E00
F01E00
F01E00
F01E00
FFFE00
FFFE00
FFFE00
F01E00
F01E00
F01E00
F01E00
F01E00
F01FE0
F01FE0
F01FC0
0001C0
0003C0
000380
000780
000780
ENDCHAR
STARTCHAR 04CA
ENCODING 1226
SWIDTH 720 0
DWIDTH 18 0
BBX 16 19 2 -5
BITMAP
F078
F078
F078
F078
F078
F078
FFF8
FFF8
F078
F078
F078
F07F
F07F
F07F
000F
000E
000E
001E
001E
ENDCHAR
STARTCHAR 04CB
ENCODING 1227
SWIDTH 720 0
DWIDTH 18 0
BBX 15 23 1 -5
BITMAP
F01E
F01E
F01E
F01E
F01E
F01E
F01E
F01E
F83E
7FFE
7FFE
3FDE
001E
001E
001E
00FE
00FE
00FE
00F0
00F0
00F0
00F0
00F0
ENDCHAR
STARTCHAR 04CC
ENCODING 1228
SWIDTH 640 0
DWIDTH 16 0
BBX 13 19 1 -5
BITMAP
F038
F038
F038
F038
F038
F038
7878
7FF8
3FF8
1E38
0038
01F8
01F8
01F8
01C0
01C0
01C0
01C0
01C0
ENDCHAR
STARTCHAR 04CD
ENCODING 1229
SWIDTH 1000 0
DWIDTH 25 0
BBX 23 23 2 -5
BITMAP
FC03E0
FC03E0
FC07E0
FC07E0
EE07E0
EE0EE0
FE0EE0
F70EE0
F71CE0
F71CE0
F79CE0
F3B8E0
F3B8E0
F3F8E0
F1F0E0
F1F0FE
F1F0FE
F0E0FE
00001C
00001C
00003C
00003C
000078
ENDCHAR
STARTCHAR 04CE
ENCODING 1230
SWIDTH 920 0
DWIDTH 23 0
BBX 21 19 2 -5
BITMAP
F80F80
FC0F80
FC1F80
FC1F80
EE1B80
EE3B80
EE3B80
E77380
E77380
E3F380
E3E380
E3E3F8
E1E3F8
E1C3F0
000070
000070
0000F0
0000E0
0000E0
ENDCHAR
STARTCHAR 04CF
ENCODING 1231
SWIDTH 320 0
DWIDTH 8 0
BBX 4 18 2 0
BITMAP
F0
F0
F0
F0
F0
F0
F0
F0
F0
F0
F0
F0
F0
F0
F0
F0
F0
F0
ENDCHAR
STARTCHAR 04D0
ENCODING 1232
SWIDTH 680 0
DWIDTH 17 0
BBX 17 24 0 0
BITMAP
1C1E00
1C1C00
1FFC00
0FF800
03E000
000000
03E000
03E000
07F000
077000
077000
0F7800
0F3800
0E3C00
1E3C00
1E1C00
1C1E00
3FFE00
3FFE00
3FFF00
780F00
780F00
780780
F00780
ENDCHAR
STARTCHAR 04D1
ENCODING 1233
SWIDTH 600 0
DWIDTH 15 0
BBX 13 20 1 0
BITMAP
7078
7070
7CF0
3FE0
0F80
0000
1F80
7FE0
3FF0
20F0
00F0
00F0
3FF0
7FF0
F070
F0F0
F0F0
FFF0
7FF0
3E70
ENDCHAR
STARTCHAR 04D2
ENCODING 1234
SWIDTH 680 0
DWIDTH 17 0
BBX 17 23 0 0
BITMAP
063000
0F7800
073800
000000
000000
03E000
03E000
07F000
077000
077000
0F7800
0F3800
0E3C00
1E3C00
1E1C00
1C1E00
3FFE00
3FFE00
3FFF00
780F00
780F00
780780
F00780
ENDCHAR
STARTCHAR 04D3
ENCODING 1235
SWIDTH 600 0
DWIDTH 15 0
BBX 12 19 1 0
BITMAP
18C0
3DE0
3DE0
0000
0000
1F80
7FE0
3FF0
20F0
00F0
00F0
3FF0
7FF0
F070
F0F0
F0F0
FFF0
7FF0
3E70
ENDCHAR
STARTCHAR 04D4
ENCODING 1236
SWIDTH 920 0
DWIDTH 23 0
BBX 22 18 0 0
BITMAP
00FFFC
01FFFC
01FFFC
03CE00
03CE00
038E00
078E00
070FFC
0F0FFC
0F0FFC
1E0E00
1FFE00
3FFE00
3FFE00
380E00
780FFC
700FFC
F00FFC
ENDCHAR
STARTCHAR 04D5
ENCODING 1237
SWIDTH 880 0
DWIDTH 22 0
BBX 21 14 1 0
BITMAP
1F8F80
7FDFE0
3FFFF0
20F870
00F078
00F078
3FFFF8
7FFFF8
F0F000
F0F000
F0F800
FFFFF0
7F9FF0
3F0FF0
ENDCHAR
STARTCHAR 04D6
ENCODING 1238
SWIDTH 560 0
DWIDTH 14 0
BBX 12 24 2 0
BITMAP
E0F0
E0E0
FBE0
7FC0
1F00
0000
FFE0
FFE0
FFE0
F000
F000
F000
F000
FFC0
FFC0
FFC0
F000
F000
F000
F000
F000
FFE0
FFE0
FFE0
ENDCHAR
STARTCHAR 04D7
ENCODING 1239
SWIDTH 560 0
DWIDTH 14 0
BBX 13 20 1 0
BITMAP
7070
7070
79F0
3FE0
0F80
0000
0F80
3FE0
7FF0
78F0
F078
F078
FFF8
FFF8
F000
F000
7800
7FF0
3FF0
1FE0
ENDCHAR
STARTCHAR 04D8
ENCODING 1240
SWIDTH 800 0
DWIDTH 20 0
BBX 17 18 2 0
BITMAP
0FF000
7FFC00
7FFE00
783F00
400F00
000F00
000780
000780
FFFF80
FFFF80
FFFF80
F00780
F00780
780F00
7C1F00
3FFE00
1FFC00
0FF000
ENDCHAR
STARTCHAR 04D9
ENCODING 1241
SWIDTH 560 0
DWIDTH 14 0
BBX 13 14 1 0
BITMAP
3F00
7FC0
7FE0
40F0
00F0
0078
FFF8
FFF8
FFF8
F070
F0F0
7DF0
3FE0
1F80
ENDCHAR
STARTCHAR 04DA
ENCODING 1242
SWIDTH 800 0
DWIDTH 20 0
BBX 17 23 2 0
BITMAP
0E7000
0F7000
0E7000
000000
000000
0FF000
7FFC00
7FFE00
783F00
400F00
000F00
000780
000780
FFFF80
FFFF80
FFFF80
F00780
F00780
780F00
7C1F00
3FFE00
1FFC00
0FF000
ENDCHAR
STARTCHAR 04DB
ENCODING 1243
SWIDTH 560 0
DWIDTH 14 0
BBX 13 19 1 0
BITMAP
18C0
3DE0
3DC0
0000
0000
3F00
7FC0
7FE0
40F0
00F0
0078
FFF8
FFF8
FFF8
F070
F0F0
7DF0
3FE0
1F80
ENDCHAR
STARTCHAR 04DC
ENCODING 1244
SWIDTH 920 0
DWIDTH 23 0
BBX 23 23 0 0
BITMAP
00E700
00E700
00E700
000000
000000
703C1E
783C3C
3C3C3C
1C3C78
1E3CF0
0F3CF0
073DE0
07BFC0
03FF80
03FFC0
07BDC0
0F3DE0
0F3CF0
1E3C78
3C3C78
3C3C3C
783C1E
F03C1E
ENDCHAR
STARTCHAR 04DD
ENCODING 1245
SWIDTH 840 0
DWIDTH 21 0
BBX 21 19 0 0
BITMAP
018C00
01CE00
01CE00
000000
000000
707878
787870
3C78F0
1E79E0
0E7BC0
0F7B80
07FF80
07FF80
0F7BC0
1E7BC0
1E79E0
3C78F0
787878
F07878
ENDCHAR
STARTCHAR 04DE
ENCODING 1246
SWIDTH 640 0
DWIDTH 16 0
BBX 14 23 1 0
BITMAP
1CE0
1CE0
1CE0
0000
0000
1FE0
7FF0
7FF8
7078
003C
0038
0078
1FF0
1F80
1FF0
00F8
003C
003C
003C
807C
FFF8
FFF8
7FE0
ENDCHAR
STARTCHAR 04DF
ENCODING 1247
SWIDTH 520 0
DWIDTH 13 0
BBX 12 19 1 0
BITMAP
1180
39C0
39C0
0000
0000
3F80
FFE0
7FE0
40F0
00E0
07E0
1F80
1FE0
01F0
00F0
00F0
FFF0
FFE0
FF80
ENDCHAR
STARTCHAR 04E0
ENCODING 1248
SWIDTH 560 0
DWIDTH 14 0
BBX 13 18 1 0
BITMAP
FFF0
FFF0
FFF0
01E0
03C0
0780
0F00
3E00
3FC0
3FF0
01F0
0078
0078
0078
80F8
FFF0
FFE0
FFC0
ENDCHAR
STARTCHAR 04E1
ENCODING 1249
SWIDTH 560 0
DWIDTH 14 0
BBX 13 20 1 -6
BITMAP
FFF0
FFF0
FFF0
01E0
03C0
0780
0F00
1E00
3F80
3FE0
3FF0
00F0
0070
0078
0078
00F0
C1F0
FFE0
FFC0
7F80
ENDCHAR
STARTCHAR 04E2
ENCODING 1250
SWIDTH 800 0
DWIDTH 20 0
BBX 16 22 2 0
BITMAP
0FF8
0FF8
0FF8
0000
F00F
F01F
F03F
F03F
F07F
F077
F0F7
F1E7
F1E7
F3C7
F787
F787
FF07
FF07
FE07
FC07
FC07
F807
ENDCHAR
STARTCHAR 04E3
ENCODING 1251
SWIDTH 720 0
DWIDTH 18 0
BBX 14 18 2 0
BITMAP
1FE0
1FE0
1FE0
0000
F07C
F07C
F0FC
F1FC
F1FC
F3DC
F39C
E7BC
EF3C
EE3C
FE3C
FC3C
F83C
F83C
ENDCHAR
STARTCHAR 04E4
ENCODING 1252
SWIDTH 800 0
DWIDTH 20 0
BBX 16 23 2 0
BITMAP
0630
0F78
0738
0000
0000
F00F
F01F
F03F
F03F
F07F
F077
F0F7
F1E7
F1E7
F3C7
F787
F787
FF07
FF07
FE07
FC07
FC07
F807
ENDCHAR
STARTCHAR 04E5
ENCODING 1253
SWIDTH 720 0
DWIDTH 18 0
BBX 14 19 2 0
BITMAP
08C0
1CE0
1CE0
0000
0000
F07C
F07C
F0FC
F1FC
F1FC
F3DC
F39C
E7BC
EF3C
EE3C
FE3C
FC3C
F83C
F83C
ENDCHAR
STARTCHAR 04E6
ENCODING 1254
SWIDTH 760 0
DWIDTH 19 0
BBX 17 23 1 0
BITMAP
073800
073800
073800
000000
000000
07F800
1FFC00
3FFE00
3E1F00
7C0F80
780780
780780
780780
F80780
F00780
700780
780780
780780
7C0F80
3E1F00
3FFF00
1FFE00
07F800
ENDCHAR
STARTCHAR 04E7
ENCODING 1255
SWIDTH 600 0
DWIDTH 15 0
BBX 13 19 1 0
BITMAP
18C0
1DE0
1CE0
0000
0000
0F80
3FE0
7FF0
78F8
F078
F078
F038
F038
F078
F078
7878
7FF0
3FE0
1FC0
ENDCHAR
STARTCHAR 04E8
ENCODING 1256
SWIDTH 760 0
DWIDTH 19 0
BBX 17 18 1 0
BITMAP
07F800
1FFC00
3FFE00
3E1F00
7C0F80
780780
780780
7FFF80
FFFF80
FFFF80
700780
780780
780780
780F80
3E1F00
3FFF00
1FFE00
07F800
ENDCHAR
STARTCHAR 04E9
ENCODING 1257
SWIDTH 600 0
DWIDTH 15 0
BBX 13 14 1 0
BITMAP
0F80
3FE0
7FF0
78F8
F078
F078
FFF8
FFF8
F078
F078
7878
7FF0
3FE0
1FC0
ENDCHAR
STARTCHAR 04EA
ENCODING 1258
SWIDTH 760 0
DWIDTH 19 0
BBX 17 23 1 0
BITMAP
073800
073800
073800
000000
000000
07F800
1FFC00
3FFE00
3E1F00
7C0F80
780780
780780
7FFF80
FFFF80
FFFF80
700780
780780
780780
780F80
3E1F00
3FFF00
1FFE00
07F800
ENDCHAR
STARTCHAR 04EB
ENCODING 1259
SWIDTH 600 0
DWIDTH 15 0
BBX 13 19 1 0
BITMAP
18C0
1DE0
1CE0
0000
0000
0F80
3FE0
7FF0
78F8
F078
F078
FFF8
FFF8
F078
F078
7878
7FF0
3FE0
1FC0
ENDCHAR
STARTCHAR 04EC
ENCODING 1260
SWIDTH 640 0
DWIDTH 16 0
BBX 14 23 1 0
BITMAP
1CE0
1CE0
1CE0
0000
0000
3F80
FFE0
FFF0
60F8
0078
003C
003C
3FFC
3FFC
3FFC
3FFC
003C
003C
0078
80F8
FFF0
FFE0
7FC0
ENDCHAR
STARTCHAR 04ED
ENCODING 1261
SWIDTH 480 0
DWIDTH 12 0
BBX 11 19 1 0
BITMAP
3180
7380
7380
0000
0000
3E00
FF80
7FC0
03C0
01C0
01E0
3FE0
3FE0
01E0
01C0
03C0
FFC0
FF80
FF00
ENDCHAR
STARTCHAR 04EE
ENCODING 1262
SWIDTH 640 0
DWIDTH 16 0
BBX 16 22 0 0
BITMAP
0FF8
0FF8
0FF8
0000
F007
780F
780F
3C1E
3C1E
1E3C
1E3C
0E38
0F78
0770
07F0
03F0
03E0
03E0
07C0
7FC0
7F80
7F00
ENDCHAR
STARTCHAR 04EF
ENCODING 1263
SWIDTH 560 0
DWIDTH 14 0
BBX 14 24 0 -6
BITMAP
1FE0
1FE0
1FE0
0000
F03C
F03C
7838
7878
3878
3C70
3CF0
1CF0
1EE0
0FE0
0FC0
0FC0
07C0
0780
0780
0780
0F00
7F00
7E00
7800
ENDCHAR
STARTCHAR 04F0
ENCODING 1264
SWIDTH 640 0
DWIDTH 16 0
BBX 16 23 0 0
BITMAP
0630
0F78
0E70
0000
0000
F007
780F
780F
3C1E
3C1E
1E3C
1E3C
0E38
0F78
0770
07F0
03F0
03E0
03E0
07C0
7FC0
7F80
7F00
ENDCHAR
STARTCHAR 04F1
ENCODING 1265
SWIDTH 560 0
DWIDTH 14 0
BBX 14 25 0 -6
BITMAP
0CE0
1CE0
1CE0
0000
0000
F03C
F03C
7838
7878
3878
3C70
3CF0
1CF0
1EE0
0FE0
0FC0
0FC0
07C0
0780
0780
0780
0F00
7F00
7E00
7800
ENDCHAR
STARTCHAR 04F2
ENCODING 1266
SWIDTH 640 0
DWIDTH 16 0
BBX 16 23 0 0
BITMAP
01CE
039C
0738
0630
0000
F007
780F
780F
3C1E
3C1E
1E3C
1E3C
0E38
0F78
0770
07F0
03F0
03E0
03E0
07C0
7FC0
7F80
7F00
ENDCHAR
STARTCHAR 04F3
ENCODING 1267
SWIDTH 560 0
DWIDTH 14 0
BBX 14 25 0 -6
BITMAP
03BC
0738
0E70
0CE0
0000
F03C
F03C
7838
7878
3878
3C70
3CF0
1CF0
1EE0
0FE0
0FC0
0FC0
07C0
0780
0780
0780
0F00
7F00
7E00
7800
ENDCHAR
STARTCHAR 04F4
ENCODING 1268
SWIDTH 720 0
DWIDTH 18 0
BBX 15 23 1 0
BITMAP
0C60
1EF0
0E70
0000
0000
F01E
F01E
F01E
F01E
F01E
F01E
F01E
F01E
F83E
7FFE
7FFE
3FDE
001E
001E
001E
001E
001E
001E
ENDCHAR
STARTCHAR 04F5
ENCODING 1269
SWIDTH 640 0
DWIDTH 16 0
BBX 13 19 1 0
BITMAP
0840
1CE0
1CE0
0000
0000
F038
F038
F038
F038
F038
F038
7878
7FF8
3FF8
1E38
0038
0038
0038
0038
ENDCHAR
STARTCHAR 04F6
ENCODING 1270
SWIDTH 560 0
DWIDTH 14 0
BBX 12 23 2 -5
BITMAP
FFF0
FFF0
FFF0
F000
F000
F000
F000
F000
F000
F000
F000
F000
F000
F000
F000
FF00
FF00
FF00
0F00
0F00
0F00
0F00
0F00
ENDCHAR
STARTCHAR 04F7
ENCODING 1271
SWIDTH 440 0
DWIDTH 11 0
BBX 9 19 2 -5
BITMAP
FF80
FF80
FF80
F000
F000
F000
F000
F000
F000
F000
F000
FE00
FE00
FE00
0E00
0E00
0E00
0E00
0E00
ENDCHAR
STARTCHAR 04F8
ENCODING 1272
SWIDTH 880 0
DWIDTH 22 0
BBX 18 23 2 0
BITMAP
073800
073800
073800
000000
000000
F001C0
F001C0
F001C0
F001C0
F001C0
F001C0
F001C0
FF81C0
FFE1C0
FFF1C0
F1F1C0
F0F1C0
F071C0
F0F1C0
F1F1C0
FFF1C0
FFE1C0
FF81C0
ENDCHAR
STARTCHAR 04F9
ENCODING 1273
SWIDTH 840 0
DWIDTH 21 0
BBX 17 19 2 0
BITMAP
063000
0F7800
077800
000000
000000
F00380
F00380
F00380
F00380
F00380
F00380
FFC380
FFE380
F1E380
F0F380
F0F380
FFE380
FFE380
FF8380
ENDCHAR
STARTCHAR 04FA
ENCODING 1274
SWIDTH 520 0
DWIDTH 13 0
BBX 12 24 1 -6
BITMAP
7FF0
7FF0
7FF0
7800
7800
7800
7800
7800
FFC0
FFC0
FFC0
7800
7800
7800
7800
7F80
7F80
7F80
0780
0780
0780
3F00
3F00
3E00
ENDCHAR
STARTCHAR 04FB
ENCODING 1275
SWIDTH 480 0
DWIDTH 12 0
BBX 12 20 0 -6
BITMAP
3FF0
3FF0
3FF0
3800
3800
3800
FFC0
FFC0
FFC0
3800
3800
3F80
3F80
3F80
0780
0780
0700
1F00
1F00
1C00
ENDCHAR
STARTCHAR 04FC
ENCODING 1276
SWIDTH 720 0
DWIDTH 18 0
BBX 18 24 0 -6
BITMAP
780F00
781E00
3C1E00
1E3C00
1E3C00
0F7800
0FF000
07F000
03E000
07E000
07F000
0FF000
0E7800
1E3C00
3C3C00
3C1FC0
781FC0
F00FC0
0003C0
0003C0
0003C0
001F80
001F80
001F00
ENDCHAR
STARTCHAR 04FD
ENCODING 1277
SWIDTH 640 0
DWIDTH 16 0
BBX 15 20 0 -6
BITMAP
F83C
7878
3C78
3EF0
1FE0
0FE0
0FC0
0FC0
0FE0
1FE0
3EF0
3C7E
787E
F83E
000E
000E
000E
003E
003E
0038
ENDCHAR
STARTCHAR 04FE
ENCODING 1278
SWIDTH 640 0
DWIDTH 16 0
BBX 16 18 0 0
BITMAP
780F
781E
3C1E
1E3C
1E3C
0F78
0FF0
7FFE
7FFE
7FFE
07F0
0FF0
0E78
1E3C
3C3C
3C1E
781F
F00F
ENDCHAR
STARTCHAR 04FF
ENCODING 1279
SWIDTH 560 0
DWIDTH 14 0
BBX 14 14 0 0
BITMAP
F83C
7878
3C78
3EF0
1FE0
0FE0
7FF8
7FF8
7FF8
1FE0
3EF0
3C78
7878
F83C
ENDCHAR
STARTCHAR 0500
ENCODING 1280
SWIDTH 600 0
DWIDTH 15 0
BBX 13 18 1 0
BITMAP
0078
0078
0078
0078
0078
0078
0078
0FF8
3FF8
7FF8
F878
F078
F078
F078
F878
7FF8
3FF8
0FF8
ENDCHAR
STARTCHAR 0501
ENCODING 1281
SWIDTH 600 0
DWIDTH 15 0
BBX 13 19 1 0
BITMAP
0078
0078
0078
0078
0078
1E78
3FF8
7FF8
78F8
F078
F078
F078
F078
F078
F078
7878
7FF8
3FF8
1F38
ENDCHAR
STARTCHAR 0502
ENCODING 1282
SWIDTH 920 0
DWIDTH 23 0
BBX 20 18 1 0
BITMAP
00F000
00F000
00F000
00F000
00F000
00F000
00F000
0FF000
3FF0F0
7FF0F0
F8F0F0
F0F0F0
F0F0F0
F0F0F0
F8F8F0
7FFFF0
7FFFE0
1F9FC0
ENDCHAR
STARTCHAR 0503
ENCODING 1283
SWIDTH 920 0
DWIDTH 23 0
BBX 20 19 1 0
BITMAP
007800
007800
007800
007800
007800
1E7800
3F7800
7FF800
78F800
F07800
F07870
F07870
F07870
F07870
F078F0
78F8F0
7FFFF0
3FFFE0
1F9FC0
ENDCHAR
STARTCHAR 0504
ENCODING 1284
SWIDTH 880 0
DWIDTH 22 0
BBX 20 18 1 0
BITMAP
3F8000
FFC000
FFE000
41E000
00E000
00E000
01E000
0FC000
7F00F0
7FC0F0
03E0F0
00F0F0
00F0F0
00F0F0
00F1F0
007FE0
007FE0
003F80
ENDCHAR
STARTCHAR 0505
ENCODING 1285
SWIDTH 840 0
DWIDTH 21 0
BBX 19 14 1 0
BITMAP
3F0000
FFC000
FFE000
01E000
01E000
07C1E0
3F81E0
3FC1E0
03E1E0
01E1E0
01E1E0
00FFE0
00FFC0
007F80
ENDCHAR
STARTCHAR 0506
ENCODING 1286
SWIDTH 680 0
DWIDTH 17 0
BBX 16 23 1 -5
BITMAP
3F80
FFE0
FFE0
61F0
00F0
00F0
00E0
0FC0
7F00
7FE0
03F0
00F0
0070
0070
0070
007F
007F
007F
000F
000F
000F
000F
000F
ENDCHAR
STARTCHAR 0507
ENCODING 1287
SWIDTH 640 0
DWIDTH 16 0
BBX 15 19 1 -5
BITMAP
3F80
FFC0
7FE0
40E0
00E0
07E0
3F80
3FE0
01E0
00F0
00F0
00FE
00FE
00FE
000E
000E
000E
000E
000E
ENDCHAR
STARTCHAR 0508
ENCODING 1288
SWIDTH 1000 0
DWIDTH 25 0
BBX 24 18 0 0
BITMAP
07FF00
07FF00
07FF00
070F00
070F00
0F0F00
0F0F00
0F0F00
0F0F0F
0E0F0F
0E0F0F
1E0F0F
1E0F0F
1E0F0F
1C0F1F
FC0FFE
FC07FE
F803F8
ENDCHAR
STARTCHAR 0509
ENCODING 1289
SWIDTH 920 0
DWIDTH 23 0
BBX 22 14 0 0
BITMAP
0FFC00
0FFC00
0FFC00
0E3C00
1E3C00
1E3C3C
1E3C3C
1E3C3C
1C3C3C
1C3C3C
3C3C78
FC3FF8
F81FF8
F00FE0
ENDCHAR
STARTCHAR 050A
ENCODING 1290
SWIDTH 1040 0
DWIDTH 26 0
BBX 22 18 2 0
BITMAP
F01C00
F01C00
F01C00
F01C00
F01C00
F01C00
F01C00
FFFC00
FFFC3C
FFFC3C
F01C3C
F01C3C
F01C3C
F01C3C
F01E3C
F01FFC
F01FF8
F007F0
ENDCHAR
STARTCHAR 050B
ENCODING 1291
SWIDTH 920 0
DWIDTH 23 0
BBX 20 14 2 0
BITMAP
F07000
F07000
F07000
F07000
F07000
F070F0
FFF0F0
FFF0F0
F070F0
F070F0
F078F0
F07FF0
F03FE0
F01FC0
ENDCHAR
STARTCHAR 050C
ENCODING 1292
SWIDTH 800 0
DWIDTH 20 0
BBX 18 18 1 0
BITMAP
03FC00
0FFE00
1FFE00
3E0E00
7C0000
780000
780000
700000
F07FC0
F07FC0
707FC0
780380
780780
7C0780
3E0F80
3FFF00
0FFE00
07F800
ENDCHAR
STARTCHAR 050D
ENCODING 1293
SWIDTH 640 0
DWIDTH 16 0
BBX 14 14 1 0
BITMAP
07E0
1FF8
3FF0
7C30
7800
F000
F1FC
F1FC
F1FC
F03C
783C
7FF8
3FF8
0FE0
ENDCHAR
STARTCHAR 050E
ENCODING 1294
SWIDTH 720 0
DWIDTH 18 0
BBX 17 18 0 0
BITMAP
FFFC00
FFFC00
FFFC00
078000
078000
078000
078000
078000
078780
078780
078780
078780
078780
078780
078780
03FF00
03FF00
01FE00
ENDCHAR
STARTCHAR 050F
ENCODING 1295
SWIDTH 720 0
DWIDTH 18 0
BBX 15 14 1 0
BITMAP
FFF0
FFF0
FFF0
0F00
0F00
0F0E
0F0E
0F0E
0F0E
0F0E
0F1E
0FFE
07FE
03F8
ENDCHAR
STARTCHAR 0510
ENCODING 1296
SWIDTH 640 0
DWIDTH 16 0
BBX 14 18 1 0
BITMAP
0FF0
3FFC
7FFC
7838
7000
7000
7800
3FE0
0FE0
3FE0
7E00
F000
F000
F000
F80C
7FFC
3FFC
1FF8
ENDCHAR
STARTCHAR 0511
ENCODING 1297
SWIDTH 520 0
DWIDTH 13 0
BBX 12 14 1 0
BITMAP
1FC0
3FF0
7FE0
7020
7000
7E00
3F80
3F80
F800
F000
F010
FFF0
7FF0
3FE0
ENDCHAR
STARTCHAR 0512
ENCODING 1298
SWIDTH 800 0
DWIDTH 20 0
BBX 20 24 0 -6
BITMAP
07FF00
07FF00
07FF00
070700
070700
0F0700
0F0700
0F0700
0F0700
0E0700
0E0700
1E0700
1E0700
1E0700
1C0700
FC07F0
FC07F0
F807F0
0000F0
0000F0
0000F0
0007F0
0007E0
0007C0
ENDCHAR
STARTCHAR 0513
ENCODING 1299
SWIDTH 720 0
DWIDTH 18 0
BBX 17 20 0 -6
BITMAP
0FFC00
0FFC00
0FFC00
0E3C00
1E3C00
1E3C00
1E3C00
1E3C00
1C3C00
1C3C00
3C3C00
FC3F80
F83F80
F03F80
000380
000380
000380
000F80
000F80
000E00
ENDCHAR
STARTCHAR 05B0
ENCODING 1456
SWIDTH 0 0
DWIDTH 0 0
BBX 2 5 -1 -6
BITMAP
C0
C0
00
C0
C0
ENDCHAR
STARTCHAR 05B1
ENCODING 1457
SWIDTH 0 0
DWIDTH 0 0
BBX 8 5 -4 -6
BITMAP
89
DB
00
21
63
ENDCHAR
STARTCHAR 05B2
ENCODING 1458
SWIDTH 0 0
DWIDTH 0 0
BBX 8 5 -4 -6
BITMAP
02
FB
00
02
03
ENDCHAR
STARTCHAR 05B3
ENCODING 1459
SWIDTH 0 0
DWIDTH 0 0
BBX 8 5 -4 -6
BITMAP
02
FB
20
22
03
ENDCHAR
STARTCHAR 05B4
ENCODING 1460
SWIDTH 0 0
DWIDTH 0 0
BBX 2 2 -1 -3
BITMAP
C0
C0
ENDCHAR
STARTCHAR 05B5
ENCODING 1461
SWIDTH 0 0
DWIDTH 0 0
BBX 6 2 -3 -3
BITMAP
CC
CC
ENDCHAR
STARTCHAR 05B6
ENCODING 1462
SWIDTH 0 0
DWIDTH 0 0
BBX 6 5 -3 -6
BITMAP
48
CC
00
30
30
ENDCHAR
STARTCHAR 05B7
ENCODING 1463
SWIDTH 0 0
DWIDTH 0 0
BBX 4 2 -2 -3
BITMAP
F0
F0
ENDCHAR
STARTCHAR 05B8
ENCODING 1464
SWIDTH 0 0
DWIDTH 0 0
BBX 4 3 -2 -5
BITMAP
F0
60
60
ENDCHAR
STARTCHAR 05B9
ENCODING 1465
SWIDTH 0 0
DWIDTH 0 0
BBX 2 2 -1 17
BITMAP
C0
C0
ENDCHAR
STARTCHAR 05BA
ENCODING 1466
SWIDTH 0 0
DWIDTH 0 0
BBX 2 1 -1 17
BITMAP
C0
ENDCHAR
STARTCHAR 05BB
ENCODING 1467
SWIDTH 0 0
DWIDTH 0 0
BBX 6 5 -3 -6
BITMAP
C0
00
30
0C
0C
ENDCHAR
STARTCHAR 05BC
ENCODING 1468
SWIDTH 0 0
DWIDTH 0 0
BBX 2 2 -1 7
BITMAP
80
C0
ENDCHAR
STARTCHAR 05BD
ENCODING 1469
SWIDTH 0 0
DWIDTH 0 0
BBX 2 4 -1 -6
BITMAP
C0
C0
C0
C0
ENDCHAR
STARTCHAR 05BE
ENCODING 1470
SWIDTH 320 0
DWIDTH 8 0
BBX 6 3 1 13
BITMAP
FC
FC
FC
ENDCHAR
STARTCHAR 05C1
ENCODING 1473
SWIDTH 0 0
DWIDTH 0 0
BBX 2 1 -1 17
BITMAP
C0
ENDCHAR
STARTCHAR 05C2
ENCODING 1474
SWIDTH 0 0
DWIDTH 0 0
BBX 2 1 -1 17
BITMAP
C0
ENDCHAR
STARTCHAR 05C7
ENCODING 1479
SWIDTH 0 0
DWIDTH 0 0
BBX 4 4 -2 -5
BITMAP
F0
60
60
60
ENDCHAR
STARTCHAR 05D0
ENCODING 1488
SWIDTH 640 0
DWIDTH 16 0
BBX 14 16 1 0
BITMAP
F038
7838
3C38
3C38
1E38
1E38
3F38
7FF8
77F8
F3F0
F1E0
F1E0
F0F0
F0F0
F078
F03C
ENDCHAR
STARTCHAR 05D1
ENCODING 1489
SWIDTH 560 0
DWIDTH 14 0
BBX 13 16 1 0
BITMAP
FF00
FFC0
FFE0
01E0
01E0
01E0
01E0
01E0
01E0
01E0
01E0
01E0
01E0
FFF8
FFF8
FFF8
ENDCHAR
STARTCHAR 05D2
ENCODING 1490
SWIDTH 440 0
DWIDTH 11 0
BBX 9 16 1 0
BITMAP
3E00
3F00
3F00
0780
0780
0780
0780
0780
0780
0780
0780
0F80
1F80
FF80
FB80
F380
ENDCHAR
STARTCHAR 05D3
ENCODING 1491
SWIDTH 520 0
DWIDTH 13 0
BBX 12 16 1 0
BITMAP
FFF0
FFF0
FFF0
01E0
03C0
03C0
03C0
03C0
03C0
03C0
03C0
03C0
03C0
03C0
03C0
03C0
ENDCHAR
STARTCHAR 05D4
ENCODING 1492
SWIDTH 640 0
DWIDTH 16 0
BBX 13 16 2 0
BITMAP
FFC0
FFE0
FFF0
00F0
0070
0078
0078
F078
F078
F078
F078
F078
F078
F078
F078
F078
ENDCHAR
STARTCHAR 05D5
ENCODING 1493
SWIDTH 280 0
DWIDTH 7 0
BBX 4 16 2 0
BITMAP
F0
F0
F0
F0
F0
F0
F0
F0
F0
F0
F0
F0
F0
F0
F0
F0
ENDCHAR
STARTCHAR 05D6
ENCODING 1494
SWIDTH 320 0
DWIDTH 8 0
BBX 7 16 1 0
BITMAP
FE
FE
FE
1C
3C
38
38
78
78
78
78
78
78
78
78
78
ENDCHAR
STARTCHAR 05D7
ENCODING 1495
SWIDTH 640 0
DWIDTH 16 0
BBX 13 16 2 0
BITMAP
FFC0
FFE0
FFF0
F0F0
F070
F078
F078
F078
F078
F078
F078
F078
F078
F078
F078
F078
ENDCHAR
STARTCHAR 05D8
ENCODING 1496
SWIDTH 640 0
DWIDTH 16 0
BBX 13 16 2 0
BITMAP
F3C0
F3F0
F3F0
F0F8
F078
F078
F078
F078
F078
F078
F078
F078
78F0
7FF0
3FE0
1FC0
ENDCHAR
STARTCHAR 05D9
ENCODING 1497
SWIDTH 280 0
DWIDTH 7 0
BBX 3 11 2 5
BITMAP
E0
E0
E0
E0
E0
E0
E0
E0
E0
C0
80
ENDCHAR
STARTCHAR 05DA
ENCODING 1498
SWIDTH 520 0
DWIDTH 13 0
BBX 11 22 1 -6
BITMAP
FE00
FF80
FF80
03C0
03C0
01C0
01C0
01E0
01E0
01E0
01E0
01E0
01E0
01E0
01E0
01E0
01E0
01E0
01E0
01E0
01E0
01E0
ENDCHAR
STARTCHAR 05DB
ENCODING 1499
SWIDTH 480 0
DWIDTH 12 0
BBX 11 16 1 0
BITMAP
FE00
FF80
FFC0
03C0
01C0
01E0
01E0
01E0
01E0
01E0
01E0
01E0
03C0
FFC0
FF80
FF00
ENDCHAR
STARTCHAR 05DC
ENCODING 1500
SWIDTH 520 0
DWIDTH 13 0
BBX 12 19 1 0
BITMAP
F000
F000
F000
FFF0
FFF0
FFF0
00E0
00E0
01E0
01E0
01C0
03C0
03C0
0380
0380
0780
0780
0780
0700
ENDCHAR
STARTCHAR 05DD
ENCODING 1501
SWIDTH 640 0
DWIDTH 16 0
BBX 13 16 2 0
BITMAP
FFC0
FFE0
FFF0
F0F0
F078
F078
F078
F078
F078
F078
F078
F078
F078
FFF8
FFF8
FFF8
ENDCHAR
STARTCHAR 05DE
ENCODING 1502
SWIDTH 680 0
DWIDTH 17 0
BBX 14 16 1 0
BITMAP
73E0
77F8
7FF8
7C7C
783C
783C
783C
783C
783C
703C
703C
703C
703C
F1FC
F1FC
F1FC
ENDCHAR
STARTCHAR 05DF
ENCODING 1503
SWIDTH 280 0
DWIDTH 7 0
BBX 4 22 1 -6
BITMAP
F0
F0
F0
70
70
70
70
70
70
70
70
70
70
70
70
70
70
70
70
70
70
70
ENDCHAR
STARTCHAR 05E0
ENCODING 1504
SWIDTH 400 0
DWIDTH 10 0
BBX 8 16 1 0
BITMAP
7C
7E
7F
0F
07
07
07
07
07
07
07
07
0F
FF
FF
FF
ENDCHAR
STARTCHAR 05E1
ENCODING 1505
SWIDTH 600 0
DWIDTH 15 0
BBX 13 16 1 0
BITMAP
FFC0
FFE0
FFF0
78F8
7078
F078
F038
F038
F038
F038
F078
7078
7878
7FF0
3FE0
1FC0
ENDCHAR
STARTCHAR 05E2
ENCODING 1506
SWIDTH 600 0
DWIDTH 15 0
BBX 14 17 1 -1
BITMAP
703C
783C
783C
7838
3838
3C38
3C38
3C78
1C78
1E78
1EF0
0EF0
0FE0
3FC0
FF80
FE00
C000
ENDCHAR
STARTCHAR 05E3
ENCODING 1507
SWIDTH 600 0
DWIDTH 15 0
BBX 13 22 1 -6
BITMAP
1F80
3FE0
7FF0
F8F0
F078
F078
F078
F078
7C78
7C78
1C78
0078
0078
0078
0078
0078
0078
0078
0078
0078
0078
0078
ENDCHAR
STARTCHAR 05E4
ENCODING 1508
SWIDTH 600 0
DWIDTH 15 0
BBX 13 16 1 0
BITMAP
0FC0
3FE0
7FF0
F8F8
F078
F078
F078
F838
7E38
3C78
1C78
0078
0078
3FF0
3FE0
3FC0
ENDCHAR
STARTCHAR 05E5
ENCODING 1509
SWIDTH 560 0
DWIDTH 14 0
BBX 13 22 0 -6
BITMAP
F078
7878
7878
7878
3C78
3C78
1C78
1EF0
1FF0
0FE0
0F80
0E00
0E00
0E00
0E00
0E00
0E00
0E00
0E00
0E00
0E00
0E00
ENDCHAR
STARTCHAR 05E6
ENCODING 1510
SWIDTH 600 0
DWIDTH 15 0
BBX 13 16 1 0
BITMAP
F038
7878
7878
3C78
1C78
1E78
0FF0
0FF0
07E0
03C0
01E0
01E0
00F0
FFF8
FFF8
FFF8
ENDCHAR
STARTCHAR 05E7
ENCODING 1511
SWIDTH 600 0
DWIDTH 15 0
BBX 14 22 2 -6
BITMAP
FFFC
FFFC
FFFC
0078
0078
0078
00F0
F0F0
F0F0
F1E0
F1E0
F1E0
F1C0
F3C0
F3C0
F3C0
F000
F000
F000
F000
F000
F000
ENDCHAR
STARTCHAR 05E8
ENCODING 1512
SWIDTH 520 0
DWIDTH 13 0
BBX 10 16 1 0
BITMAP
FF00
FF80
FFC0
03C0
01C0
01C0
01C0
01C0
01C0
01C0
01C0
01C0
01C0
01C0
01C0
01C0
ENDCHAR
STARTCHAR 05E9
ENCODING 1513
SWIDTH 760 0
DWIDTH 19 0
BBX 17 16 1 0
BITMAP
F1E380
F1E380
F1E780
71C780
71C780
71C780
73C780
73C780
7F8700
7F0700
7E0F00
780F00
783E00
7FFC00
7FF800
3FE000
ENDCHAR
STARTCHAR 05EA
ENCODING 1514
SWIDTH 680 0
DWIDTH 17 0
BBX 14 16 1 0
BITMAP
7FF0
7FF8
7FFC
1C3C
1C1C
1C1C
1C1C
1C1C
1C1C
1C1C
1C1C
1C1C
3C1C
FC1C
FC1C
F81C
ENDCHAR
STARTCHAR 1E00
ENCODING 7680
SWIDTH 680 0
DWIDTH 17 0
BBX 17 25 0 -7
BITMAP
03E000
03E000
07F000
077000
077000
0F7800
0F3800
0E3C00
1E3C00
1E1C00
1C1E00
3FFE00
3FFE00
3FFF00
780F00
780F00
780780
F00780
000000
000000
03E000
037000
023000
037000
03E000
ENDCHAR
STARTCHAR 1E01
ENCODING 7681
SWIDTH 600 0
DWIDTH 15 0
BBX 12 21 1 -7
BITMAP
1F80
7FE0
3FF0
20F0
00F0
00F0
3FF0
7FF0
F070
F0F0
F0F0
FFF0
7FF0
3E70
0000
0000
0F80
1D80
1980
1D80
0F00
ENDCHAR
STARTCHAR 1E3E
ENCODING 7742
SWIDTH 920 0
DWIDTH 23 0
BBX 19 23 2 0
BITMAP
003C00
007800
00F000
00C000
000000
FC03E0
FC03E0
FC07E0
FC07E0
EE07E0
EE0EE0
FE0EE0
F70EE0
F71CE0
F71CE0
F79CE0
F3B8E0
F3B8E0
F3F8E0
F1F0E0
F1F0E0
F1F0E0
F0E0E0
ENDCHAR
STARTCHAR 1E3F
ENCODING 7743
SWIDTH 960 0
DWIDTH 24 0
BBX 21 19 2 0
BITMAP
001E00
003C00
007800
00E000
000000
E7C3C0
EFEFF0
FFFFF0
F8F8F8
F0F878
F0F078
F0F078
F0F078
F0F078
F0F078
F0F078
F0F078
F0F078
F0F078
ENDCHAR
STARTCHAR 1E80
ENCODING 7808
SWIDTH 960 0
DWIDTH 24 0
BBX 24 23 0 0
BITMAP
00F000
007800
003C00
000C00
000000
F03C0F
F03C0F
703C0F
707E0E
787E1E
787E1E
387F1E
38F71C
3CE73C
3CE73C
1CE7BC
1DE3B8
1FC3B8
1FC3F8
0FC3F8
0FC1F0
0F81F0
0F81F0
ENDCHAR
STARTCHAR 1E81
ENCODING 7809
SWIDTH 840 0
DWIDTH 21 0
BBX 21 19 0 0
BITMAP
03E000
01E000
007000
003800
000000
F07878
70F878
78F878
78FC70
78DCF0
39DCF0
3DDCE0
3DCEE0
1D8FE0
1D8FE0
1F8FC0
1F87C0
0F07C0
0F0780
ENDCHAR
STARTCHAR 1E82
ENCODING 7810
SWIDTH 960 0
DWIDTH 24 0
BBX 24 23 0 0
BITMAP
000F00
001E00
001C00
003800
000000
F03C0F
F03C0F
703C0F
707E0E
787E1E
787E1E
387F1E
38F71C
3CE73C
3CE73C
1CE7BC
1DE3B8
1FC3B8
1FC3F8
0FC3F8
0FC1F0
0F81F0
0F81F0
ENDCHAR
STARTCHAR 1E83
ENCODING 7811
SWIDTH 840 0
DWIDTH 21 0
BBX 21 19 0 0
BITMAP
001E00
003C00
007800
00E000
000000
F07878
70F878
78F878
78FC70
78DCF0
39DCF0
3DDCE0
3DCEE0
1D8FE0
1D8FE0
1F8FC0
1F87C0
0F07C0
0F0780
ENDCHAR
STARTCHAR 1E84
ENCODING 7812
SWIDTH 960 0
DWIDTH 24 0
BBX 24 23 0 0
BITMAP
00E700
00E700
00E700
000000
000000
F03C0F
F03C0F
703C0F
707E0E
787E1E
787E1E
387F1E
38F71C
3CE73C
3CE73C
1CE7BC
1DE3B8
1FC3B8
1FC3F8
0FC3F8
0FC1F0
0F81F0
0F81F0
ENDCHAR
STARTCHAR 1E85
ENCODING 7813
SWIDTH 840 0
DWIDTH 21 0
BBX 21 19 0 0
BITMAP
018C00
03DE00
01CE00
000000
000000
F07878
70F878
78F878
78FC70
78DCF0
39DCF0
3DDCE0
3DCEE0
1D8FE0
1D8FE0
1F8FC0
1F87C0
0F07C0
0F0780
ENDCHAR
STARTCHAR 1E9E
ENCODING 7838
SWIDTH 760 0
DWIDTH 19 0
BBX 16 18 2 0
BITMAP
0FE0
3FF8
7FFC
787C
F03E
F03C
F078
F0F0
F0FC
F0FE
F01F
F00F
F007
F00F
F40F
F7FF
F7FE
F7FC
ENDCHAR
STARTCHAR 1EA0
ENCODING 7840
SWIDTH 680 0
DWIDTH 17 0
BBX 17 23 0 -5
BITMAP
03E000
03E000
07F000
077000
077000
0F7800
0F3800
0E3C00
1E3C00
1E1C00
1C1E00
3FFE00
3FFE00
3FFF00
780F00
780F00
780780
F00780
000000
000000
01C000
01E000
01C000
ENDCHAR
STARTCHAR 1EA1
ENCODING 7841
SWIDTH 600 0
DWIDTH 15 0
BBX 12 19 1 -5
BITMAP
1F80
7FE0
3FF0
20F0
00F0
00F0
3FF0
7FF0
F070
F0F0
F0F0
FFF0
7FF0
3E70
0000
0000
0700
0780
0700
ENDCHAR
STARTCHAR 1EA2
ENCODING 7842
SWIDTH 680 0
DWIDTH 17 0
BBX 17 25 0 0
BITMAP
03C000
03E000
007000
007000
01E000
01C000
000000
03E000
03E000
07F000
077000
077000
0F7800
0F3800
0E3C00
1E3C00
1E1C00
1C1E00
3FFE00
3FFE00
3FFF00
780F00
780F00
780780
F00780
ENDCHAR
STARTCHAR 1EA3
ENCODING 7843
SWIDTH 600 0
DWIDTH 15 0
BBX 12 21 1 0
BITMAP
0F00
0F80
03C0
01C0
0780
0700
0000
1F80
7FE0
3FF0
20F0
00F0
00F0
3FF0
7FF0
F070
F0F0
F0F0
FFF0
7FF0
3E70
ENDCHAR
STARTCHAR 1EA4
ENCODING 7844
SWIDTH 680 0
DWIDTH 17 0
BBX 17 24 0 0
BITMAP
000700
03E600
03F000
073000
0C1800
000000
03E000
03E000
07F000
077000
077000
0F7800
0F3800
0E3C00
1E3C00
1E1C00
1C1E00
3FFE00
3FFE00
3FFF00
780F00
780F00
780780
F00780
ENDCHAR
STARTCHAR 1EA5
ENCODING 7845
SWIDTH 600 0
DWIDTH 15 0
BBX 14 20 1 0
BITMAP
001C
0F98
0FA0
1DC0
3060
0000
1F80
7FE0
3FF0
20F0
00F0
00F0
3FF0
7FF0
F070
F0F0
F0F0
FFF0
7FF0
3E70
ENDCHAR
STARTCHAR 1EA6
ENCODING 7846
SWIDTH 680 0
DWIDTH 17 0
BBX 17 24 0 0
BITMAP
700000
3BE000
03F000
073000
0C1800
000000
03E000
03E000
07F000
077000
077000
0F7800
0F3800
0E3C00
1E3C00
1E1C00
1C1E00
3FFE00
3FFE00
3FFF00
780F00
780F00
780780
F00780
ENDCHAR
STARTCHAR 1EA7
ENCODING 7847
SWIDTH 600 0
DWIDTH 15 0
BBX 13 20 0 0
BITMAP
E000
77C0
07C0
0EE0
1830
0000
0FC0
3FF0
1FF8
1078
0078
0078
1FF8
3FF8
7838
7878
7878
7FF8
3FF8
1F38
ENDCHAR
STARTCHAR 1EA8
ENCODING 7848
SWIDTH 680 0
DWIDTH 17 0
BBX 17 26 0 0
BITMAP
000E00
000F00
000300
03EE00
03F000
073000
0C1800
000000
03E000
03E000
07F000
077000
077000
0F7800
0F3800
0E3C00
1E3C00
1E1C00
1C1E00
3FFE00
3FFE00
3FFF00
780F00
780F00
780780
F00780
ENDCHAR
STARTCHAR 1EA9
ENCODING 7849
SWIDTH 600 0
DWIDTH 15 0
BBX 14 22 1 0
BITMAP
0030
0038
000C
0FB8
0FB0
1DC0
3060
0000
1F80
7FE0
3FF0
20F0
00F0
00F0
3FF0
7FF0
F070
F0F0
F0F0
FFF0
7FF0
3E70
ENDCHAR
STARTCHAR 1EAA
ENCODING 7850
SWIDTH 680 0
DWIDTH 17 0
BBX 17 26 0 0
BITMAP
07D800
0FF800
0C2000
01E000
03E000
077000
0C1800
000000
03E000
03E000
07F000
077000
077000
0F7800
0F3800
0E3C00
1E3C00
1E1C00
1C1E00
3FFE00
3FFE00
3FFF00
780F00
780F00
780780
F00780
ENDCHAR
STARTCHAR 1EAB
ENCODING 7851
SWIDTH 600 0
DWIDTH 15 0
BBX 12 22 1 0
BITMAP
1E60
3FE0
3180
0700
0F80
1DC0
3060
0000
1F80
7FE0
3FF0
20F0
00F0
00F0
3FF0
7FF0
F070
F0F0
F0F0
FFF0
7FF0
3E70
ENDCHAR
STARTCHAR 1EAC
ENCODING 7852
SWIDTH 680 0
DWIDTH 17 0
BBX 17 28 0 -5
BITMAP
03E000
07F000
0F3800
1C1C00
000000
03E000
03E000
07F000
077000
077000
0F7800
0F3800
0E3C00
1E3C00
1E1C00
1C1E00
3FFE00
3FFE00
3FFF00
780F00
780F00
780780
F00780
000000
000000
01C000
01E000
01C000
ENDCHAR
STARTCHAR 1EAD
ENCODING 7853
SWIDTH 600 0
DWIDTH 15 0
BBX 12 24 1 -5
BITMAP
0F80
1FC0
3DE0
7070
0000
1F80
7FE0
3FF0
20F0
00F0
00F0
3FF0
7FF0
F070
F0F0
F0F0
FFF0
7FF0
3E70
0000
0000
0F00
0F00
0F00
ENDCHAR
STARTCHAR 1EAE
ENCODING 7854
SWIDTH 680 0
DWIDTH 17 0
BBX 17 25 0 0
BITMAP
00E000
00C000
0D9800
073800
07F000
01C000
000000
03E000
03E000
07F000
077000
077000
0F7800
0F3800
0E3C00
1E3C00
1E1C00
1C1E00
3FFE00
3FFE00
3FFF00
780F00
780F00
780780
F00780
ENDCHAR
STARTCHAR 1EAF
ENCODING 7855
SWIDTH 600 0
DWIDTH 15 0
BBX 12 21 1 0
BITMAP
0380
0300
3660
38E0
1FC0
0F00
0000
1F80
7FE0
3FF0
20F0
00F0
00F0
3FF0
7FF0
F070
F0F0
F0F0
FFF0
7FF0
3E70
ENDCHAR
STARTCHAR 1EB0
ENCODING 7856
SWIDTH 680 0
DWIDTH 17 0
BBX 17 25 0 0
BITMAP
038000
018000
0CD800
073800
07F000
01C000
000000
03E000
03E000
07F000
077000
077000
0F7800
0F3800
0E3C00
1E3C00
1E1C00
1C1E00
3FFE00
3FFE00
3FFF00
780F00
780F00
780780
F00780
ENDCHAR
STARTCHAR 1EB1
ENCODING 7857
SWIDTH 600 0
DWIDTH 15 0
BBX 12 21 1 0
BITMAP
0E00
0600
3360
38E0
1FC0
0F00
0000
1F80
7FE0
3FF0
20F0
00F0
00F0
3FF0
7FF0
F070
F0F0
F0F0
FFF0
7FF0
3E70
ENDCHAR
STARTCHAR 1EB2
ENCODING 7858
SWIDTH 680 0
DWIDTH 17 0
BBX 17 26 0 0
BITMAP
01C000
004000
00C000
0C9800
073800
07F000
01C000
000000
03E000
03E000
07F000
077000
077000
0F7800
0F3800
0E3C00
1E3C00
1E1C00
1C1E00
3FFE00
3FFE00
3FFF00
780F00
780F00
780780
F00780
ENDCHAR
STARTCHAR 1EB3
ENCODING 7859
SWIDTH 600 0
DWIDTH 15 0
BBX 12 22 1 0
BITMAP
0700
0100
0300
3260
38E0
1FC0
0F00
0000
1F80
7FE0
3FF0
20F0
00F0
00F0
3FF0
7FF0
F070
F0F0
F0F0
FFF0
7FF0
3E70
ENDCHAR
STARTCHAR 1EB4
ENCODING 7860
SWIDTH 680 0
DWIDTH 17 0
BBX 17 26 0 0
BITMAP
07D800
0FF800
0C2000
0C1800
073800
07F000
01C000
000000
03E000
03E000
07F000
077000
077000
0F7800
0F3800
0E3C00
1E3C00
1E1C00
1C1E00
3FFE00
3FFE00
3FFF00
780F00
780F00
780780
F00780
ENDCHAR
STARTCHAR 1EB5
ENCODING 7861
SWIDTH 600 0
DWIDTH 15 0
BBX 12 22 1 0
BITMAP
1E60
3FE0
3180
3060
38E0
1FC0
0F80
0000
1F80
7FE0
3FF0
20F0
00F0
00F0
3FF0
7FF0
F070
F0F0
F0F0
FFF0
7FF0
3E70
ENDCHAR
STARTCHAR 1EB6
ENCODING 7862
SWIDTH 680 0
DWIDTH 17 0
BBX 17 28 0 -5
BITMAP
0C1800
0FF800
07F000
00C000
000000
03E000
03E000
07F000
077000
077000
0F7800
0F3800
0E3C00
1E3C00
1E1C00
1C1E00
3FFE00
3FFE00
3FFF00
780F00
780F00
780780
F00780
000000
000000
01C000
01E000
01C000
ENDCHAR
STARTCHAR 1EB7
ENCODING 7863
SWIDTH 600 0
DWIDTH 15 0
BBX 12 24 1 -5
BITMAP
3060
3FE0
1FC0
0F80
0000
1F80
7FE0
3FF0
20F0
00F0
00F0
3FF0
7FF0
F070
F0F0
F0F0
FFF0
7FF0
3E70
0000
0000
0F00
0F00
0F00
ENDCHAR
STARTCHAR 1EB8
ENCODING 7864
SWIDTH 560 0
DWIDTH 14 0
BBX 11 23 2 -5
BITMAP
FFE0
FFE0
FFE0
F000
F000
F000
F000
FFC0
FFC0
FFC0
F000
F000
F000
F000
F000
FFE0
FFE0
FFE0
0000
0000
0E00
0F00
0E00
ENDCHAR
STARTCHAR 1EB9
ENCODING 7865
SWIDTH 560 0
DWIDTH 14 0
BBX 13 19 1 -5
BITMAP
0F80
3FE0
7FF0
78F0
F078
F078
FFF8
FFF8
F000
F000
7800
7FF0
3FF0
1FE0
0000
0000
0700
0F00
0700
ENDCHAR
STARTCHAR 1EBA
ENCODING 7866
SWIDTH 560 0
DWIDTH 14 0
BBX 11 25 2 0
BITMAP
1E00
1F00
0380
0780
0F00
0E00
0000
FFE0
FFE0
FFE0
F000
F000
F000
F000
FFC0
FFC0
FFC0
F000
F000
F000
F000
F000
FFE0
FFE0
FFE0
ENDCHAR
STARTCHAR 1EBB
ENCODING 7867
SWIDTH 560 0
DWIDTH 14 0
BBX 13 21 1 0
BITMAP
0F00
0FC0
09C0
01C0
0780
0300
0000
0F80
3FE0
7FF0
78F0
F078
F078
FFF8
FFF8
F000
F000
7800
7FF0
3FF0
1FE0
ENDCHAR
STARTCHAR 1EBC
ENCODING 7868
SWIDTH 560 0
DWIDTH 14 0
BBX 11 23 2 0
BITMAP
3CE0
7FC0
6FC0
C100
0000
FFE0
FFE0
FFE0
F000
F000
F000
F000
FFC0
FFC0
FFC0
F000
F000
F000
F000
F000
FFE0
FFE0
FFE0
ENDCHAR
STARTCHAR 1EBD
ENCODING 7869
SWIDTH 560 0
DWIDTH 14 0
BBX 13 19 1 0
BITMAP
1C60
3FE0
3FE0
61C0
0000
0F80
3FE0
7FF0
78F0
F078
F078
FFF8
FFF8
F000
F000
7800
7FF0
3FF0
1FE0
ENDCHAR
STARTCHAR 1EBE
ENCODING 7870
SWIDTH 560 0
DWIDTH 14 0
BBX 13 24 2 0
BITMAP
0038
1F70
3F00
3380
60C0
0000
FFE0
FFE0
FFE0
F000
F000
F000
F000
FFC0
FFC0
FFC0
F000
F000
F000
F000
F000
FFE0
FFE0
FFE0
ENDCHAR
STARTCHAR 1EBF
ENCODING 7871
SWIDTH 560 0
DWIDTH 14 0
BBX 14 20 1 0
BITMAP
001C
0F98
0FC0
1DC0
3860
0000
0F80
3FE0
7FF0
78F0
F078
F078
FFF8
FFF8
F000
F000
7800
7FF0
3FF0
1FE0
ENDCHAR
STARTCHAR 1EC0
ENCODING 7872
SWIDTH 560 0
DWIDTH 14 0
BBX 13 24 0 0
BITMAP
E000
77C0
0FE0
0EE0
1830
0000
3FF8
3FF8
3FF8
3C00
3C00
3C00
3C00
3FF0
3FF0
3FF0
3C00
3C00
3C00
3C00
3C00
3FF8
3FF8
3FF8
ENDCHAR
STARTCHAR 1EC1
ENCODING 7873
SWIDTH 560 0
DWIDTH 14 0
BBX 14 20 0 0
BITMAP
E000
77C0
07E0
0EE0
1C30
0000
07C0
1FF0
3FF8
3C78
783C
783C
7FFC
7FFC
7800
7800
3C00
3FF8
1FF8
0FF0
ENDCHAR
STARTCHAR 1EC2
ENCODING 7874
SWIDTH 560 0
DWIDTH 14 0
BBX 12 26 2 0
BITMAP
0070
0070
0030
1F60
3F00
3380
60C0
0000
FFE0
FFE0
FFE0
F000
F000
F000
F000
FFC0
FFC0
FFC0
F000
F000
F000
F000
F000
FFE0
FFE0
FFE0
ENDCHAR
STARTCHAR 1EC3
ENCODING 7875
SWIDTH 560 0
DWIDTH 14 0
BBX 14 22 1 0
BITMAP
0030
0038
000C
0FB8
0FF0
1DC0
3860
0000
0F80
3FE0
7FF0
78F0
F078
F078
FFF8
FFF8
F000
F000
7800
7FF0
3FF0
1FE0
ENDCHAR
STARTCHAR 1EC4
ENCODING 7876
SWIDTH 560 0
DWIDTH 14 0
BBX 11 26 2 0
BITMAP
3CC0
7F80
6000
0E00
1F00
3B80
60C0
0000
FFE0
FFE0
FFE0
F000
F000
F000
F000
FFC0
FFC0
FFC0
F000
F000
F000
F000
F000
FFE0
FFE0
FFE0
ENDCHAR
STARTCHAR 1EC5
ENCODING 7877
SWIDTH 560 0
DWIDTH 14 0
BBX 13 22 1 0
BITMAP
1E60
3FE0
3180
0700
0F80
1DC0
3060
0000
0F80
3FE0
7FF0
78F0
F078
F078
FFF8
FFF8
F000
F000
7800
7FF0
3FF0
1FE0
ENDCHAR
STARTCHAR 1EC6
ENCODING 7878
SWIDTH 560 0
DWIDTH 14 0
BBX 11 28 2 -5
BITMAP
1F00
3F80
71C0
E0E0
0000
FFE0
FFE0
FFE0
F000
F000
F000
F000
FFC0
FFC0
FFC0
F000
F000
F000
F000
F000
FFE0
FFE0
FFE0
0000
0000
0E00
0F00
0E00
ENDCHAR
STARTCHAR 1EC7
ENCODING 7879
SWIDTH 560 0
DWIDTH 14 0
BBX 13 24 1 -5
BITMAP
0F80
1FC0
3DE0
7070
0000
0F80
3FE0
7FF0
78F0
F078
F078
FFF8
FFF8
F000
F000
7800
7FF0
3FF0
1FE0
0000
0000
0700
0F00
0700
ENDCHAR
STARTCHAR 1EC8
ENCODING 7880
SWIDTH 320 0
DWIDTH 8 0
BBX 5 25 2 0
BITMAP
F0
F8
38
38
78
60
00
F0
F0
F0
F0
F0
F0
F0
F0
F0
F0
F0
F0
F0
F0
F0
F0
F0
F0
ENDCHAR
STARTCHAR 1EC9
ENCODING 7881
SWIDTH 280 0
DWIDTH 7 0
BBX 6 21 1 0
BITMAP
70
FC
9C
1C
38
30
00
78
78
78
78
78
78
78
78
78
78
78
78
78
78
ENDCHAR
STARTCHAR 1ECA
ENCODING 7882
SWIDTH 320 0
DWIDTH 8 0
BBX 4 23 2 -5
BITMAP
F0
F0
F0
F0
F0
F0
F0
F0
F0
F0
F0
F0
F0
F0
F0
F0
F0
F0
00
00
F0
F0
F0
ENDCHAR
STARTCHAR 1ECB
ENCODING 7883
SWIDTH 280 0
DWIDTH 7 0
BBX 4 24 2 -5
BITMAP
E0
F0
F0
40
00
F0
F0
F0
F0
F0
F0
F0
F0
F0
F0
F0
F0
F0
F0
00
00
F0
F0
F0
ENDCHAR
STARTCHAR 1ECC
ENCODING 7884
SWIDTH 760 0
DWIDTH 19 0
BBX 17 23 1 -5
BITMAP
07F800
1FFC00
3FFE00
3E1F00
7C0F80
780780
780780
780780
F80780
F00780
700780
780780
780780
7C0F80
3E1F00
3FFF00
1FFE00
07F800
000000
000000
01E000
01E000
01E000
ENDCHAR
STARTCHAR 1ECD
ENCODING 7885
SWIDTH 600 0
DWIDTH 15 0
BBX 13 19 1 -5
BITMAP
0F80
3FE0
7FF0
78F8
F078
F078
F038
F038
F078
F078
7878
7FF0
3FE0
1FC0
0000
0000
0780
0780
0700
ENDCHAR
STARTCHAR 1ECE
ENCODING 7886
SWIDTH 760 0
DWIDTH 19 0
BBX 17 25 1 0
BITMAP
01E000
01F000
007000
007000
00E000
00C000
000000
07F800
1FFC00
3FFE00
3E1F00
7C0F80
780780
780780
780780
F80780
F00780
700780
780780
780780
7C0F80
3E1F00
3FFF00
1FFE00
07F800
ENDCHAR
STARTCHAR 1ECF
ENCODING 7887
SWIDTH 600 0
DWIDTH 15 0
BBX 13 21 1 0
BITMAP
0F00
0FC0
09C0
01C0
0780
0300
0000
0F80
3FE0
7FF0
78F8
F078
F078
F038
F038
F078
F078
7878
7FF0
3FE0
1FC0
ENDCHAR
STARTCHAR 1ED0
ENCODING 7888
SWIDTH 760 0
DWIDTH 19 0
BBX 17 24 1 0
BITMAP
000700
01E600
03F000
073800
0E1800
000000
07F800
1FFC00
3FFE00
3E1F00
7C0F80
780780
780780
780780
F80780
F00780
700780
780780
780780
7C0F80
3E1F00
3FFF00
1FFE00
07F800
ENDCHAR
STARTCHAR 1ED1
ENCODING 7889
SWIDTH 600 0
DWIDTH 15 0
BBX 14 20 1 0
BITMAP
001C
0F98
0FC0
1DC0
3860
0000
0F80
3FE0
7FF0
78F8
F078
F078
F038
F038
F078
F078
7878
7FF0
3FE0
1FC0
ENDCHAR
STARTCHAR 1ED2
ENCODING 7890
SWIDTH 760 0
DWIDTH 19 0
BBX 17 24 1 0
BITMAP
700000
39E000
03F000
073800
0E1800
000000
07F800
1FFC00
3FFE00
3E1F00
7C0F80
780780
780780
780780
F80780
F00780
700780
780780
780780
7C0F80
3E1F00
3FFF00
1FFE00
07F800
ENDCHAR
STARTCHAR 1ED3
ENCODING 7891
SWIDTH 600 0
DWIDTH 15 0
BBX 14 20 0 0
BITMAP
E000
77C0
07E0
0EE0
1C30
0000
07C0
1FF0
3FF8
3C7C
783C
783C
781C
781C
783C
783C
3C3C
3FF8
1FF0
0FE0
ENDCHAR
STARTCHAR 1ED4
ENCODING 7892
SWIDTH 760 0
DWIDTH 19 0
BBX 17 26 1 0
BITMAP
000E00
000F00
000300
01E600
03F000
073800
0E1800
000000
07F800
1FFC00
3FFE00
3E1F00
7C0F80
780780
780780
780780
F80780
F00780
700780
780780
780780
7C0F80
3E1F00
3FFF00
1FFE00
07F800
ENDCHAR
STARTCHAR 1ED5
ENCODING 7893
SWIDTH 600 0
DWIDTH 15 0
BBX 14 22 1 0
BITMAP
0030
003C
000C
0FB8
0FF0
1DC0
3860
0000
0F80
3FE0
7FF0
78F8
F078
F078
F038
F038
F078
F078
7878
7FF0
3FE0
1FC0
ENDCHAR
STARTCHAR 1ED6
ENCODING 7894
SWIDTH 760 0
DWIDTH 19 0
BBX 17 26 1 0
BITMAP
07D800
07F800
0C2000
01E000
03F000
073800
0E1800
000000
07F800
1FFC00
3FFE00
3E1F00
7C0F80
780780
780780
780780
F80780
F00780
700780
780780
780780
7C0F80
3E1F00
3FFF00
1FFE00
07F800
ENDCHAR
STARTCHAR 1ED7
ENCODING 7895
SWIDTH 600 0
DWIDTH 15 0
BBX 13 22 1 0
BITMAP
1E60
1FE0
31C0
0780
0F80
1DC0
3860
0000
0F80
3FE0
7FF0
78F8
F078
F078
F038
F038
F078
F078
7878
7FF0
3FE0
1FC0
ENDCHAR
STARTCHAR 1ED8
ENCODING 7896
SWIDTH 760 0
DWIDTH 19 0
BBX 17 28 1 -5
BITMAP
03F000
07F800
0F3C00
0C0C00
000000
07F800
1FFC00
3FFE00
3E1F00
7C0F80
780780
780780
780780
F80780
F00780
700780
780780
780780
7C0F80
3E1F00
3FFF00
1FFE00
07F800
000000
000000
01E000
01E000
01E000
ENDCHAR
STARTCHAR 1ED9
ENCODING 7897
SWIDTH 600 0
DWIDTH 15 0
BBX 13 24 1 -5
BITMAP
0F80
1FC0
3CE0
7870
0000
0F80
3FE0
7FF0
78F8
F078
F078
F038
F038
F078
F078
7878
7FF0
3FE0
1FC0
0000
0000
0780
0780
0700
ENDCHAR
STARTCHAR 1EDA
ENCODING 7898
SWIDTH 800 0
DWIDTH 20 0
BBX 20 23 1 0
BITMAP
007800
00F000
01E000
018000
0000F0
07F8F0
1FFCF0
3FFFE0
3E1FC0
7C0F80
780780
780780
780780
F80780
F00780
700780
780780
780780
7C0F80
3E1F00
3FFF00
1FFE00
07F800
ENDCHAR
STARTCHAR 1EDB
ENCODING 7899
SWIDTH 640 0
DWIDTH 16 0
BBX 17 19 1 0
BITMAP
01E000
03C000
078000
0E0780
000780
0F8780
3FEF00
7FFE00
78FC00
F07800
F07800
F03800
F03800
F07800
F07800
787800
7FF000
3FE000
1FC000
ENDCHAR
STARTCHAR 1EDC
ENCODING 7900
SWIDTH 800 0
DWIDTH 20 0
BBX 20 23 1 0
BITMAP
078000
03C000
01E000
006000
0000F0
07F8F0
1FFCF0
3FFFE0
3E1FC0
7C0F80
780780
780780
780780
F80780
F00780
700780
780780
780780
7C0F80
3E1F00
3FFF00
1FFE00
07F800
ENDCHAR
STARTCHAR 1EDD
ENCODING 7901
SWIDTH 640 0
DWIDTH 16 0
BBX 17 19 1 0
BITMAP
3E0000
0E0000
070000
038780
000780
0F8780
3FEF00
7FFE00
78FC00
F07800
F07800
F03800
F03800
F07800
F07800
787800
7FF000
3FE000
1FC000
ENDCHAR
STARTCHAR 1EDE
ENCODING 7902
SWIDTH 800 0
DWIDTH 20 0
BBX 20 25 1 0
BITMAP
01E000
01F000
007000
007000
00F000
00C000
0000F0
07F8F0
1FFCF0
3FFFE0
3E1FC0
7C0F80
780780
780780
780780
F80780
F00780
700780
780780
780780
7C0F80
3E1F00
3FFF00
1FFE00
07F800
ENDCHAR
STARTCHAR 1EDF
ENCODING 7903
SWIDTH 640 0
DWIDTH 16 0
BBX 17 21 1 0
BITMAP
070000
0FC000
09C000
01C000
038000
030780
000780
0F8780
3FEF00
7FFE00
78FC00
F07800
F07800
F03800
F03800
F07800
F07800
787800
7FF000
3FE000
1FC000
ENDCHAR
STARTCHAR 1EE0
ENCODING 7904
SWIDTH 800 0
DWIDTH 20 0
BBX 20 23 1 0
BITMAP
078C00
0FFC00
0EF800
0C2000
0000F0
07F8F0
1FFCF0
3FFFE0
3E1FC0
7C0F80
780780
780780
780780
F80780
F00780
700780
780780
780780
7C0F80
3E1F00
3FFF00
1FFE00
07F800
ENDCHAR
STARTCHAR 1EE1
ENCODING 7905
SWIDTH 640 0
DWIDTH 16 0
BBX 17 19 1 0
BITMAP
1C3000
3FF000
3FE000
31C780
000780
0F8780
3FEF00
7FFE00
78FC00
F07800
F07800
F03800
F03800
F07800
F07800
787800
7FF000
3FE000
1FC000
ENDCHAR
STARTCHAR 1EE2
ENCODING 7906
SWIDTH 800 0
DWIDTH 20 0
BBX 20 24 1 -5
BITMAP
0000F0
07F8F0
1FFCF0
3FFFE0
3E1FC0
7C0F80
780780
780780
780780
F80780
F00780
700780
780780
780780
7C0F80
3E1F00
3FFF00
1FFE00
07F800
000000
000000
01E000
01E000
01E000
ENDCHAR
STARTCHAR 1EE3
ENCODING 7907
SWIDTH 640 0
DWIDTH 16 0
BBX 17 21 1 -5
BITMAP
000780
000780
0F8780
3FEF00
7FFE00
78FC00
F07800
F07800
F03800
F03800
F07800
F07800
787800
7FF000
3FE000
1FC000
000000
000000
078000
078000
078000
ENDCHAR
STARTCHAR 1EE4
ENCODING 7908
SWIDTH 720 0
DWIDTH 18 0
BBX 15 23 2 -5
BITMAP
F01E
F01E
F01E
F01E
F01E
F01E
F01E
F01E
F01E
F01E
F01E
F01E
F01E
F01E
783C
7FFC
3FF8
1FE0
0000
0000
0380
0780
0380
ENDCHAR
STARTCHAR 1EE5
ENCODING 7909
SWIDTH 640 0
DWIDTH 16 0
BBX 12 19 2 -5
BITMAP
F070
F070
F070
F070
F070
F070
F070
F070
F070
F0F0
F0F0
FFF0
7FF0
3F70
0000
0000
0F00
0F00
0F00
ENDCHAR
STARTCHAR 1EE6
ENCODING 7910
SWIDTH 720 0
DWIDTH 18 0
BBX 15 25 2 0
BITMAP
0780
07C0
01C0
01C0
03C0
0300
0000
F01E
F01E
F01E
F01E
F01E
F01E
F01E
F01E
F01E
F01E
F01E
F01E
F01E
F01E
783C
7FFC
3FF8
1FE0
ENDCHAR
STARTCHAR 1EE7
ENCODING 7911
SWIDTH 640 0
DWIDTH 16 0
BBX 12 21 2 0
BITMAP
0F00
0F80
0380
0380
0780
0600
0000
F070
F070
F070
F070
F070
F070
F070
F070
F070
F0F0
F0F0
FFF0
7FF0
3F70
ENDCHAR
STARTCHAR 1EE8
ENCODING 7912
SWIDTH 880 0
DWIDTH 22 0
BBX 20 23 2 0
BITMAP
01F000
01C000
038000
070000
0000F0
F01EF0
F01EF0
F01FE0
F01FC0
F01F00
F01E00
F01E00
F01E00
F01E00
F01E00
F01E00
F01E00
F01E00
F01E00
783C00
7FFC00
3FF800
1FE000
ENDCHAR
STARTCHAR 1EE9
ENCODING 7913
SWIDTH 760 0
DWIDTH 19 0
BBX 18 19 2 0
BITMAP
03E000
038000
070000
0E03C0
0003C0
F073C0
F07780
F07F00
F07E00
F07000
F07000
F07000
F07000
F07000
F0F000
F0F000
FFF000
7FF000
3F7000
ENDCHAR
STARTCHAR 1EEA
ENCODING 7914
SWIDTH 880 0
DWIDTH 22 0
BBX 20 23 2 0
BITMAP
1E0000
0F0000
038000
01C000
0000F0
F01EF0
F01EF0
F01FE0
F01FC0
F01F00
F01E00
F01E00
F01E00
F01E00
F01E00
F01E00
F01E00
F01E00
F01E00
783C00
7FFC00
3FF800
1FE000
ENDCHAR
STARTCHAR 1EEB
ENCODING 7915
SWIDTH 760 0
DWIDTH 19 0
BBX 18 19 2 0
BITMAP
3C0000
1E0000
0F0000
0303C0
0003C0
F073C0
F07780
F07F00
F07E00
F07000
F07000
F07000
F07000
F07000
F0F000
F0F000
FFF000
7FF000
3F7000
ENDCHAR
STARTCHAR 1EEC
ENCODING 7916
SWIDTH 880 0
DWIDTH 22 0
BBX 20 25 2 0
BITMAP
078000
07C000
01E000
01C000
03C000
038000
0000F0
F01EF0
F01EF0
F01FE0
F01FC0
F01F00
F01E00
F01E00
F01E00
F01E00
F01E00
F01E00
F01E00
F01E00
F01E00
783C00
7FFC00
3FF800
1FE000
ENDCHAR
STARTCHAR 1EED
ENCODING 7917
SWIDTH 760 0
DWIDTH 19 0
BBX 18 21 2 0
BITMAP
0F0000
0F8000
038000
038000
078000
0603C0
0003C0
F073C0
F07780
F07F00
F07E00
F07000
F07000
F07000
F07000
F07000
F0F000
F0F000
FFF000
7FF000
3F7000
ENDCHAR
STARTCHAR 1EEE
ENCODING 7918
SWIDTH 880 0
DWIDTH 22 0
BBX 20 23 2 0
BITMAP
0F3000
1FF000
1BF000
30C000
0000F0
F01EF0
F01EF0
F01FE0
F01FC0
F01F00
F01E00
F01E00
F01E00
F01E00
F01E00
F01E00
F01E00
F01E00
F01E00
783C00
7FFC00
3FF800
1FE000
ENDCHAR
STARTCHAR 1EEF
ENCODING 7919
SWIDTH 760 0
DWIDTH 19 0
BBX 18 19 2 0
BITMAP
1C6000
3FE000
7FE000
6183C0
0003C0
F073C0
F07780
F07F00
F07E00
F07000
F07000
F07000
F07000
F07000
F0F000
F0F000
FFF000
7FF000
3F7000
ENDCHAR
STARTCHAR 1EF0
ENCODING 7920
SWIDTH 880 0
DWIDTH 22 0
BBX 20 24 2 -5
BITMAP
0000F0
F01EF0
F01EF0
F01FE0
F01FC0
F01F00
F01E00
F01E00
F01E00
F01E00
F01E00
F01E00
F01E00
F01E00
F01E00
783C00
7FFC00
3FF800
1FE000
000000
000000
078000
078000
038000
ENDCHAR
STARTCHAR 1EF1
ENCODING 7921
SWIDTH 760 0
DWIDTH 19 0
BBX 18 21 2 -5
BITMAP
0003C0
0003C0
F073C0
F07780
F07F00
F07E00
F07000
F07000
F07000
F07000
F07000
F0F000
F0F000
FFF000
7FF000
3F7000
000000
000000
0F0000
0F0000
0F0000
ENDCHAR
STARTCHAR 1EF2
ENCODING 7922
SWIDTH 600 0
DWIDTH 15 0
BBX 15 23 0 0
BITMAP
0F00
0780
0380
01C0
0000
F01E
781E
783C
3C3C
3C78
1E78
1EF0
0FF0
0FE0
07E0
03C0
03C0
03C0
03C0
03C0
03C0
03C0
03C0
ENDCHAR
STARTCHAR 1EF3
ENCODING 7923
SWIDTH 560 0
DWIDTH 14 0
BBX 14 25 0 -6
BITMAP
1E00
0F00
0780
0380
0000
F03C
F03C
7838
7878
3878
3C70
3CF0
1CF0
1EE0
0FE0
0FC0
0FC0
07C0
0780
0780
0780
0F00
7F00
7E00
7800
ENDCHAR
STARTCHAR 1EF4
ENCODING 7924
SWIDTH 600 0
DWIDTH 15 0
BBX 15 23 0 -5
BITMAP
F01E
781E
783C
3C3C
3C78
1E78
1EF0
0FF0
0FE0
07E0
03C0
03C0
03C0
03C0
03C0
03C0
03C0
03C0
0000
0000
03C0
03C0
03C0
ENDCHAR
STARTCHAR 1EF5
ENCODING 7925
SWIDTH 560 0
DWIDTH 14 0
BBX 14 20 0 -6
BITMAP
F03C
F03C
7838
7878
3878
3C70
3CF0
1CF0
1EE0
0FE0
0FC0
0FC0
07C0
0780
0780
0780
0F78
7F78
7E38
7800
ENDCHAR
STARTCHAR 1EF6
ENCODING 7926
SWIDTH 600 0
DWIDTH 15 0
BBX 15 25 0 0
BITMAP
07C0
07E0
00E0
00E0
03C0
0180
0000
F01E
781E
783C
3C3C
3C78
1E78
1EF0
0FF0
0FE0
07E0
03C0
03C0
03C0
03C0
03C0
03C0
03C0
03C0
ENDCHAR
STARTCHAR 1EF7
ENCODING 7927
SWIDTH 560 0
DWIDTH 14 0
BBX 14 27 0 -6
BITMAP
0780
07C0
01C0
01C0
03C0
0300
0000
F03C
F03C
7838
7878
3878
3C70
3CF0
1CF0
1EE0
0FE0
0FC0
0FC0
07C0
0780
0780
0780
0F00
7F00
7E00
7800
ENDCHAR
STARTCHAR 1EF8
ENCODING 7928
SWIDTH 600 0
DWIDTH 15 0
BBX 15 23 0 0
BITMAP
0F18
1FF8
1BF0
1860
0000
F01E
781E
783C
3C3C
3C78
1E78
1EF0
0FF0
0FE0
07E0
03C0
03C0
03C0
03C0
03C0
03C0
03C0
03C0
ENDCHAR
STARTCHAR 1EF9
ENCODING 7929
SWIDTH 560 0
DWIDTH 14 0
BBX 14 25 0 -6
BITMAP
0E30
1FF0
3FE0
30C0
0000
F03C
F03C
7838
7878
3878
3C70
3CF0
1CF0
1EE0
0FE0
0FC0
0FC0
07C0
0780
0780
0780
0F00
7F00
7E00
7800
ENDCHAR
STARTCHAR 1F4D
ENCODING 8013
SWIDTH 1000 0
DWIDTH 25 0
BBX 24 18 0 0
BITMAP
E70FE0
EE3FF8
CE7FFC
6CF83E
00F01E
01E01E
01E00F
01E00F
01E00F
01E00F
01E00F
01E00F
01E01E
00F01E
00F83E
007FFC
003FF8
001FE0
ENDCHAR
STARTCHAR 1FDE
ENCODING 8158
SWIDTH 560 0
DWIDTH 14 0
BBX 8 4 3 15
BITMAP
E7
E7
4E
7C
ENDCHAR
STARTCHAR 2000
ENCODING 8192
SWIDTH 480 0
DWIDTH 12 0
BBX 0 0 0 0
BITMAP
ENDCHAR
STARTCHAR 2001
ENCODING 8193
SWIDTH 1000 0
DWIDTH 25 0
BBX 0 0 0 0
BITMAP
ENDCHAR
STARTCHAR 2002
ENCODING 8194
SWIDTH 480 0
DWIDTH 12 0
BBX 0 0 0 0
BITMAP
ENDCHAR
STARTCHAR 2003
ENCODING 8195
SWIDTH 1000 0
DWIDTH 25 0
BBX 0 0 0 0
BITMAP
ENDCHAR
STARTCHAR 2004
ENCODING 8196
SWIDTH 320 0
DWIDTH 8 0
BBX 0 0 0 0
BITMAP
ENDCHAR
STARTCHAR 2005
ENCODING 8197
SWIDTH 240 0
DWIDTH 6 0
BBX 0 0 0 0
BITMAP
ENDCHAR
STARTCHAR 2006
ENCODING 8198
SWIDTH 160 0
DWIDTH 4 0
BBX 0 0 0 0
BITMAP
ENDCHAR
STARTCHAR 2007
ENCODING 8199
SWIDTH 560 0
DWIDTH 14 0
BBX 0 0 0 0
BITMAP
ENDCHAR
STARTCHAR 2008
ENCODING 8200
SWIDTH 280 0
DWIDTH 7 0
BBX 0 0 0 0
BITMAP
ENDCHAR
STARTCHAR 2009
ENCODING 8201
SWIDTH 160 0
DWIDTH 4 0
BBX 0 0 0 0
BITMAP
ENDCHAR
STARTCHAR 200A
ENCODING 8202
SWIDTH 80 0
DWIDTH 2 0
BBX 0 0 0 0
BITMAP
ENDCHAR
STARTCHAR 200B
ENCODING 8203
SWIDTH 0 0
DWIDTH 0 0
BBX 0 0 0 0
BITMAP
ENDCHAR
STARTCHAR 2013
ENCODING 8211
SWIDTH 480 0
DWIDTH 12 0
BBX 11 3 1 5
BITMAP
FFE0
FFE0
FFE0
ENDCHAR
STARTCHAR 2014
ENCODING 8212
SWIDTH 1000 0
DWIDTH 25 0
BBX 23 3 1 5
BITMAP
FFFFFE
FFFFFE
FFFFFE
ENDCHAR
STARTCHAR 2015
ENCODING 8213
SWIDTH 1000 0
DWIDTH 25 0
BBX 23 3 1 5
BITMAP
FFFFFE
FFFFFE
FFFFFE
ENDCHAR
STARTCHAR 2017
ENCODING 8215
SWIDTH 400 0
DWIDTH 10 0
BBX 10 5 0 -6
BITMAP
FFC0
0000
0000
FFC0
FFC0
ENDCHAR
STARTCHAR 2018
ENCODING 8216
SWIDTH 200 0
DWIDTH 5 0
BBX 5 6 0 12
BITMAP
38
38
78
70
70
F0
ENDCHAR
STARTCHAR 2019
ENCODING 8217
SWIDTH 200 0
DWIDTH 5 0
BBX 5 6 0 12
BITMAP
78
78
78
70
70
E0
ENDCHAR
STARTCHAR 201A
ENCODING 8218
SWIDTH 280 0
DWIDTH 7 0
BBX 5 6 1 -3
BITMAP
78
70
70
F0
E0
E0
ENDCHAR
STARTCHAR 201B
ENCODING 8219
SWIDTH 200 0
DWIDTH 5 0
BBX 5 6 0 12
BITMAP
F0
70
70
70
38
38
ENDCHAR
STARTCHAR 201C
ENCODING 8220
SWIDTH 440 0
DWIDTH 11 0
BBX 11 6 0 12
BITMAP
38E0
38E0
79C0
71C0
73C0
F3C0
ENDCHAR
STARTCHAR 201D
ENCODING 8221
SWIDTH 440 0
DWIDTH 11 0
BBX 11 6 0 12
BITMAP
79E0
79E0
79C0
71C0
7380
E380
ENDCHAR
STARTCHAR 201E
ENCODING 8222
SWIDTH 480 0
DWIDTH 12 0
BBX 10 6 1 -3
BITMAP
79C0
73C0
73C0
F380
E380
E300
ENDCHAR
STARTCHAR 2020
ENCODING 8224
SWIDTH 480 0
DWIDTH 12 0
BBX 10 19 1 0
BITMAP
0E00
0E00
0E00
0E00
0C00
FFC0
FFC0
CCC0
0C00
0C00
0E00
0E00
0E00
0E00
0E00
0E00
0E00
0E00
0E00
ENDCHAR
STARTCHAR 2021
ENCODING 8225
SWIDTH 480 0
DWIDTH 12 0
BBX 11 19 1 0
BITMAP
0E00
0E00
0E00
0E00
ECE0
FFE0
FFE0
0E00
0E00
0E00
0E00
0E00
FFE0
FFE0
EDE0
0E00
0E00
0E00
0E00
ENDCHAR
STARTCHAR 2022
ENCODING 8226
SWIDTH 360 0
DWIDTH 9 0
BBX 7 8 1 5
BITMAP
3C
7E
FE
FE
FE
FE
7C
18
ENDCHAR
STARTCHAR 2026
ENCODING 8230
SWIDTH 840 0
DWIDTH 21 0
BBX 19 4 1 0
BITMAP
7060C0
78F1E0
F8F1E0
70E1E0
ENDCHAR
STARTCHAR 2030
ENCODING 8240
SWIDTH 1280 0
DWIDTH 32 0
BBX 30 18 1 0
BITMAP
3C030000
7E070000
FF0E0000
E70E0000
E71C0000
E71C0000
E7380000
E73BC0F0
FF77F1F8
7E67F3FC
3CEF7B9C
01CE3B9C
01CE3B9C
038E3B9C
038F7B9C
0707739C
0707F1F8
0E03E0F8
ENDCHAR
STARTCHAR 2032
ENCODING 8242
SWIDTH 280 0
DWIDTH 7 0
BBX 7 7 1 11
BITMAP
1E
1C
38
38
70
60
E0
ENDCHAR
STARTCHAR 2033
ENCODING 8243
SWIDTH 520 0
DWIDTH 13 0
BBX 12 7 1 11
BITMAP
1E70
1CE0
38E0
39C0
7180
6380
E300
ENDCHAR
STARTCHAR 2039
ENCODING 8249
SWIDTH 360 0
DWIDTH 9 0
BBX 7 12 1 1
BITMAP
08
0C
1E
3C
78
F0
F0
78
3C
1C
1E
08
ENDCHAR
STARTCHAR 203A
ENCODING 8250
SWIDTH 360 0
DWIDTH 9 0
BBX 7 11 1 2
BITMAP
70
F0
78
3C
1E
1E
3C
38
78
F0
20
ENDCHAR
STARTCHAR 203C
ENCODING 8252
SWIDTH 560 0
DWIDTH 14 0
BBX 12 18 1 0
BITMAP
78F0
78F0
78F0
78F0
70F0
70F0
70F0
70E0
70E0
70E0
70E0
70E0
0000
0000
7060
78F0
F8F0
70E0
ENDCHAR
STARTCHAR 2044
ENCODING 8260
SWIDTH 120 0
DWIDTH 3 0
BBX 13 18 -5 0
BITMAP
0038
0070
0070
00E0
00E0
01C0
01C0
0380
0700
0700
0E00
0E00
1C00
1C00
3800
3800
7000
E000
ENDCHAR
STARTCHAR 2070
ENCODING 8304
SWIDTH 360 0
DWIDTH 9 0
BBX 9 11 0 10
BITMAP
3E00
7F00
7780
7380
7380
F380
7380
7380
7F00
3F00
1E00
ENDCHAR
STARTCHAR 2074
ENCODING 8308
SWIDTH 360 0
DWIDTH 9 0
BBX 9 11 0 10
BITMAP
0F00
0F00
1F00
3700
3700
6700
E700
FF80
FF80
0700
0700
ENDCHAR
STARTCHAR 2075
ENCODING 8309
SWIDTH 360 0
DWIDTH 9 0
BBX 8 11 1 10
BITMAP
7E
FE
E0
E0
FE
7E
07
07
CF
FE
78
ENDCHAR
STARTCHAR 2076
ENCODING 8310
SWIDTH 360 0
DWIDTH 9 0
BBX 8 11 1 10
BITMAP
3E
7E
E0
E0
DE
FF
C7
C7
EF
7E
38
ENDCHAR
STARTCHAR 2077
ENCODING 8311
SWIDTH 360 0
DWIDTH 9 0
BBX 8 11 1 10
BITMAP
FF
FF
07
0E
0E
1C
1C
38
38
70
70
ENDCHAR
STARTCHAR 2078
ENCODING 8312
SWIDTH 360 0
DWIDTH 9 0
BBX 8 11 1 10
BITMAP
7E
FE
E7
EE
7C
7E
EF
C7
E7
FE
3C
ENDCHAR
STARTCHAR 2079
ENCODING 8313
SWIDTH 360 0
DWIDTH 9 0
BBX 8 11 1 10
BITMAP
7C
FE
C7
C7
E7
FF
77
06
BE
FC
F0
ENDCHAR
STARTCHAR 207A
ENCODING 8314
SWIDTH 320 0
DWIDTH 8 0
BBX 7 7 1 8
BITMAP
30
30
30
FE
FE
30
30
ENDCHAR
STARTCHAR 207C
ENCODING 8316
SWIDTH 320 0
DWIDTH 8 0
BBX 7 5 1 9
BITMAP
FE
FE
00
FE
FE
ENDCHAR
STARTCHAR 207D
ENCODING 8317
SWIDTH 240 0
DWIDTH 6 0
BBX 4 13 1 6
BITMAP
70
60
60
E0
C0
C0
C0
C0
C0
C0
E0
60
70
ENDCHAR
STARTCHAR 207E
ENCODING 8318
SWIDTH 240 0
DWIDTH 6 0
BBX 4 13 1 6
BITMAP
E0
60
70
30
30
30
30
30
30
30
70
60
E0
ENDCHAR
STARTCHAR 207F
ENCODING 8319
SWIDTH 400 0
DWIDTH 10 0
BBX 8 8 1 8
BITMAP
DF
F7
E3
E3
E3
E3
E3
E3
ENDCHAR
STARTCHAR 2080
ENCODING 8320
SWIDTH 360 0
DWIDTH 9 0
BBX 9 12 0 -4
BITMAP
0C00
3F00
7F00
7380
7380
F380
7380
7380
7780
7F00
3F00
0800
ENDCHAR
STARTCHAR 2081
ENCODING 8321
SWIDTH 360 0
DWIDTH 9 0
BBX 6 10 1 -3
BITMAP
1C
7C
FC
5C
1C
1C
1C
1C
1C
1C
ENDCHAR
STARTCHAR 2082
ENCODING 8322
SWIDTH 360 0
DWIDTH 9 0
BBX 8 11 1 -3
BITMAP
18
FE
FE
0E
0E
1E
3C
78
F0
FF
FF
ENDCHAR
STARTCHAR 2083
ENCODING 8323
SWIDTH 360 0
DWIDTH 9 0
BBX 7 11 1 -3
BITMAP
18
FE
FE
0E
0E
78
7E
06
06
FE
FC
ENDCHAR
STARTCHAR 2084
ENCODING 8324
SWIDTH 360 0
DWIDTH 9 0
BBX 9 11 0 -3
BITMAP
0700
0F00
1F00
1F00
3700
7700
6700
FF80
FF80
0700
0700
ENDCHAR
STARTCHAR 2085
ENCODING 8325
SWIDTH 360 0
DWIDTH 9 0
BBX 8 10 1 -3
BITMAP
7E
FE
E0
F8
FE
0F
07
07
FE
FE
ENDCHAR
STARTCHAR 2086
ENCODING 8326
SWIDTH 360 0
DWIDTH 9 0
BBX 8 11 1 -3
BITMAP
0E
7E
7E
E0
CC
FE
E7
C7
E7
FF
7E
ENDCHAR
STARTCHAR 2087
ENCODING 8327
SWIDTH 360 0
DWIDTH 9 0
BBX 8 10 1 -3
BITMAP
FF
FF
06
0E
0E
1C
1C
38
38
70
ENDCHAR
STARTCHAR 2088
ENCODING 8328
SWIDTH 360 0
DWIDTH 9 0
BBX 8 12 1 -4
BITMAP
38
FE
E6
E6
FE
7C
FE
E7
C7
FF
7E
10
ENDCHAR
STARTCHAR 2089
ENCODING 8329
SWIDTH 360 0
DWIDTH 9 0
BBX 8 11 1 -3
BITMAP
38
FE
FE
C7
C7
EF
FF
07
0E
FE
FC
ENDCHAR
STARTCHAR 208A
ENCODING 8330
SWIDTH 320 0
DWIDTH 8 0
BBX 7 7 1 -3
BITMAP
30
30
FE
FE
30
30
30
ENDCHAR
STARTCHAR 208C
ENCODING 8332
SWIDTH 320 0
DWIDTH 8 0
BBX 7 5 1 -2
BITMAP
FE
FE
00
FE
FE
ENDCHAR
STARTCHAR 208D
ENCODING 8333
SWIDTH 240 0
DWIDTH 6 0
BBX 4 14 1 -5
BITMAP
30
60
60
E0
C0
C0
C0
C0
C0
C0
E0
60
60
30
ENDCHAR
STARTCHAR 208E
ENCODING 8334
SWIDTH 240 0
DWIDTH 6 0
BBX 4 14 1 -5
BITMAP
C0
60
60
70
30
30
30
30
30
30
70
60
60
C0
ENDCHAR
STARTCHAR 2095
ENCODING 8341
SWIDTH 400 0
DWIDTH 10 0
BBX 8 11 1 -2
BITMAP
E0
E0
E0
FE
FF
E3
E3
E3
E3
E3
E3
ENDCHAR
STARTCHAR 2096
ENCODING 8342
SWIDTH 400 0
DWIDTH 10 0
BBX 9 11 1 -2
BITMAP
E000
E000
E000
E380
E700
EE00
FC00
FC00
EE00
E700
E380
ENDCHAR
STARTCHAR 2097
ENCODING 8343
SWIDTH 160 0
DWIDTH 4 0
BBX 3 11 1 -2
BITMAP
E0
E0
E0
E0
E0
E0
E0
E0
E0
E0
E0
ENDCHAR
STARTCHAR 2098
ENCODING 8344
SWIDTH 600 0
DWIDTH 15 0
BBX 14 8 1 -2
BITMAP
DE78
FFF8
E79C
E31C
E31C
E31C
E31C
E31C
ENDCHAR
STARTCHAR 2099
ENCODING 8345
SWIDTH 400 0
DWIDTH 10 0
BBX 8 8 1 -2
BITMAP
DE
FF
E3
E3
E3
E3
E3
E3
ENDCHAR
STARTCHAR 209A
ENCODING 8346
SWIDTH 400 0
DWIDTH 10 0
BBX 9 12 1 -6
BITMAP
CE00
FF00
E300
E380
E380
E300
F700
FF00
E000
E000
E000
E000
ENDCHAR
STARTCHAR 209B
ENCODING 8347
SWIDTH 320 0
DWIDTH 8 0
BBX 6 9 1 -3
BITMAP
7C
FC
C0
F0
7C
1C
0C
FC
20
ENDCHAR
STARTCHAR 209C
ENCODING 8348
SWIDTH 280 0
DWIDTH 7 0
BBX 7 11 0 -3
BITMAP
30
30
7C
FC
30
30
30
30
30
3E
18
ENDCHAR
STARTCHAR 20A3
ENCODING 8355
SWIDTH 560 0
DWIDTH 14 0
BBX 13 18 0 0
BITMAP
3FF8
3FF8
3FF8
3C00
3C00
3C00
3C00
3FF8
3FF8
3FF8
3C00
3C00
3C00
FFC0
FFC0
3C00
3C00
3C00
ENDCHAR
STARTCHAR 20A4
ENCODING 8356
SWIDTH 560 0
DWIDTH 14 0
BBX 13 18 1 0
BITMAP
07E0
1FF0
1FF0
3C00
3C00
3C00
FFC0
FFC0
FFC0
3C00
FFC0
FFC0
3C00
3800
7800
FFF8
FFF8
FFF8
ENDCHAR
STARTCHAR 20A7
ENCODING 8359
SWIDTH 880 0
DWIDTH 22 0
BBX 20 18 2 0
BITMAP
FF0000
FFC000
FFE000
F3E000
F0E000
F0F300
F0F300
F0E700
F7EFE0
FFDFE0
FF8700
FE0700
F00700
F00700
F00700
F007F0
F007F0
F003F0
ENDCHAR
STARTCHAR 20AA
ENCODING 8362
SWIDTH 880 0
DWIDTH 22 0
BBX 19 18 2 0
BITMAP
FFC0E0
FFF0E0
FFF8E0
E078E0
E038E0
E7BCE0
E7BCE0
E7BCE0
E7BCE0
E7BCE0
E7BCE0
E7BCE0
E7BDE0
E781E0
E781C0
E7FFC0
E7FF80
E7FE00
ENDCHAR
STARTCHAR 20AB
ENCODING 8363
SWIDTH 640 0
DWIDTH 16 0
BBX 15 23 1 -4
BITMAP
0078
0078
07FE
07FE
0078
0078
1F78
3FF8
7FF8
78F8
F078
F078
F078
F078
F078
F878
7FF8
3FF8
1F38
0000
0000
3FF0
3FF0
ENDCHAR
STARTCHAR 20AC
ENCODING 8364
SWIDTH 560 0
DWIDTH 14 0
BBX 13 18 1 0
BITMAP
03F0
0FF8
1FF0
3E10
3C00
3800
FFC0
FFC0
FFC0
7800
FF80
FF80
3800
3C00
3E00
1FF0
0FF0
07F0
ENDCHAR
STARTCHAR 2105
ENCODING 8453
SWIDTH 760 0
DWIDTH 19 0
BBX 18 18 1 0
BITMAP
3C0E00
7C1C00
E01C00
C03800
C03800
C07000
E27000
7EE000
3DC000
01C600
039F80
03B9C0
0739C0
0730C0
0E30C0
0E39C0
1C1F80
380F00
ENDCHAR
STARTCHAR 2113
ENCODING 8467
SWIDTH 520 0
DWIDTH 13 0
BBX 12 18 0 0
BITMAP
07C0
1FE0
1EF0
1CF0
1CF0
1CF0
1CE0
1DE0
1FC0
3F00
FC00
FC00
1C00
1C30
1C70
1E70
0FE0
07C0
ENDCHAR
STARTCHAR 2116
ENCODING 8470
SWIDTH 1000 0
DWIDTH 25 0
BBX 23 18 2 0
BITMAP
F03800
F03800
F83800
F83800
FC3800
FC3800
FE38F8
EE39FC
EF398E
E7398E
E7BB8E
E3B98E
E3F9DC
E1F8FC
E1F870
E0F800
E0F9FE
E079FE
ENDCHAR
STARTCHAR 2120
ENCODING 8480
SWIDTH 760 0
DWIDTH 19 0
BBX 17 9 1 9
BITMAP
79C380
E9C380
C1C780
E1E580
79A580
1DAD80
0DB980
9D9980
F99980
ENDCHAR
STARTCHAR 2122
ENCODING 8482
SWIDTH 760 0
DWIDTH 19 0
BBX 18 9 0 9
BITMAP
FEE1C0
FEE1C0
18E3C0
18F2C0
18F2C0
18D6C0
18DCC0
18CCC0
18CCC0
ENDCHAR
STARTCHAR 2126
ENCODING 8486
SWIDTH 760 0
DWIDTH 19 0
BBX 18 18 1 0
BITMAP
07F800
1FFE00
3FFF00
7E1F00
780F80
780780
F00780
F00780
F00780
700780
700780
780700
380F00
1C0E00
0E3C00
FE3FC0
FE3FC0
FE3FC0
ENDCHAR
STARTCHAR 212E
ENCODING 8494
SWIDTH 600 0
DWIDTH 15 0
BBX 13 13 1 0
BITMAP
1FC0
3020
6030
6038
E038
FFF8
FFF8
E000
E000
6000
6010
3020
1FC0
ENDCHAR
STARTCHAR 215B
ENCODING 8539
SWIDTH 880 0
DWIDTH 22 0
BBX 20 18 1 0
BITMAP
1C0E00
3C0E00
FC1C00
DC1C00
1C3800
1C3000
1C7000
1CE7C0
1CEFE0
1DCE60
1DCE60
038FE0
0387C0
070FE0
060C70
0E0C70
1C0FE0
1C07E0
ENDCHAR
STARTCHAR 215C
ENCODING 8540
SWIDTH 880 0
DWIDTH 22 0
BBX 20 18 1 0
BITMAP
7C0700
FE0700
4E0E00
0E0C00
7C1C00
7C3800
1E3800
0673C0
8E77F0
FEEE70
FCEE70
01C7E0
0183C0
038FF0
070E70
070E70
0E0FF0
0E07E0
ENDCHAR
STARTCHAR 215D
ENCODING 8541
SWIDTH 880 0
DWIDTH 22 0
BBX 21 18 1 0
BITMAP
7E0700
7E0700
600E00
600E00
FC1C00
FE1C00
073800
0773E0
8777F0
FEE670
FCE670
01C7F0
01C3E0
0387F0
038E30
070E38
0E0FF0
0E07E0
ENDCHAR
STARTCHAR 215E
ENCODING 8542
SWIDTH 880 0
DWIDTH 22 0
BBX 20 18 1 0
BITMAP
FF0E00
FF0E00
071C00
0E1C00
0E3800
1C3800
1C7000
18E3C0
38EFE0
39CE60
71CE60
038FE0
0387C0
070FE0
070C70
0E0C70
1C0FF0
1C07E0
ENDCHAR
STARTCHAR 2202
ENCODING 8706
SWIDTH 560 0
DWIDTH 14 0
BBX 13 18 1 0
BITMAP
0FC0
1FE0
1FF0
10F0
0070
0678
1FF8
3FF8
7CF8
F870
F0F0
F0F0
F0F0
F1E0
F3E0
FFC0
7F80
3F00
ENDCHAR
STARTCHAR 2206
ENCODING 8710
SWIDTH 640 0
DWIDTH 16 0
BBX 15 18 1 0
BITMAP
07C0
07C0
0FC0
0FE0
0EE0
1EE0
1CF0
1CF0
3C70
3878
3878
7838
703C
F03C
F01C
FFFE
FFFE
FFFE
ENDCHAR
STARTCHAR 220F
ENCODING 8719
SWIDTH 720 0
DWIDTH 18 0
BBX 15 24 2 -6
BITMAP
FFFE
FFFE
FFFE
F01E
F01E
F01E
F01E
F01E
F01E
F01E
F01E
F01E
F01E
F01E
F01E
F01E
F01E
F01E
F01E
F01E
F01E
F01E
F01E
F01E
ENDCHAR
STARTCHAR 2211
ENCODING 8721
SWIDTH 600 0
DWIDTH 15 0
BBX 16 24 0 -6
BITMAP
7FFE
7FFE
7FFE
3C00
3E00
1E00
0F00
0780
07C0
03C0
01E0
01F0
01E0
03C0
07C0
0780
0F00
1E00
1E00
3C00
7FFF
FFFF
FFFF
FFFF
ENDCHAR
STARTCHAR 2212
ENCODING 8722
SWIDTH 560 0
DWIDTH 14 0
BBX 12 3 1 7
BITMAP
FFF0
FFF0
FFF0
ENDCHAR
STARTCHAR 2215
ENCODING 8725
SWIDTH 400 0
DWIDTH 10 0
BBX 10 18 0 0
BITMAP
01C0
03C0
0380
0380
0780
0700
0F00
0E00
0E00
1E00
1C00
1C00
3C00
3800
7800
7000
7000
F000
ENDCHAR
STARTCHAR 221A
ENCODING 8730
SWIDTH 520 0
DWIDTH 13 0
BBX 15 21 0 0
BITMAP
0006
000E
000E
001C
001C
001C
0038
0038
0038
0070
F870
F860
18E0
1CE0
1CC0
0FC0
0FC0
0780
0780
0780
0300
ENDCHAR
STARTCHAR 221E
ENCODING 8734
SWIDTH 680 0
DWIDTH 17 0
BBX 15 8 1 5
BITMAP
3C38
7EFC
7FFE
E3C6
E386
67CE
7FFE
3C7C
ENDCHAR
STARTCHAR 222B
ENCODING 8747
SWIDTH 400 0
DWIDTH 10 0
BBX 10 25 0 -6
BITMAP
07C0
0FC0
0FC0
1F00
1E00
1E00
1E00
1E00
1E00
1E00
1E00
1E00
1E00
1E00
1E00
1E00
1E00
1E00
1E00
1E00
1E00
1E00
FE00
FC00
F800
ENDCHAR
STARTCHAR 2248
ENCODING 8776
SWIDTH 560 0
DWIDTH 14 0
BBX 12 9 1 4
BITMAP
7E10
FFF0
EFF0
81E0
0000
7E10
FFF0
CFF0
01C0
ENDCHAR
STARTCHAR 2260
ENCODING 8800
SWIDTH 560 0
DWIDTH 14 0
BBX 12 14 1 2
BITMAP
0080
01C0
01C0
FFF0
FFF0
FFF0
0700
0600
FFF0
FFF0
FFF0
1C00
3800
3800
ENDCHAR
STARTCHAR 2264
ENCODING 8804
SWIDTH 560 0
DWIDTH 14 0
BBX 12 16 1 0
BITMAP
0030
00F0
03F0
0FC0
3F00
FC00
F000
FE00
3F80
07E0
01F0
0070
0000
FFF0
FFF0
FFF0
ENDCHAR
STARTCHAR 2265
ENCODING 8805
SWIDTH 560 0
DWIDTH 14 0
BBX 12 16 1 0
BITMAP
C000
F000
FC00
3F00
0FC0
03F0
00F0
03F0
1FC0
7F00
F800
E000
8000
FFF0
FFF0
FFF0
ENDCHAR
STARTCHAR 25CA
ENCODING 9674
SWIDTH 560 0
DWIDTH 14 0
BBX 12 18 1 0
BITMAP
0600
0700
0F00
1F80
1DC0
39C0
38E0
70F0
F070
F070
70F0
38E0
39C0
1DC0
1F80
0F80
0700
0600
ENDCHAR
STARTCHAR A7B3
ENCODING 42931
SWIDTH 680 0
DWIDTH 17 0
BBX 17 24 0 -6
BITMAP
7C0780
7C0F00
7E0F00
1E1E00
0F1E00
073C00
07B800
07F800
03F000
03F000
01E000
01E000
03E000
03E000
07F000
077000
0F7800
1E7800
1E3800
3C3C00
3C3E00
781F80
780F80
F00780
ENDCHAR
STARTCHAR A7B4
ENCODING 42932
SWIDTH 640 0
DWIDTH 16 0
BBX 13 24 2 -6
BITMAP
FF80
FFF0
FFF8
F1F8
F078
F078
F078
FFF0
FFC0
FFF0
F0F8
F078
F038
F078
F0F8
FFF8
FFF0
FFC0
F000
F000
F000
F000
F000
F000
ENDCHAR
STARTCHAR A7B5
ENCODING 42933
SWIDTH 640 0
DWIDTH 16 0
BBX 14 25 2 -6
BITMAP
1FC0
7FE0
7FF0
F0F8
F078
F078
F070
F0F0
F3C0
F3E0
F3F8
F078
F03C
F03C
F03C
F078
FFF8
FFF0
FFE0
F000
F000
F000
F000
F000
F000
ENDCHAR
STARTCHAR AB53
ENCODING 43859
SWIDTH 560 0
DWIDTH 14 0
BBX 15 20 0 -6
BITMAP
781E
7C1C
7C3C
1E78
0E78
0FF0
07E0
07E0
07C0
07C0
07C0
0FC0
0FE0
1EE0
1CE0
3CF0
78F8
787E
F07E
F01E
ENDCHAR
STARTCHAR FB00
ENCODING 64256
SWIDTH 760 0
DWIDTH 19 0
BBX 20 19 0 0
BITMAP
0FE3F0
1FC7F0
1FCFF0
1E0F00
1C0F00
3FCFE0
FFFFE0
FFFFE0
1C0F00
1C0F00
1C0F00
1C0F00
1C0F00
1C0F00
1C0F00
1C0F00
1C0F00
1C0F00
1C0F00
ENDCHAR
STARTCHAR FB01
ENCODING 64257
SWIDTH 680 0
DWIDTH 17 0
BBX 16 19 0 0
BITMAP
0FEE
1FDF
1FCE
1E0C
1C00
3FCE
FFCE
FFCE
1C0E
1C0E
1C0E
1C0E
1C0E
1C0E
1C0E
1C0E
1C0E
1C0E
1C0E
ENDCHAR
STARTCHAR FB02
ENCODING 64258
SWIDTH 680 0
DWIDTH 17 0
BBX 15 19 0 0
BITMAP
0FEE
1FCE
1FCE
1E0E
1C0E
3FCE
FFCE
FFCE
1C0E
1C0E
1C0E
1C0E
1C0E
1C0E
1C0E
1C0E
1C0E
1C0E
1C0E
ENDCHAR
STARTCHAR FB03
ENCODING 64259
SWIDTH 1040 0
DWIDTH 26 0
BBX 25 19 0 0
BITMAP
0FE3F380
1FC7F780
1FCFF780
1E0F0100
1C0F0000
3FCFE780
FFFFE780
FFFFE780
1C0F0780
1C0F0780
1C0F0780
1C0F0780
1C0F0780
1C0F0780
1C0F0780
1C0F0780
1C0F0780
1C0F0780
1C0F0780
ENDCHAR
STARTCHAR FB04
ENCODING 64260
SWIDTH 1040 0
DWIDTH 26 0
BBX 25 19 0 0
BITMAP
0FE3F780
1FC7F780
1FCFF780
1E0F0780
1C0F0780
3FCFE780
FFFFE780
FFFFE780
1C0F0780
1C0F0780
1C0F0780
1C0F0780
1C0F0780
1C0F0780
1C0F0780
1C0F0780
1C0F0780
1C0F0780
1C0F0780
ENDCHAR
STARTCHAR FB2A
ENCODING 64298
SWIDTH 760 0
DWIDTH 19 0
BBX 17 19 1 0
BITMAP
000180
000180
000000
F1E380
F1E380
F1E780
71C780
71C780
71C780
73C780
73C780
7F8700
7F0700
7E0F00
780F00
783E00
7FFC00
7FF800
3FE000
ENDCHAR
STARTCHAR FB2B
ENCODING 64299
SWIDTH 760 0
DWIDTH 19 0
BBX 17 19 1 0
BITMAP
600000
600000
000000
F1E380
F1E380
F1E780
71C780
71C780
71C780
73C780
73C780
7F8700
7F0700
7E0F00
780F00
783E00
7FFC00
7FF800
3FE000
ENDCHAR
STARTCHAR FB2C
ENCODING 64300
SWIDTH 760 0
DWIDTH 19 0
BBX 17 19 1 0
BITMAP
000180
000180
000000
F1E380
F1E380
F1E780
71C780
71C780
71C780
73C780
73C780
7F8700
7F0700
7E6F00
780F00
783E00
7FFC00
7FF800
3FE000
ENDCHAR
STARTCHAR FB2D
ENCODING 64301
SWIDTH 760 0
DWIDTH 19 0
BBX 17 19 1 0
BITMAP
600000
600000
000000
F1E380
F1E380
F1E780
71C780
71C780
71C780
73C780
73C780
7F8700
7F0700
7E6F00
780F00
783E00
7FFC00
7FF800
3FE000
ENDCHAR
STARTCHAR FB2E
ENCODING 64302
SWIDTH 640 0
DWIDTH 16 0
BBX 14 19 1 -3
BITMAP
F038
7838
3C38
3C38
1E38
1E38
3F38
7FF8
77F8
F3F0
F1E0
F1E0
F0F0
F0F0
F078
F03C
0000
0000
0780
ENDCHAR
STARTCHAR FB2F
ENCODING 64303
SWIDTH 640 0
DWIDTH 16 0
BBX 14 21 1 -5
BITMAP
F038
7838
3C38
3C38
1E38
1E38
3F38
7FF8
77F8
F3F0
F1E0
F1E0
F0F0
F0F0
F078
F03C
0000
0000
0780
0300
0300
ENDCHAR
STARTCHAR FB30
ENCODING 64304
SWIDTH 640 0
DWIDTH 16 0
BBX 14 16 1 0
BITMAP
F038
7838
3C38
3C38
1E38
1E38
3F38
7FF8
77F8
F3F0
F1E0
F1E0
F6F0
F6F0
F078
F03C
ENDCHAR
STARTCHAR FB31
ENCODING 64305
SWIDTH 560 0
DWIDTH 14 0
BBX 13 16 1 0
BITMAP
FF00
FFC0
FFE0
01E0
01E0
01E0
01E0
19E0
19E0
01E0
01E0
01E0
01E0
FFF8
FFF8
FFF8
ENDCHAR
STARTCHAR FB32
ENCODING 64306
SWIDTH 440 0
DWIDTH 11 0
BBX 9 16 1 0
BITMAP
3E00
3F00
3F00
0780
0780
0780
0780
3780
2780
0780
0780
0F80
1F80
FF80
FB80
F380
ENDCHAR
STARTCHAR FB33
ENCODING 64307
SWIDTH 520 0
DWIDTH 13 0
BBX 12 16 1 0
BITMAP
FFF0
FFF0
FFF0
01E0
03C0
03C0
03C0
33C0
33C0
03C0
03C0
03C0
03C0
03C0
03C0
03C0
ENDCHAR
STARTCHAR FB34
ENCODING 64308
SWIDTH 640 0
DWIDTH 16 0
BBX 13 16 2 0
BITMAP
FFC0
FFE0
FFF0
00F0
0070
0078
0078
F678
F678
F078
F078
F078
F078
F078
F078
F078
ENDCHAR
STARTCHAR FB35
ENCODING 64309
SWIDTH 280 0
DWIDTH 7 0
BBX 7 16 -1 0
BITMAP
1E
1E
1E
1E
1E
1E
1E
DE
DE
1E
1E
1E
1E
1E
1E
1E
ENDCHAR
STARTCHAR FB36
ENCODING 64310
SWIDTH 320 0
DWIDTH 8 0
BBX 9 16 -1 0
BITMAP
3F80
3F80
3F80
0700
0F00
0E00
0E00
DE00
5E00
1E00
1E00
1E00
1E00
1E00
1E00
1E00
ENDCHAR
STARTCHAR FB38
ENCODING 64312
SWIDTH 640 0
DWIDTH 16 0
BBX 13 16 2 0
BITMAP
F3C0
F3F0
F3F0
F0F8
F078
F078
F078
F678
F278
F078
F078
F078
78F0
7FF0
3FE0
1FC0
ENDCHAR
STARTCHAR FB39
ENCODING 64313
SWIDTH 280 0
DWIDTH 7 0
BBX 6 11 -1 5
BITMAP
1C
1C
1C
1C
DC
DC
1C
1C
1C
18
10
ENDCHAR
STARTCHAR FB3A
ENCODING 64314
SWIDTH 520 0
DWIDTH 13 0
BBX 11 22 1 -6
BITMAP
FE00
FF80
FF80
03C0
03C0
01C0
01C0
31E0
31E0
01E0
01E0
01E0
01E0
01E0
01E0
01E0
01E0
01E0
01E0
01E0
01E0
01E0
ENDCHAR
STARTCHAR FB3B
ENCODING 64315
SWIDTH 480 0
DWIDTH 12 0
BBX 11 16 1 0
BITMAP
FE00
FF80
FFC0
03C0
01C0
01E0
01E0
31E0
31E0
01E0
01E0
01E0
03C0
FFC0
FF80
FF00
ENDCHAR
STARTCHAR FB3C
ENCODING 64316
SWIDTH 520 0
DWIDTH 13 0
BBX 12 19 1 0
BITMAP
F000
F000
F000
FFF0
FFF0
FFF0
00E0
00E0
01E0
01E0
31C0
33C0
03C0
0380
0380
0780
0780
0780
0700
ENDCHAR
STARTCHAR FB3E
ENCODING 64318
SWIDTH 680 0
DWIDTH 17 0
BBX 14 16 1 0
BITMAP
73E0
77F8
7FF8
7C7C
783C
783C
783C
7B3C
793C
703C
703C
703C
703C
F1FC
F1FC
F1FC
ENDCHAR
STARTCHAR FB40
ENCODING 64320
SWIDTH 400 0
DWIDTH 10 0
BBX 8 16 1 0
BITMAP
7C
7E
7F
0F
07
07
07
67
67
07
07
07
0F
FF
FF
FF
ENDCHAR
STARTCHAR FB41
ENCODING 64321
SWIDTH 600 0
DWIDTH 15 0
BBX 13 16 1 0
BITMAP
FFC0
FFE0
FFF0
78F8
7078
F078
F038
F338
F338
F038
F078
7078
7878
7FF0
3FE0
1FC0
ENDCHAR
STARTCHAR FB43
ENCODING 64323
SWIDTH 600 0
DWIDTH 15 0
BBX 13 22 1 -6
BITMAP
1F80
3FE0
7FF0
F8F0
F078
F678
F078
F078
7C78
7C78
1C78
0078
0078
0078
0078
0078
0078
0078
0078
0078
0078
0078
ENDCHAR
STARTCHAR FB44
ENCODING 64324
SWIDTH 600 0
DWIDTH 15 0
BBX 13 16 1 0
BITMAP
0FC0
3FE0
7FF0
F8F8
F078
F378
F278
F838
7E38
3C78
1C78
0078
0078
3FF0
3FE0
3FC0
ENDCHAR
STARTCHAR FB46
ENCODING 64326
SWIDTH 600 0
DWIDTH 15 0
BBX 13 16 1 0
BITMAP
F038
7878
7878
3C78
1C78
1E78
0FF0
0FF0
07E0
63C0
21E0
01E0
00F0
FFF8
FFF8
FFF8
ENDCHAR
STARTCHAR FB47
ENCODING 64327
SWIDTH 600 0
DWIDTH 15 0
BBX 14 22 2 -6
BITMAP
FFFC
FFFC
FFFC
0078
0078
0078
00F0
F6F0
F6F0
F1E0
F1E0
F1E0
F1C0
F3C0
F3C0
F3C0
F000
F000
F000
F000
F000
F000
ENDCHAR
STARTCHAR FB48
ENCODING 64328
SWIDTH 520 0
DWIDTH 13 0
BBX 10 16 1 0
BITMAP
FF00
FF80
FFC0
03C0
01C0
01C0
01C0
31C0
31C0
01C0
01C0
01C0
01C0
01C0
01C0
01C0
ENDCHAR
STARTCHAR FB49
ENCODING 64329
SWIDTH 760 0
DWIDTH 19 0
BBX 17 16 1 0
BITMAP
F1E380
F1E380
F1E780
71C780
71C780
71C780
73C780
73C780
7F8700
7F0700
7E6F00
780F00
783E00
7FFC00
7FF800
3FE000
ENDCHAR
STARTCHAR FB4A
ENCODING 64330
SWIDTH 680 0
DWIDTH 17 0
BBX 14 16 1 0
BITMAP
7FF0
7FF8
7FFC
1C3C
1C1C
1C1C
1C1C
1D9C
1D9C
1C1C
1C1C
1C1C
3C1C
FC1C
FC1C
F81C
ENDCHAR
STARTCHAR FB4B
ENCODING 64331
SWIDTH 280 0
DWIDTH 7 0
BBX 4 18 2 0
BITMAP
60
40
F0
F0
F0
F0
F0
F0
F0
F0
F0
F0
F0
F0
F0
F0
F0
F0
ENDCHAR
STARTCHAR FEFF
ENCODING 65279
SWIDTH 0 0
DWIDTH 0 0
BBX 0 0 0 0
BITMAP
ENDCHAR
STARTCHAR FFFC
ENCODING 65532
SWIDTH 1000 0
DWIDTH 25 0
BBX 23 24 1 -5
BITMAP
F7B9CE
F7B9CE
800002
800002
000000
000000
800002
800002
8F9E32
189230
989632
98DE32
989332
8D9632
0F1EE0
800002
800002
800002
800002
000000
800002
800002
F7B9CE
F7B9CE
ENDCHAR
STARTCHAR FFFD
ENCODING 65533
SWIDTH 1000 0
DWIDTH 25 0
BBX 23 23 1 -4
BITMAP
001000
003800
007C00
00FE00
01FF00
030380
0701C0
0F30E0
1FF8F0
3FF8F8
7FF1FC
FFE3FE
7FC7FC
3FCFF8
1FCFF0
0FFFE0
07CFC0
038780
018700
00FE00
007C00
003800
001000
ENDCHAR
ENDFONT
